# Blender 4.5.4 LTS
# www.blender.org
mtllib bardavidrio.mtl
o Cube.005
v 3.880046 1.052074 27.346083
v 3.880046 4.814074 27.346083
v 3.720046 1.052074 27.346083
v 3.720046 4.814074 27.346083
v 3.880045 1.052074 10.178663
v 3.880045 4.814074 10.178663
v 3.720045 1.052074 10.178663
v 3.720045 4.814074 10.178663
v 10.573124 0.986725 2.912556
v 10.573124 4.879476 2.912556
v 10.573124 0.986725 2.752857
v 10.573124 4.879476 2.752857
v 29.548315 0.986725 2.912556
v 29.548315 4.879476 2.912556
v 29.548315 0.986725 2.752855
v 29.548315 4.879476 2.752855
v 3.641846 1.052512 10.163873
v 3.641846 4.813689 10.163873
v 3.527559 1.052512 10.057415
v 3.527559 4.813689 10.057415
v 10.501585 1.052512 2.799563
v 10.501585 4.813689 2.799563
v 10.387297 1.052512 2.693106
v 10.387297 4.813689 2.693106
vn -0.0000 -0.0000 1.0000
vn -1.0000 -0.0000 -0.0000
vn -0.0000 -0.0000 -1.0000
vn 1.0000 -0.0000 -0.0000
vn -0.0000 -1.0000 -0.0000
vn -0.0000 1.0000 -0.0000
vn -0.6816 -0.0000 0.7317
vn -0.7317 -0.0000 -0.6816
vn 0.6816 -0.0000 -0.7317
vn 0.7317 -0.0000 0.6816
vt 0.375000 0.000000
vt 0.625000 0.000000
vt 0.625000 0.250000
vt 0.375000 0.250000
vt 0.625000 0.500000
vt 0.375000 0.500000
vt 0.625000 0.750000
vt 0.375000 0.750000
vt 0.625000 1.000000
vt 0.375000 1.000000
vt 0.125000 0.500000
vt 0.125000 0.750000
vt 0.875000 0.500000
vt 0.875000 0.750000
s 0
usemtl Material.017
f 1/1/1 2/2/1 4/3/1 3/4/1
f 3/4/2 4/3/2 8/5/2 7/6/2
f 7/6/3 8/5/3 6/7/3 5/8/3
f 5/8/4 6/7/4 2/9/4 1/10/4
f 3/11/5 7/6/5 5/8/5 1/12/5
f 8/5/6 4/13/6 2/14/6 6/7/6
f 9/1/2 10/2/2 12/3/2 11/4/2
f 11/4/3 12/3/3 16/5/3 15/6/3
f 15/6/4 16/5/4 14/7/4 13/8/4
f 13/8/1 14/7/1 10/9/1 9/10/1
f 11/11/5 15/6/5 13/8/5 9/12/5
f 16/5/6 12/13/6 10/14/6 14/7/6
f 17/1/7 18/2/7 20/3/7 19/4/7
f 19/4/8 20/3/8 24/5/8 23/6/8
f 23/6/9 24/5/9 22/7/9 21/8/9
f 21/8/10 22/7/10 18/9/10 17/10/10
f 19/11/5 23/6/5 21/8/5 17/12/5
f 24/5/6 20/13/6 18/14/6 22/7/6
