# Blender 4.5.4 LTS
# www.blender.org
mtllib botesbasura1.mtl
o Cube.001
v -20.453588 2.931387 2.259798
v -20.243298 2.782400 4.173430
v -22.033007 2.931387 2.259799
v -22.243298 2.782400 4.173430
v -20.801447 3.726465 2.720706
v -20.721523 3.875453 3.539786
v -21.765072 3.875453 3.539786
v -21.685150 3.726465 2.720706
v -22.243298 2.782400 2.173430
v -20.243298 2.782400 2.173430
v -21.765072 3.875453 2.807075
v -20.721523 3.875453 2.807075
v -22.033007 2.882827 2.343566
v -20.453588 2.882827 2.343566
v -21.685150 3.677905 2.804474
v -20.801447 3.677905 2.804474
v -22.033007 2.849406 2.401218
v -20.453588 2.849406 2.401218
v -21.685150 3.644484 2.862126
v -20.801447 3.644484 2.862126
v -20.459507 -0.299599 2.389639
v -20.243298 2.782400 2.173430
v -20.459507 -0.299599 3.957221
v -20.243298 2.782400 4.173430
v -22.027088 -0.299599 2.389639
v -22.243298 2.782400 2.173430
v -22.027088 -0.299599 3.957221
v -22.243298 2.782400 4.173430
v -20.257246 2.583561 2.187379
v -20.257246 2.583561 4.159481
v -22.229349 2.583561 4.159482
v -22.229349 2.583561 2.187379
v -20.264679 2.477610 4.152049
v -22.221916 2.477610 4.152049
v -22.221916 2.477610 2.194812
v -20.264679 2.477610 2.194812
v -20.081013 2.467668 2.011146
v -20.072186 2.593504 2.002318
v -22.414410 2.593504 2.002318
v -22.414410 2.593503 4.344543
v -20.072186 2.593503 4.344543
v -20.081013 2.467668 4.335715
v -22.405582 2.467668 4.335715
v -22.405582 2.467668 2.011146
v -20.459507 -0.299599 2.389639
v -22.027088 -0.299599 2.389639
v -22.221916 2.477610 2.194812
v -20.264679 2.477610 2.194812
vn -0.0000 -1.0000 -0.0000
vn -0.0000 1.0000 -0.0000
vn -0.9162 0.4008 -0.0000
vn 0.9162 0.4008 -0.0000
vn -0.9352 -0.3063 -0.1775
vn -0.0000 0.5015 0.8651
vn -0.0000 0.5015 -0.8651
vn -0.0000 -0.8651 -0.5015
vn 0.9352 -0.3063 -0.1775
vn -0.0000 0.8651 0.5015
vn 0.9975 -0.0700 -0.0000
vn -0.0000 -0.0700 0.9975
vn -0.9975 -0.0700 -0.0000
vn -0.0000 -0.0700 -0.9975
vn -0.0541 -0.9985 -0.0000
vn 0.0541 -0.9985 -0.0000
vn 0.0536 0.9986 -0.0000
vn -0.0536 0.9986 -0.0000
vn -0.0000 0.9986 -0.0536
vn -0.0000 -0.9985 0.0541
vn -0.0000 0.9986 0.0536
vn -0.0000 -0.9985 -0.0541
vt 0.625000 0.500000
vt 0.625000 0.750000
vt 0.875000 0.750000
vt 0.875000 0.500000
vt 0.847872 0.750000
vt 0.855056 0.750000
vt 0.644944 0.750000
vt 0.652128 0.750000
vt 0.608871 0.000000
vt 0.625000 0.000000
vt 0.625000 0.250000
vt 0.608871 0.250000
vt 0.608871 0.500000
vt 0.608871 0.750000
vt 0.625000 1.000000
vt 0.608871 1.000000
vt 0.125000 0.500000
vt 0.375000 0.500000
vt 0.375000 0.750000
vt 0.125000 0.750000
vt 0.600277 0.250000
vt 0.600277 0.000000
vt 0.600277 0.750000
vt 0.600277 0.500000
vt 0.375000 0.000000
vt 0.375000 0.250000
vt 0.600277 1.000000
vt 0.896229 0.106691
vt 0.892098 0.906844
vt 0.106569 0.900172
vt 0.110700 0.100019
s 1
usemtl Material.013
f 4/1/1 9/2/1 10/3/1 2/4/1
f 7/1/2 6/4/2 12/3/2 11/2/2
f 9/2/3 4/1/3 7/1/3 11/2/3
f 2/4/4 10/3/4 12/3/4 6/4/4
f 5/5/5 1/6/5 14/6/5 16/5/5
f 4/1/6 2/4/6 6/4/6 7/1/6
f 3/7/7 1/6/7 10/3/7 9/2/7
f 5/5/7 8/8/7 11/2/7 12/3/7
f 8/8/7 3/7/7 9/2/7 11/2/7
f 1/6/7 5/5/7 12/3/7 10/3/7
f 15/8/8 16/5/8 20/5/8 19/8/8
f 8/8/8 5/5/8 16/5/8 15/8/8
f 3/7/9 8/8/9 15/8/9 13/7/9
f 1/6/10 3/7/10 13/7/10 14/6/10
f 18/6/7 17/7/7 19/8/7 20/5/7
f 13/7/9 15/8/9 19/8/9 17/7/9
f 14/6/10 13/7/10 17/7/10 18/6/10
f 16/5/5 14/6/5 18/6/5 20/5/5
usemtl Material.016
f 29/9/11 22/10/11 24/11/11 30/12/11
f 30/12/12 24/11/12 28/1/12 31/13/12
f 31/13/13 28/1/13 26/2/13 32/14/13
f 32/14/14 26/2/14 22/15/14 29/16/14
f 23/17/1 27/18/1 25/19/1 21/20/1
f 33/21/15 36/22/15 37/22/15 42/21/15
f 35/23/16 34/24/16 43/24/16 44/23/16
f 31/13/17 32/14/17 39/14/17 40/13/17
f 29/9/18 30/12/18 41/12/18 38/9/18
f 21/25/11 36/22/11 33/21/11 23/26/11
f 23/26/12 33/21/12 34/24/12 27/18/12
f 27/18/13 34/24/13 35/23/13 25/19/13
f 44/23/14 39/14/14 38/16/14 37/27/14
f 43/24/13 40/13/13 39/14/13 44/23/13
f 42/21/12 41/12/12 40/13/12 43/24/12
f 37/22/11 38/9/11 41/12/11 42/21/11
f 30/12/19 31/13/19 40/13/19 41/12/19
f 36/27/20 35/23/20 44/23/20 37/27/20
f 32/14/21 29/16/21 38/16/21 39/14/21
f 34/24/22 33/21/22 42/21/22 43/24/22
usemtl Material.017
f 46/28/14 47/29/14 48/30/14 45/31/14
o Cube.002
v -17.688360 2.931387 2.259798
v -17.478069 2.782400 4.173430
v -19.267778 2.931387 2.259799
v -19.478069 2.782400 4.173430
v -18.036219 3.726465 2.720706
v -17.956295 3.875453 3.539786
v -18.999844 3.875453 3.539786
v -18.919922 3.726465 2.720706
v -19.478069 2.782400 2.173430
v -17.478069 2.782400 2.173430
v -18.999844 3.875453 2.807075
v -17.956295 3.875453 2.807075
v -19.267778 2.882827 2.343566
v -17.688360 2.882827 2.343566
v -18.919922 3.677905 2.804474
v -18.036219 3.677905 2.804474
v -19.267778 2.849406 2.401218
v -17.688360 2.849406 2.401218
v -18.919922 3.644484 2.862126
v -18.036219 3.644484 2.862126
v -17.694279 -0.299599 2.389639
v -17.478069 2.782400 2.173430
v -17.694279 -0.299599 3.957221
v -17.478069 2.782400 4.173430
v -19.261860 -0.299599 2.389639
v -19.478069 2.782400 2.173430
v -19.261860 -0.299599 3.957221
v -19.478069 2.782400 4.173430
v -17.492018 2.583561 2.187379
v -17.492018 2.583561 4.159481
v -19.464121 2.583561 4.159482
v -19.464121 2.583561 2.187379
v -17.499451 2.477610 4.152049
v -19.456688 2.477610 4.152049
v -19.456688 2.477610 2.194812
v -17.499451 2.477610 2.194812
v -17.315784 2.467668 2.011146
v -17.306957 2.593504 2.002318
v -19.649181 2.593504 2.002318
v -19.649181 2.593503 4.344543
v -17.306957 2.593503 4.344543
v -17.315784 2.467668 4.335715
v -19.640354 2.467668 4.335715
v -19.640354 2.467668 2.011146
v -17.694279 -0.299599 2.389639
v -19.261860 -0.299599 2.389639
v -19.456688 2.477610 2.194812
v -17.499451 2.477610 2.194812
vn -0.0000 -1.0000 -0.0000
vn -0.0000 1.0000 -0.0000
vn -0.9162 0.4008 -0.0000
vn 0.9162 0.4008 -0.0000
vn -0.9352 -0.3063 -0.1775
vn -0.0000 0.5015 0.8651
vn -0.0000 0.5015 -0.8651
vn -0.0000 -0.8651 -0.5015
vn 0.9352 -0.3063 -0.1775
vn -0.0000 0.8651 0.5015
vn 0.9975 -0.0700 -0.0000
vn -0.0000 -0.0700 0.9975
vn -0.9975 -0.0700 -0.0000
vn -0.0000 -0.0700 -0.9975
vn -0.0541 -0.9985 -0.0000
vn 0.0541 -0.9985 -0.0000
vn 0.0536 0.9986 -0.0000
vn -0.0536 0.9986 -0.0000
vn -0.0000 0.9986 -0.0536
vn -0.0000 -0.9985 0.0541
vn -0.0000 0.9986 0.0536
vn -0.0000 -0.9985 -0.0541
vt 0.625000 0.500000
vt 0.625000 0.750000
vt 0.875000 0.750000
vt 0.875000 0.500000
vt 0.847872 0.750000
vt 0.855056 0.750000
vt 0.644944 0.750000
vt 0.652128 0.750000
vt 0.608871 0.000000
vt 0.625000 0.000000
vt 0.625000 0.250000
vt 0.608871 0.250000
vt 0.608871 0.500000
vt 0.608871 0.750000
vt 0.625000 1.000000
vt 0.608871 1.000000
vt 0.125000 0.500000
vt 0.375000 0.500000
vt 0.375000 0.750000
vt 0.125000 0.750000
vt 0.600277 0.250000
vt 0.600277 0.000000
vt 0.600277 0.750000
vt 0.600277 0.500000
vt 0.375000 0.000000
vt 0.375000 0.250000
vt 0.600277 1.000000
vt 0.896229 0.106691
vt 0.892098 0.906844
vt 0.106569 0.900172
vt 0.110700 0.100019
s 1
usemtl Material.013
f 52/32/23 57/33/23 58/34/23 50/35/23
f 55/32/24 54/35/24 60/34/24 59/33/24
f 57/33/25 52/32/25 55/32/25 59/33/25
f 50/35/26 58/34/26 60/34/26 54/35/26
f 53/36/27 49/37/27 62/37/27 64/36/27
f 52/32/28 50/35/28 54/35/28 55/32/28
f 51/38/29 49/37/29 58/34/29 57/33/29
f 53/36/29 56/39/29 59/33/29 60/34/29
f 56/39/29 51/38/29 57/33/29 59/33/29
f 49/37/29 53/36/29 60/34/29 58/34/29
f 63/39/30 64/36/30 68/36/30 67/39/30
f 56/39/30 53/36/30 64/36/30 63/39/30
f 51/38/31 56/39/31 63/39/31 61/38/31
f 49/37/32 51/38/32 61/38/32 62/37/32
f 66/37/29 65/38/29 67/39/29 68/36/29
f 61/38/31 63/39/31 67/39/31 65/38/31
f 62/37/32 61/38/32 65/38/32 66/37/32
f 64/36/27 62/37/27 66/37/27 68/36/27
usemtl Material.016
f 77/40/33 70/41/33 72/42/33 78/43/33
f 78/43/34 72/42/34 76/32/34 79/44/34
f 79/44/35 76/32/35 74/33/35 80/45/35
f 80/45/36 74/33/36 70/46/36 77/47/36
f 71/48/23 75/49/23 73/50/23 69/51/23
f 81/52/37 84/53/37 85/53/37 90/52/37
f 83/54/38 82/55/38 91/55/38 92/54/38
f 79/44/39 80/45/39 87/45/39 88/44/39
f 77/40/40 78/43/40 89/43/40 86/40/40
f 69/56/33 84/53/33 81/52/33 71/57/33
f 71/57/34 81/52/34 82/55/34 75/49/34
f 75/49/35 82/55/35 83/54/35 73/50/35
f 92/54/36 87/45/36 86/47/36 85/58/36
f 91/55/35 88/44/35 87/45/35 92/54/35
f 90/52/34 89/43/34 88/44/34 91/55/34
f 85/53/33 86/40/33 89/43/33 90/52/33
f 78/43/41 79/44/41 88/44/41 89/43/41
f 84/58/42 83/54/42 92/54/42 85/58/42
f 80/45/43 77/47/43 86/47/43 87/45/43
f 82/55/44 81/52/44 90/52/44 91/55/44
usemtl Material.017
f 94/59/36 95/60/36 96/61/36 93/62/36
