# Blender 4.5.4 LTS
# www.blender.org
mtllib botesbasura.mtl
o Cube.002
v -17.688360 2.931387 2.259798
v -17.478069 2.782400 4.173430
v -19.267778 2.931387 2.259799
v -19.478069 2.782400 4.173430
v -18.036219 3.726465 2.720706
v -17.956295 3.875453 3.539786
v -18.999844 3.875453 3.539786
v -18.919922 3.726465 2.720706
v -19.478069 2.782400 2.173430
v -17.478069 2.782400 2.173430
v -18.999844 3.875453 2.807075
v -17.956295 3.875453 2.807075
v -19.267778 2.882827 2.343566
v -17.688360 2.882827 2.343566
v -18.919922 3.677905 2.804474
v -18.036219 3.677905 2.804474
v -19.267778 2.849406 2.401218
v -17.688360 2.849406 2.401218
v -18.919922 3.644484 2.862126
v -18.036219 3.644484 2.862126
v -17.694279 -0.299599 2.389639
v -17.478069 2.782400 2.173430
v -17.694279 -0.299599 3.957221
v -17.478069 2.782400 4.173430
v -19.261860 -0.299599 2.389639
v -19.478069 2.782400 2.173430
v -19.261860 -0.299599 3.957221
v -19.478069 2.782400 4.173430
v -17.492018 2.583561 2.187379
v -17.492018 2.583561 4.159481
v -19.464121 2.583561 4.159482
v -19.464121 2.583561 2.187379
v -17.499451 2.477610 4.152049
v -19.456688 2.477610 4.152049
v -19.456688 2.477610 2.194812
v -17.499451 2.477610 2.194812
v -17.315784 2.467668 2.011146
v -17.306957 2.593504 2.002318
v -19.649181 2.593504 2.002318
v -19.649181 2.593503 4.344543
v -17.306957 2.593503 4.344543
v -17.315784 2.467668 4.335715
v -19.640354 2.467668 4.335715
v -19.640354 2.467668 2.011146
v -17.694279 -0.299599 2.389639
v -19.261860 -0.299599 2.389639
v -19.456688 2.477610 2.194812
v -17.499451 2.477610 2.194812
vn -0.0000 -1.0000 -0.0000
vn -0.0000 1.0000 -0.0000
vn -0.9162 0.4008 -0.0000
vn 0.9162 0.4008 -0.0000
vn -0.9352 -0.3063 -0.1775
vn -0.0000 0.5015 0.8651
vn -0.0000 0.5015 -0.8651
vn -0.0000 -0.8651 -0.5015
vn 0.9352 -0.3063 -0.1775
vn -0.0000 0.8651 0.5015
vn 0.9975 -0.0700 -0.0000
vn -0.0000 -0.0700 0.9975
vn -0.9975 -0.0700 -0.0000
vn -0.0000 -0.0700 -0.9975
vn -0.0541 -0.9985 -0.0000
vn 0.0541 -0.9985 -0.0000
vn 0.0536 0.9986 -0.0000
vn -0.0536 0.9986 -0.0000
vn -0.0000 0.9986 -0.0536
vn -0.0000 -0.9985 0.0541
vn -0.0000 0.9986 0.0536
vn -0.0000 -0.9985 -0.0541
vt 0.625000 0.500000
vt 0.625000 0.750000
vt 0.875000 0.750000
vt 0.875000 0.500000
vt 0.169896 0.492079
vt 0.100793 0.492079
vt 0.100793 0.422975
vt 0.169896 0.422975
vt 0.210108 0.476722
vt 0.217291 0.476722
vt 0.164384 0.422975
vt 0.106306 0.422975
vt 0.108292 0.422975
vt 0.162398 0.422975
vt 0.014363 0.476722
vt 0.007180 0.476722
vt 0.218847 0.314340
vt 0.008735 0.314340
vt 0.174355 0.630286
vt 0.169896 0.630286
vt 0.169896 0.561182
vt 0.174355 0.561182
vt 0.174355 0.492079
vt 0.174355 0.422975
vt 0.169896 0.353872
vt 0.174355 0.353872
vt 0.125000 0.500000
vt 0.375000 0.500000
vt 0.375000 0.750000
vt 0.125000 0.750000
vt 0.600277 0.250000
vt 0.600277 0.000000
vt 0.600277 0.750000
vt 0.600277 0.500000
vt 0.444703 0.077352
vt 0.530574 0.077352
vt 0.530574 0.172648
vt 0.444703 0.172648
vt 0.266935 0.059577
vt 0.425402 0.059577
vt 0.425402 0.235435
vt 0.266935 0.235435
vt 0.921762 0.908113
vt 0.812983 0.908113
vt 0.812983 0.787396
vt 0.921762 0.787396
vt 0.176730 0.422975
vt 0.176730 0.353872
vt 0.176730 0.492079
vt 0.176730 0.561182
vt 0.176730 0.630286
vt 0.600277 1.000000
vt 0.888629 0.054382
vt 0.888118 0.911758
vt 0.330096 0.909344
vt 0.332932 0.063808
s 1
usemtl Material.018
f 4/1/1 9/2/1 10/3/1 2/4/1
f 7/5/2 6/6/2 12/7/2 11/8/2
f 9/8/3 4/5/3 7/5/3 11/8/3
f 2/6/4 10/7/4 12/7/4 6/6/4
f 5/9/5 1/10/5 14/10/5 16/9/5
f 4/5/6 2/6/6 6/6/6 7/5/6
f 3/11/7 1/12/7 10/7/7 9/8/7
f 5/13/7 8/14/7 11/8/7 12/7/7
f 8/14/7 3/11/7 9/8/7 11/8/7
f 1/12/7 5/13/7 12/7/7 10/7/7
f 15/15/8 16/9/8 20/9/8 19/15/8
f 8/14/8 5/13/8 16/13/8 15/14/8
f 3/16/9 8/15/9 15/15/9 13/16/9
f 1/17/10 3/18/10 13/18/10 14/17/10
f 18/12/7 17/11/7 19/14/7 20/13/7
f 13/16/9 15/15/9 19/15/9 17/16/9
f 14/17/10 13/18/10 17/18/10 18/17/10
f 16/9/5 14/10/5 18/10/5 20/9/5
f 29/19/11 22/20/11 24/21/11 30/22/11
f 30/22/12 24/21/12 28/5/12 31/23/12
f 31/23/13 28/5/13 26/8/13 32/24/13
f 32/24/14 26/8/14 22/25/14 29/26/14
f 23/27/1 27/28/1 25/29/1 21/30/1
f 33/31/15 36/32/15 37/32/15 42/31/15
f 35/33/16 34/34/16 43/34/16 44/33/16
f 31/23/17 32/24/17 39/24/17 40/23/17
f 29/19/18 30/22/18 41/22/18 38/19/18
f 21/35/11 36/36/11 33/37/11 23/38/11
f 23/39/12 33/40/12 34/41/12 27/42/12
f 27/43/13 34/44/13 35/45/13 25/46/13
f 44/47/14 39/24/14 38/26/14 37/48/14
f 43/49/13 40/23/13 39/24/13 44/47/13
f 42/50/12 41/22/12 40/23/12 43/49/12
f 37/51/11 38/19/11 41/22/11 42/50/11
f 30/22/19 31/23/19 40/23/19 41/22/19
f 36/52/20 35/33/20 44/33/20 37/52/20
f 32/24/21 29/26/21 38/26/21 39/24/21
f 34/34/22 33/31/22 42/31/22 43/34/22
f 46/53/14 47/54/14 48/55/14 45/56/14
o Cube.001
v -20.419519 2.931387 2.259798
v -20.209229 2.782400 4.173430
v -21.998938 2.931387 2.259799
v -22.209229 2.782400 4.173430
v -20.767378 3.726465 2.720706
v -20.687454 3.875453 3.539786
v -21.731003 3.875453 3.539786
v -21.651081 3.726465 2.720706
v -22.209229 2.782400 2.173430
v -20.209229 2.782400 2.173430
v -21.731003 3.875453 2.807075
v -20.687454 3.875453 2.807075
v -21.998938 2.882827 2.343566
v -20.419519 2.882827 2.343566
v -21.651081 3.677905 2.804474
v -20.767378 3.677905 2.804474
v -21.998938 2.849406 2.401218
v -20.419519 2.849406 2.401218
v -21.651081 3.644484 2.862126
v -20.767378 3.644484 2.862126
v -20.425438 -0.299599 2.389639
v -20.209229 2.782400 2.173430
v -20.425438 -0.299599 3.957221
v -20.209229 2.782400 4.173430
v -21.993019 -0.299599 2.389639
v -22.209229 2.782400 2.173430
v -21.993019 -0.299599 3.957221
v -22.209229 2.782400 4.173430
v -20.223177 2.583561 2.187379
v -20.223177 2.583561 4.159481
v -22.195280 2.583561 4.159482
v -22.195280 2.583561 2.187379
v -20.230610 2.477610 4.152049
v -22.187847 2.477610 4.152049
v -22.187847 2.477610 2.194812
v -20.230610 2.477610 2.194812
v -20.046944 2.467668 2.011146
v -20.038116 2.593504 2.002318
v -22.380341 2.593504 2.002318
v -22.380341 2.593503 4.344543
v -20.038116 2.593503 4.344543
v -20.046944 2.467668 4.335715
v -22.371513 2.467668 4.335715
v -22.371513 2.467668 2.011146
v -20.425438 -0.299599 2.389639
v -21.993019 -0.299599 2.389639
v -22.187847 2.477610 2.194812
v -20.230610 2.477610 2.194812
vn -0.0000 -1.0000 -0.0000
vn -0.0000 1.0000 -0.0000
vn -0.9162 0.4008 -0.0000
vn 0.9162 0.4008 -0.0000
vn -0.9352 -0.3063 -0.1775
vn -0.0000 0.5015 0.8651
vn -0.0000 0.5015 -0.8651
vn -0.0000 -0.8651 -0.5015
vn 0.9352 -0.3063 -0.1775
vn -0.0000 0.8651 0.5015
vn 0.9975 -0.0700 -0.0000
vn -0.0000 -0.0700 0.9975
vn -0.9975 -0.0700 -0.0000
vn -0.0000 -0.0700 -0.9975
vn -0.0541 -0.9985 -0.0000
vn 0.0541 -0.9985 -0.0000
vn 0.0536 0.9986 -0.0000
vn -0.0536 0.9986 -0.0000
vn -0.0000 0.9986 -0.0536
vn -0.0000 -0.9985 0.0541
vn -0.0000 0.9986 0.0536
vn -0.0000 -0.9985 -0.0541
vt 0.625000 0.500000
vt 0.625000 0.750000
vt 0.875000 0.750000
vt 0.875000 0.500000
vt 0.169896 0.492079
vt 0.100793 0.492079
vt 0.100793 0.422975
vt 0.169896 0.422975
vt 0.210108 0.476722
vt 0.217291 0.476722
vt 0.164384 0.422975
vt 0.106306 0.422975
vt 0.108292 0.422975
vt 0.162398 0.422975
vt 0.014363 0.476722
vt 0.007180 0.476722
vt 0.218847 0.314340
vt 0.008735 0.314340
vt 0.174355 0.630286
vt 0.169896 0.630286
vt 0.169896 0.561182
vt 0.174355 0.561182
vt 0.174355 0.492079
vt 0.174355 0.422975
vt 0.169896 0.353872
vt 0.174355 0.353872
vt 0.125000 0.500000
vt 0.375000 0.500000
vt 0.375000 0.750000
vt 0.125000 0.750000
vt 0.600277 0.250000
vt 0.600277 0.000000
vt 0.600277 0.750000
vt 0.600277 0.500000
vt 0.444703 0.077352
vt 0.530574 0.077352
vt 0.530574 0.172648
vt 0.444703 0.172648
vt 0.266935 0.059577
vt 0.425402 0.059577
vt 0.425402 0.235435
vt 0.266935 0.235435
vt 0.921762 0.908113
vt 0.812983 0.908113
vt 0.812983 0.787396
vt 0.921762 0.787396
vt 0.176730 0.422975
vt 0.176730 0.353872
vt 0.176730 0.492079
vt 0.176730 0.561182
vt 0.176730 0.630286
vt 0.600277 1.000000
vt 0.888629 0.054382
vt 0.888118 0.911758
vt 0.330096 0.909344
vt 0.332932 0.063808
s 1
usemtl Material.018
f 52/57/23 57/58/23 58/59/23 50/60/23
f 55/61/24 54/62/24 60/63/24 59/64/24
f 57/64/25 52/61/25 55/61/25 59/64/25
f 50/62/26 58/63/26 60/63/26 54/62/26
f 53/65/27 49/66/27 62/66/27 64/65/27
f 52/61/28 50/62/28 54/62/28 55/61/28
f 51/67/29 49/68/29 58/63/29 57/64/29
f 53/69/29 56/70/29 59/64/29 60/63/29
f 56/70/29 51/67/29 57/64/29 59/64/29
f 49/68/29 53/69/29 60/63/29 58/63/29
f 63/71/30 64/65/30 68/65/30 67/71/30
f 56/70/30 53/69/30 64/69/30 63/70/30
f 51/72/31 56/71/31 63/71/31 61/72/31
f 49/73/32 51/74/32 61/74/32 62/73/32
f 66/68/29 65/67/29 67/70/29 68/69/29
f 61/72/31 63/71/31 67/71/31 65/72/31
f 62/73/32 61/74/32 65/74/32 66/73/32
f 64/65/27 62/66/27 66/66/27 68/65/27
f 77/75/33 70/76/33 72/77/33 78/78/33
f 78/78/34 72/77/34 76/61/34 79/79/34
f 79/79/35 76/61/35 74/64/35 80/80/35
f 80/80/36 74/64/36 70/81/36 77/82/36
f 71/83/23 75/84/23 73/85/23 69/86/23
f 81/87/37 84/88/37 85/88/37 90/87/37
f 83/89/38 82/90/38 91/90/38 92/89/38
f 79/79/39 80/80/39 87/80/39 88/79/39
f 77/75/40 78/78/40 89/78/40 86/75/40
f 69/91/33 84/92/33 81/93/33 71/94/33
f 71/95/34 81/96/34 82/97/34 75/98/34
f 75/99/35 82/100/35 83/101/35 73/102/35
f 92/103/36 87/80/36 86/82/36 85/104/36
f 91/105/35 88/79/35 87/80/35 92/103/35
f 90/106/34 89/78/34 88/79/34 91/105/34
f 85/107/33 86/75/33 89/78/33 90/106/33
f 78/78/41 79/79/41 88/79/41 89/78/41
f 84/108/42 83/89/42 92/89/42 85/108/42
f 80/80/43 77/82/43 86/82/43 87/80/43
f 82/90/44 81/87/44 90/87/44 91/90/44
f 94/109/36 95/110/36 96/111/36 93/112/36
