# Blender 4.5.4 LTS
# www.blender.org
mtllib ciervobebecuello.mtl
o Body_body.006
v -15.522733 2.441759 19.204121
v -15.669132 2.550203 19.234854
v -15.764451 2.698435 19.205734
v -15.788415 2.814767 19.064005
v -15.793086 2.046260 18.882687
v -16.005053 2.403448 18.814869
v -15.908957 2.563379 18.698050
v -15.953493 2.188061 18.892008
v -16.101839 2.010507 18.499397
v -15.929710 1.764877 18.528280
v -16.116688 2.347103 18.424452
v -15.639769 3.150280 19.208588
v -15.644446 3.038823 19.302847
v -15.531049 2.875064 19.339025
v -15.398744 2.755667 19.287067
v -15.452592 2.449516 19.135868
v -15.434431 2.576798 19.000967
v -15.577134 2.729567 18.909435
v -15.724689 2.825090 18.967545
v -15.650978 2.057501 18.812521
v -15.596466 2.427036 18.613392
v -15.757116 2.570940 18.624140
v -15.554926 2.215991 18.693014
v -15.587571 3.161583 19.104609
v -15.504671 3.069038 19.025724
v -15.388782 2.904183 19.068163
v -15.345043 2.766146 19.188892
v -15.767648 2.839805 19.010960
v -15.478821 2.429082 19.177738
v -15.427852 2.666413 19.255724
v -15.586004 2.483358 19.221060
v -15.632447 2.203212 19.083323
v -15.561401 2.774843 19.309025
v -15.715089 2.626254 19.260406
v -15.789356 2.318712 19.122143
v -15.682472 2.918656 19.257736
v -15.787739 2.763034 19.127863
v -15.890122 2.495169 19.054871
v -15.698812 3.023714 19.133524
v -15.863187 2.636993 18.909897
v -15.893990 1.923145 18.652662
v -16.034016 2.126668 18.624323
v -16.103853 2.360093 18.658085
v -15.979486 2.546514 18.554646
v -15.872375 2.098316 18.895382
v -15.718343 2.032210 18.855921
v -15.966518 2.497944 18.752373
v -16.006897 2.295168 18.867064
v -15.837648 2.590478 18.654778
v -15.844919 1.741449 18.528151
v -16.151278 2.189664 18.464035
v -16.014458 1.851042 18.521667
v -16.117132 2.457147 18.473677
v -15.382139 2.772364 19.302406
v -15.502633 2.898672 19.361156
v -15.631398 3.092454 19.336714
v -15.587479 3.219758 19.261560
v -15.368402 2.747096 19.238768
v -15.651047 3.100038 19.257668
v -15.616535 3.175135 19.157217
v -15.608546 2.964397 19.333311
v -15.449074 2.796601 19.323744
v -15.380342 2.674256 19.180172
v -15.439519 2.499694 19.077356
v -15.542167 2.213061 18.996656
v -15.404702 2.801625 19.052605
v -15.501557 2.662164 18.915630
v -15.511247 2.349051 18.855171
v -15.520369 2.946735 18.994562
v -15.660254 2.784022 18.935099
v -15.594492 2.527419 18.771078
v -15.645747 3.032764 19.052513
v -15.755385 2.648753 18.806412
v -15.718353 1.907403 18.627525
v -15.543124 2.077141 18.546799
v -15.595359 2.120025 18.756134
v -15.674434 2.512867 18.610880
v -15.548119 2.325828 18.638119
v -15.323587 2.786359 19.175007
v -15.381907 2.932343 19.060328
v -15.511486 3.127164 19.027872
v -15.536441 3.233563 19.135880
v -15.550942 3.122256 19.058779
v -15.450597 2.997959 19.022820
v -15.345930 2.816937 19.133514
v -15.703732 2.246715 19.106752
v -15.481820 2.707352 19.283802
v -15.860945 2.405948 19.111010
v -15.637630 2.851002 19.309013
v -15.887375 2.575731 18.979305
v -15.700642 2.976548 19.187466
v -15.969342 2.002168 18.646698
v -16.060818 2.264465 18.588406
v -16.052048 2.472312 18.603231
v -15.421951 2.812390 19.349308
v -15.598559 3.012844 19.353113
v -15.611808 3.174637 19.320547
v -15.818783 2.665738 18.850861
v -15.680320 3.046474 19.089781
v -15.577820 2.191046 19.047932
v -15.395712 2.654313 19.222071
v -15.521354 2.266611 18.931679
v -15.383129 2.723839 19.125317
v -15.529680 2.442086 18.793011
v -15.450294 2.883754 18.996645
v -15.678715 2.598494 18.779001
v -15.592403 2.995539 19.022503
v -15.893466 2.575860 18.512341
v -15.809430 1.891221 18.646324
v -15.627070 1.969948 18.594397
v -15.562545 3.245433 19.200478
v -15.355990 2.767408 19.238544
v -15.321689 2.838591 19.113424
v -15.473370 3.050140 19.022285
v -15.512197 3.202932 19.068268
vn 0.2439 -0.4293 0.8696
vn 0.0528 -0.6496 0.7584
vn 0.4849 -0.7104 0.5101
vn 0.6556 -0.4810 0.5820
vn 0.7765 -0.3781 0.5040
vn 0.4117 -0.3750 0.8306
vn 0.0838 -0.3448 0.9349
vn -0.0049 -0.3530 0.9356
vn -0.2234 -0.5228 0.8227
vn -0.1633 -0.3107 0.9364
vn -0.4171 -0.4089 0.8117
vn -0.0868 -0.2656 0.9602
vn -0.4560 -0.0792 0.8864
vn -0.4558 -0.1202 0.8819
vn -0.6939 -0.1562 0.7029
vn -0.8134 0.1470 0.5628
vn -0.8791 0.1848 0.4393
vn -0.8168 0.1198 0.5643
vn -0.9191 0.2542 0.3010
vn -0.9112 0.2794 0.3028
vn -0.9021 0.3789 0.2065
vn -0.9171 0.3981 0.0224
vn -0.8333 0.5504 -0.0518
vn -0.9187 0.3944 0.0206
vn -0.7520 0.5181 -0.4075
vn -0.7230 0.5400 -0.4308
vn -0.4963 0.7712 -0.3987
vn -0.2218 -0.7629 0.6073
vn 0.2332 -0.8427 0.4853
vn -0.5288 -0.6014 0.5989
vn -0.6665 -0.4652 0.5826
vn -0.3682 -0.6382 0.6761
vn 0.0050 -0.7693 0.6389
vn -0.9119 0.2044 0.3558
vn -0.8858 -0.1707 0.4315
vn -0.7929 0.5708 0.2135
vn -0.8188 0.5120 0.2598
vn -0.9334 0.1443 0.3286
vn -0.8956 -0.1705 0.4108
vn -0.6008 0.7991 0.0228
vn -0.2582 0.9460 -0.1961
vn -0.3196 0.9468 0.0370
vn -0.4823 0.8657 0.1336
vn -0.7452 -0.4143 0.5225
vn -0.8384 -0.2583 0.4800
vn -0.7637 -0.2031 0.6128
vn -0.5977 -0.3941 0.6982
vn -0.8178 -0.0682 0.5715
vn -0.3183 -0.5394 0.7796
vn -0.1616 -0.5872 0.7932
vn -0.9560 0.2257 0.1876
vn -0.8739 0.4856 0.0214
vn -0.7324 0.6128 -0.2968
vn -0.9325 0.2854 0.2215
vn -0.9121 0.3744 0.1671
vn -0.8325 0.5531 0.0298
vn -0.7144 0.6614 -0.2282
vn -0.8694 0.0418 0.4924
vn -0.5622 -0.1549 0.8123
vn -0.6756 -0.1978 0.7102
vn -0.9239 0.0986 0.3696
vn -0.2794 -0.3104 0.9086
vn -0.0938 -0.5104 0.8548
vn -0.2185 -0.6208 0.7529
vn -0.3806 -0.3866 0.8401
vn 0.3977 -0.5925 0.7006
vn 0.7777 -0.4942 0.3886
vn 0.7297 -0.6250 0.2774
vn 0.2272 -0.7675 0.5994
vn 0.9177 -0.3745 0.1328
vn 0.8117 -0.5626 0.1571
vn 0.9293 -0.3662 -0.0478
vn 0.9606 -0.2453 -0.1305
vn 0.9262 -0.2215 -0.3051
vn 0.9466 -0.3203 0.0362
vn 0.9340 -0.0756 -0.3492
vn 0.9693 -0.1515 -0.1936
vn 0.8876 0.2011 -0.4144
vn 0.6892 0.2044 -0.6952
vn 0.5641 0.1582 -0.8104
vn 0.8360 -0.0526 -0.5461
vn 0.2755 0.4236 -0.8629
vn 0.6227 0.5331 -0.5728
vn 0.3872 0.7078 -0.5909
vn 0.0259 0.5252 -0.8506
vn -0.2028 0.3836 -0.9010
vn 0.0764 0.3007 -0.9507
vn -0.2734 0.5776 -0.7692
vn 0.0658 0.8163 -0.5739
vn -0.4321 0.4805 -0.7632
vn 0.6484 -0.7090 0.2773
vn 0.5328 -0.7443 0.4026
vn 0.7907 -0.5239 0.3166
vn 0.8672 -0.4735 0.1540
vn 0.7691 0.5255 -0.3638
vn 0.9557 0.1584 -0.2479
vn 0.5712 0.7280 -0.3793
vn 0.3040 0.8721 -0.3834
vn 0.9651 -0.2611 0.0204
vn 0.8780 -0.3761 0.2961
vn -0.5597 0.5532 -0.6170
vn -0.6012 0.6146 -0.5107
vn -0.5986 0.4447 -0.6663
vn -0.4692 0.3621 -0.8054
vn -0.1731 0.1566 -0.9724
vn -0.5727 0.1839 -0.7989
vn -0.0597 -0.0156 -0.9981
vn 0.4056 0.0988 -0.9087
vn 0.5169 -0.2149 -0.8286
vn 0.3936 -0.1351 -0.9093
vn 0.1008 -0.5816 -0.8072
vn 0.5317 -0.5078 -0.6778
vn 0.8504 -0.5215 -0.0696
vn 0.3460 -0.7779 -0.5246
vt 0.285700 0.471612
vt 0.368439 0.472300
vt 0.371380 0.490616
vt 0.289949 0.488295
vt 0.222941 0.480436
vt 0.215898 0.465496
vt 0.207152 0.444981
vt 0.280025 0.450348
vt 0.364497 0.450262
vt 0.271496 0.419921
vt 0.358555 0.420780
vt 0.194998 0.413316
vt 0.181379 0.376132
vt 0.262272 0.383900
vt 0.352188 0.386556
vt 0.254514 0.345848
vt 0.346971 0.350293
vt 0.168236 0.339061
vt 0.155484 0.304671
vt 0.247695 0.309329
vt 0.343025 0.314334
vt 0.241286 0.277903
vt 0.340471 0.281025
vt 0.143038 0.275528
vt 0.136894 0.249011
vt 0.238187 0.249025
vt 0.339544 0.249040
vt 0.437665 0.459539
vt 0.441524 0.478446
vt 0.433013 0.437732
vt 0.484605 0.425322
vt 0.491107 0.445734
vt 0.496760 0.463294
vt 0.415011 0.344502
vt 0.420321 0.378468
vt 0.411331 0.310620
vt 0.457754 0.305685
vt 0.462013 0.337299
vt 0.468280 0.369242
vt 0.409764 0.279215
vt 0.409511 0.249049
vt 0.455144 0.249055
vt 0.455653 0.276710
vt 0.426777 0.410126
vt 0.476403 0.399203
vt 0.507674 0.399256
vt 0.518302 0.425598
vt 0.497671 0.368487
vt 0.526494 0.443294
vt 0.533467 0.456668
vt 0.491356 0.337510
vt 0.487438 0.307028
vt 0.076555 0.279575
vt 0.067117 0.249000
vt 0.096539 0.309425
vt 0.054227 0.318887
vt 0.025953 0.286833
vt 0.013098 0.248992
vt 0.118731 0.337825
vt 0.140311 0.368888
vt 0.119156 0.361906
vt 0.087612 0.339365
vt 0.158462 0.406729
vt 0.173435 0.441155
vt 0.159294 0.438098
vt 0.141906 0.400150
vt 0.185481 0.461975
vt 0.196065 0.475993
vt 0.189256 0.473257
vt 0.174757 0.459751
vt 0.285764 0.026457
vt 0.290017 0.009776
vt 0.371447 0.007479
vt 0.368500 0.025793
vt 0.364552 0.047829
vt 0.280082 0.047719
vt 0.207210 0.053064
vt 0.215962 0.032552
vt 0.223008 0.017614
vt 0.271544 0.078142
vt 0.358602 0.077308
vt 0.352225 0.111529
vt 0.262311 0.114160
vt 0.181416 0.121904
vt 0.195047 0.084725
vt 0.254542 0.152208
vt 0.346999 0.147790
vt 0.343043 0.183747
vt 0.247712 0.188725
vt 0.155500 0.193357
vt 0.168262 0.158970
vt 0.241294 0.220148
vt 0.340479 0.217055
vt 0.143046 0.222495
vt 0.437719 0.038574
vt 0.441584 0.019668
vt 0.496812 0.034835
vt 0.491155 0.052393
vt 0.484647 0.072802
vt 0.433062 0.060379
vt 0.415036 0.153600
vt 0.420355 0.119636
vt 0.411347 0.187479
vt 0.409772 0.218883
vt 0.426819 0.087981
vt 0.476439 0.098917
vt 0.076564 0.218429
vt 0.025965 0.211155
vt 0.054248 0.179110
vt 0.096557 0.188584
vt 0.118757 0.160191
vt 0.087640 0.158642
vt 0.119190 0.136111
vt 0.140347 0.129135
vt 0.158509 0.091301
vt 0.141951 0.097874
vt 0.159350 0.059932
vt 0.173492 0.056880
vt 0.185544 0.036063
vt 0.174819 0.038284
vt 0.189322 0.024783
vt 0.196132 0.022049
s 1
usemtl body.002
f 1/1/1 32/2/2 100/3/3 29/4/4
f 1/1/1 29/4/4 101/5/5 30/6/6
f 1/1/1 30/6/6 87/7/7 31/8/8
f 1/1/1 31/8/8 86/9/9 32/2/2
f 2/10/10 35/11/11 86/9/9 31/8/8
f 2/10/10 31/8/8 87/7/7 33/12/12
f 2/10/10 33/12/12 89/13/13 34/14/14
f 2/10/10 34/14/14 88/15/15 35/11/11
f 3/16/16 38/17/17 88/15/15 34/14/14
f 3/16/16 34/14/14 89/13/13 36/18/18
f 3/16/16 36/18/18 91/19/19 37/20/20
f 3/16/16 37/20/20 90/21/21 38/17/17
f 4/22/22 40/23/23 90/21/21 37/20/20
f 4/22/22 37/20/20 91/19/19 39/24/24
f 4/22/22 39/24/24 99/25/25 28/26/26
f 4/22/22 28/26/26 98/27/27 40/23/23
f 5/28/28 46/29/29 100/3/3 32/2/2
f 5/28/28 32/2/2 86/9/9 45/30/30
f 5/28/28 45/30/30 92/31/31 41/32/32
f 5/28/28 41/32/32 109/33/33 46/29/29
f 6/34/34 48/35/35 88/15/15 38/17/17
f 6/34/34 38/17/17 90/21/21 47/36/36
f 6/34/34 47/36/36 94/37/37 43/38/38
f 6/34/34 43/38/38 93/39/39 48/35/35
f 7/40/40 47/36/36 90/21/21 40/23/23
f 7/40/40 40/23/23 98/27/27 49/41/41
f 7/40/40 49/41/41 108/42/42 44/43/43
f 7/40/40 44/43/43 94/37/37 47/36/36
f 8/44/44 45/30/30 86/9/9 35/11/11
f 8/44/44 35/11/11 88/15/15 48/35/35
f 8/44/44 48/35/35 93/39/39 42/45/45
f 8/44/44 42/45/45 92/31/31 45/30/30
f 9/46/46 52/47/47 92/31/31 42/45/45
f 9/46/46 42/45/45 93/39/39 51/48/48
f 10/49/49 50/50/50 109/33/33 41/32/32
f 10/49/49 41/32/32 92/31/31 52/47/47
f 11/51/51 43/38/38 94/37/37 53/52/51
f 12/53/52 60/54/53 99/25/25 39/24/24
f 12/53/52 39/24/24 91/19/19 59/55/54
f 12/53/52 59/55/54 97/56/55 57/57/56
f 12/53/52 57/57/56 111/58/57 60/54/53
f 13/59/58 59/55/54 91/19/19 36/18/18
f 13/59/58 36/18/18 89/13/13 61/60/59
f 13/59/58 61/60/59 96/61/60 56/62/61
f 13/59/58 56/62/61 97/56/55 59/55/54
f 14/63/62 61/60/59 89/13/13 33/12/12
f 14/63/62 33/12/12 87/7/7 62/64/63
f 14/63/62 62/64/63 95/65/64 55/66/65
f 14/63/62 55/66/65 96/61/60 61/60/59
f 15/67/66 62/64/63 87/7/7 30/6/6
f 15/67/66 30/6/6 101/5/5 58/68/67
f 15/67/66 58/68/67 112/69/68 54/70/69
f 15/67/66 54/70/69 95/65/64 62/64/63
f 16/71/70 29/72/4 100/73/3 65/74/71
f 16/71/70 65/74/71 102/75/72 64/76/73
f 16/71/70 64/76/73 103/77/74 63/78/75
f 16/71/70 63/78/75 101/79/5 29/72/4
f 17/80/76 64/76/73 102/75/72 68/81/77
f 17/80/76 68/81/77 104/82/78 67/83/79
f 17/80/76 67/83/79 105/84/80 66/85/81
f 17/80/76 66/85/81 103/77/74 64/76/73
f 18/86/82 67/83/79 104/82/78 71/87/83
f 18/86/82 71/87/83 106/88/84 70/89/85
f 18/86/82 70/89/85 107/90/86 69/91/87
f 18/86/82 69/91/87 105/84/80 67/83/79
f 19/92/88 70/89/85 106/88/84 73/93/89
f 19/92/88 73/93/89 98/27/27 28/26/26
f 19/92/88 28/26/26 99/25/25 72/94/90
f 19/92/88 72/94/90 107/90/86 70/89/85
f 20/95/91 65/74/71 100/73/3 46/96/29
f 20/95/91 46/96/29 109/97/33 74/98/92
f 20/95/91 74/98/92 110/99/93 76/100/94
f 20/95/91 76/100/94 102/75/72 65/74/71
f 21/101/95 71/87/83 104/82/78 78/102/96
f 21/101/95 77/103/97 106/88/84 71/87/83
f 22/104/98 73/93/89 106/88/84 77/103/97
f 22/104/98 49/41/41 98/27/27 73/93/89
f 23/105/99 68/81/77 102/75/72 76/100/94
f 23/105/99 76/100/94 110/99/93 75/106/100
f 23/105/99 78/102/96 104/82/78 68/81/77
f 24/107/101 72/94/90 99/25/25 60/54/53
f 24/107/101 60/54/53 111/58/57 82/108/102
f 24/107/101 82/108/102 115/109/103 83/110/104
f 24/107/101 83/110/104 107/90/86 72/94/90
f 25/111/105 69/91/87 107/90/86 83/110/104
f 25/111/105 83/110/104 115/109/103 81/112/106
f 25/111/105 81/112/106 114/113/107 84/114/108
f 25/111/105 84/114/108 105/84/80 69/91/87
f 26/115/109 66/85/81 105/84/80 84/114/108
f 26/115/109 84/114/108 114/113/107 80/116/110
f 26/115/109 80/116/110 113/117/111 85/118/112
f 26/115/109 85/118/112 103/77/74 66/85/81
f 27/119/113 63/78/75 103/77/74 85/118/112
f 27/119/113 85/118/112 113/117/111 79/120/114
f 27/119/113 79/120/114 112/121/68 58/122/67
f 27/119/113 58/122/67 101/79/5 63/78/75
