# Blender 5.0.0
# www.blender.org
mtllib PataDerPo.mtl
g PatDerPo_Mesh
v 0.406783 -0.733295 0.452867
v 0.630138 -0.737449 0.415996
v 0.368490 -0.737051 0.403477
v 0.378311 -0.721560 0.451307
v 0.328815 -0.725564 0.402344
v 0.454873 -0.720846 0.472477
v 0.546119 -0.720990 0.476416
v 0.612853 -0.724018 0.460177
v 0.544849 -0.727156 0.472499
v 0.461168 -0.726321 0.473194
v 0.577168 -0.734768 0.460691
v 0.682497 -0.726219 0.416200
v 0.728456 -0.726565 0.326231
v 0.667667 -0.737674 0.319560
v 0.331029 -0.737682 0.300434
v 0.275331 -0.726612 0.301090
v 0.546253 -0.698819 0.476378
v 0.612989 -0.698749 0.460171
v 0.682546 -0.698713 0.416219
v 0.728743 -0.698579 0.326159
v 0.741398 -0.726648 0.196755
v 0.676676 -0.737712 0.195648
v 0.330092 -0.737693 0.196324
v 0.265474 -0.726080 0.192192
v 0.362048 -0.737704 0.055510
v 0.298083 -0.725968 0.056117
v 0.412764 -0.737706 -0.024539
v 0.364866 -0.726658 -0.024471
v 0.721263 -0.726718 0.077774
v 0.658935 -0.737750 0.071558
v 0.602328 -0.687411 0.460485
v 0.667622 -0.687375 0.416376
v 0.743001 -0.698838 0.196266
v 0.723621 -0.698972 0.076945
v 0.665024 -0.698981 -0.018547
v 0.663569 -0.726724 -0.018018
v 0.616696 -0.737750 -0.021069
v 0.439804 -0.734670 -0.054011
v 0.712376 -0.687324 0.324234
v 0.731919 -0.691770 0.194507
v 0.723192 -0.690853 0.167595
v 0.708100 -0.692121 0.079724
v 0.668106 -0.687730 -0.003143
v 0.571256 -0.698961 -0.068046
v 0.571250 -0.724219 -0.067973
v 0.563397 -0.733085 -0.059293
v 0.509499 -0.721549 -0.079456
v 0.439783 -0.724937 -0.067385
v 0.509504 -0.698943 -0.079456
v 0.568022 -0.688205 -0.067808
v 0.589497 -0.687572 -0.037143
v 0.548649 -0.687487 -0.054810
v 0.519922 -0.687096 -0.046106
v 0.509506 -0.688176 -0.079456
v 0.468718 -0.687135 -0.048898
v 0.443040 -0.688165 -0.065996
v 0.375743 -0.688163 -0.023034
v 0.439789 -0.698928 -0.067364
v 0.362705 -0.698913 -0.023680
v 0.301305 -0.688528 0.080708
v 0.295486 -0.698224 0.057031
v 0.263653 -0.698324 0.192888
v 0.274915 -0.698822 0.301064
v 0.328779 -0.698775 0.402221
v 0.378266 -0.698762 0.451216
v 0.454818 -0.698743 0.472412
v 0.275493 -0.689419 0.192782
v 0.271667 -0.695452 0.214084
v 0.289247 -0.687887 0.300555
v 0.339310 -0.687596 0.402109
v 0.386248 -0.687488 0.451360
v 0.459324 -0.687209 0.472667
v 0.540698 -0.687551 0.476395
v 0.636870 -0.687026 0.426633
v 0.537511 -0.609560 -0.029321
v 0.519884 -0.664923 -0.054258
v 0.547305 -0.667396 -0.063856
v 0.555089 -0.606564 -0.033689
v 0.471125 -0.662032 -0.054954
v 0.449479 -0.602776 -0.019240
v 0.373414 -0.665184 -0.026967
v 0.506000 -0.602904 -0.027016
v 0.521133 -0.603934 -0.029537
v 0.529047 -0.562602 0.009345
v 0.557776 -0.570907 0.012022
v 0.573281 -0.567353 0.011988
v 0.637204 -0.617063 -0.018254
v 0.609581 -0.668575 -0.049116
v 0.669895 -0.681942 -0.005457
v 0.416875 -0.568744 0.027477
v 0.491433 -0.565477 0.013999
v 0.291439 -0.658767 0.090873
v 0.343393 -0.617592 0.013596
v 0.332376 -0.587442 0.062227
v 0.389258 -0.559303 0.065762
v 0.474560 -0.548721 0.039444
v 0.539752 -0.549796 0.036687
v 0.570315 -0.553605 0.036049
v 0.644690 -0.583448 0.026243
v 0.683016 -0.643685 0.019786
v 0.708100 -0.692121 0.079724
v 0.668106 -0.687730 -0.003143
v 0.324120 -0.576736 0.094447
v 0.643615 -0.572426 0.057950
v 0.562414 -0.544304 0.036799
v 0.458427 -0.543206 0.044585
v 0.386066 -0.553471 0.063317
v 0.321722 -0.576301 0.097942
v 0.295641 -0.625414 0.149190
v 0.289908 -0.634393 0.114196
v 0.276198 -0.676702 0.188246
v 0.284911 -0.655922 0.174644
v 0.457529 -0.532462 0.062954
v 0.303549 -0.567986 0.133584
v 0.363453 -0.545131 0.088723
v 0.355624 -0.541485 0.104935
v 0.454627 -0.528264 0.076765
v 0.351097 -0.537702 0.103506
v 0.294103 -0.553159 0.152477
v 0.301743 -0.558957 0.147006
v 0.264677 -0.500759 0.139747
v 0.333797 -0.492752 0.081910
v 0.454646 -0.522237 0.071339
v 0.558313 -0.524109 0.074757
v 0.561027 -0.529968 0.059907
v 0.646492 -0.566524 0.060623
v 0.702941 -0.600361 0.103578
v 0.689045 -0.612207 0.101738
v 0.708308 -0.648875 0.136150
v 0.713532 -0.657001 0.110656
v 0.690201 -0.618185 0.061184
v 0.235266 -0.411113 0.092845
v 0.453900 -0.478530 0.041985
v 0.560869 -0.516295 0.072252
v 0.648459 -0.537376 0.104906
v 0.649645 -0.545879 0.091604
v 0.704626 -0.578309 0.146783
v 0.728104 -0.644303 0.155953
v 0.721293 -0.678985 0.163439
v 0.712404 -0.673245 0.091524
v 0.728382 -0.624055 0.216425
v 0.732503 -0.682573 0.187104
v 0.652181 -0.524377 0.116252
v 0.709642 -0.568011 0.167818
v 0.730916 -0.605425 0.242017
v 0.725845 -0.673602 0.291519
v 0.731919 -0.691770 0.194507
v 0.723192 -0.690853 0.167595
v 0.712376 -0.687324 0.324234
v 0.636870 -0.687026 0.426633
v 0.711970 -0.655508 0.345449
v 0.712693 -0.540604 0.201165
v 0.730936 -0.558171 0.282688
v 0.707381 -0.585704 0.400636
v 0.631705 -0.606910 0.497999
v 0.540698 -0.687551 0.476395
v 0.547143 -0.612916 0.524138
v 0.459324 -0.687209 0.472667
v 0.440898 -0.617590 0.532938
v 0.386248 -0.687488 0.451360
v 0.352824 -0.617565 0.500880
v 0.317776 -0.678433 0.395697
v 0.339310 -0.687596 0.402109
v 0.556931 -0.505348 0.576120
v 0.422808 -0.513831 0.587923
v 0.570270 -0.469570 0.044024
v 0.668376 -0.470659 0.099057
v 0.735762 -0.475525 0.193640
v 0.756809 -0.480534 0.298254
v 0.736312 -0.490075 0.421199
v 0.660892 -0.494915 0.544110
v 0.563489 -0.383329 0.610575
v 0.399830 -0.389001 0.625911
v 0.401096 -0.371240 0.610133
v 0.562361 -0.363754 0.615125
v 0.687008 -0.350155 0.546915
v 0.692096 -0.374712 0.568451
v 0.773731 -0.377008 0.429226
v 0.458066 -0.395238 -0.009317
v 0.581980 -0.382742 -0.001660
v 0.792037 -0.378306 0.302235
v 0.769185 -0.376520 0.163775
v 0.688843 -0.377523 0.058539
v 0.571307 -0.363756 0.002440
v 0.450787 -0.383446 -0.006529
v 0.686366 -0.355394 0.055556
v 0.761889 -0.355715 0.168497
v 0.788630 -0.365347 0.301619
v 0.766000 -0.361746 0.424352
v 0.813010 -0.284534 0.303089
v 0.785018 -0.283421 0.437638
v 0.782970 -0.294124 0.160303
v 0.699285 -0.312310 0.042289
v 0.577971 -0.329291 -0.013321
v 0.450450 -0.340503 -0.031150
v 0.301154 -0.346046 0.010760
v 0.312274 -0.392816 0.037717
v 0.322616 -0.406052 0.030128
v 0.837901 -0.181419 0.304855
v 0.809477 -0.197694 0.149339
v 0.719722 -0.225283 0.018678
v 0.590025 -0.248157 -0.047795
v 0.450097 -0.261244 -0.075655
v 0.290830 -0.264294 -0.039025
v 0.178755 -0.264101 0.035021
v 0.202218 -0.347986 0.082820
v 0.219447 -0.397907 0.108779
v 0.108579 -0.266428 0.140036
v 0.280143 -0.619383 0.144391
v 0.273061 -0.645544 0.170180
v 0.274354 -0.600106 0.193396
v 0.266974 -0.583178 0.206485
v 0.256817 -0.571625 0.220213
v 0.214533 -0.507604 0.219124
v 0.167087 -0.415975 0.182772
v 0.162722 -0.408485 0.198393
v 0.139414 -0.350588 0.179768
v 0.282848 -0.667384 0.290468
v 0.267065 -0.678973 0.201648
v 0.274000 -0.628945 0.242790
v 0.258285 -0.613896 0.275036
v 0.242829 -0.588810 0.300599
v 0.188118 -0.509002 0.307680
v 0.138458 -0.417240 0.296452
v 0.143302 -0.408315 0.295978
v 0.116130 -0.348791 0.280136
v 0.081541 -0.264373 0.250829
v 0.283761 -0.652565 0.347165
v 0.289247 -0.687887 0.300555
v 0.317776 -0.678433 0.395697
v 0.339310 -0.687596 0.402109
v 0.271667 -0.695452 0.214084
v 0.275493 -0.689419 0.192782
v 0.589497 -0.687572 -0.037143
v 0.548649 -0.687487 -0.054810
v 0.519922 -0.687096 -0.046106
v 0.468718 -0.687135 -0.048898
v 0.375743 -0.688163 -0.023034
v 0.301305 -0.688528 0.080708
v 0.268907 -0.374517 0.572653
v 0.269942 -0.391812 0.585478
v 0.210932 -0.388153 0.519983
v 0.159856 -0.405485 0.419094
v 0.130710 -0.332443 0.421756
v 0.189945 -0.319491 0.528073
v 0.255738 -0.314831 0.576010
v 0.394546 -0.305921 0.621480
v 0.308652 -0.516408 0.551746
v 0.306682 -0.614890 0.461018
v 0.251248 -0.516567 0.502764
v 0.203783 -0.401697 0.525330
v 0.158435 -0.412037 0.420381
v 0.138458 -0.417240 0.296452
v 0.143302 -0.408315 0.295978
v 0.116130 -0.348791 0.280136
v 0.188118 -0.509002 0.307680
v 0.206875 -0.515252 0.412228
v 0.263872 -0.604737 0.388561
v 0.242829 -0.588810 0.300599
v 0.081541 -0.264373 0.250829
v 0.099720 -0.244749 0.411374
v 0.166242 -0.231629 0.525428
v 0.237985 -0.223830 0.577374
v 0.385656 -0.207518 0.630551
v 0.560041 -0.191041 0.646289
v 0.561711 -0.294995 0.630848
v 0.703045 -0.180416 0.580717
v 0.693664 -0.287579 0.562479
v 0.804763 -0.176651 0.451190
v 0.283761 -0.652565 0.347165
v 0.258285 -0.613896 0.275036
vn 0.8870 -0.2452 0.3914
vn 0.6765 0.1668 0.7173
vn 0.9268 0.1339 0.3509
vn 0.6402 -0.2148 0.7376
vn 0.2287 -0.2129 0.9499
vn 0.2085 -0.1836 0.9606
vn -0.1694 -0.1479 0.9744
vn -0.1278 0.2643 0.9559
vn -0.5039 0.1628 0.8483
vn -0.1116 0.1903 0.9754
vn -0.4909 0.0987 0.8656
vn -0.0847 -0.3955 0.9146
vn -0.4270 -0.4530 0.7826
vn -0.4103 -0.5923 0.6934
vn -0.6324 -0.5926 0.4989
vn -0.6092 -0.7103 0.3528
vn -0.8021 -0.5434 0.2476
vn -0.8501 -0.4880 0.1978
vn -0.8560 -0.5136 -0.0595
vn -0.9002 -0.4107 -0.1444
vn 0.9646 -0.2635 0.0123
vn 0.9727 -0.2288 0.0389
vn 0.8853 -0.2065 0.4168
vn 0.6270 -0.1715 0.7599
vn 0.1940 -0.1326 0.9720
vn -0.1955 -0.1008 0.9755
vn -0.4489 -0.1284 0.8843
vn -0.4624 -0.1052 0.8804
vn -0.7185 -0.2207 0.6596
vn -0.7291 -0.1823 0.6597
vn -0.8917 -0.3138 0.3261
vn -0.9041 -0.2857 0.3176
vn -0.9176 -0.3969 -0.0208
vn -0.9703 -0.2417 0.0043
vn -0.6868 -0.4878 0.5388
vn -0.8175 0.0731 0.5713
vn -0.9518 -0.0907 0.2932
vn -0.8291 -0.4957 0.2584
vn -0.8576 -0.5117 -0.0528
vn -0.9984 -0.0169 -0.0537
vn -0.9990 0.0320 -0.0324
vn -0.9522 -0.0418 0.3027
vn -0.7937 0.1384 0.5923
vn -0.8624 -0.1219 -0.4914
vn -0.8057 -0.2716 -0.5263
vn -0.7617 -0.2304 -0.6056
vn -0.9695 -0.1543 -0.1904
vn -0.9262 -0.0008 -0.3770
vn -0.9204 0.3093 -0.2393
vn -0.9316 0.0309 -0.3620
vn -0.8402 0.4010 -0.3650
vn -0.5326 0.0823 -0.8424
vn -0.5637 0.2858 -0.7750
vn -0.1167 0.1119 -0.9869
vn -0.0954 0.6474 -0.7561
vn -0.1110 0.5255 -0.8435
vn -0.1383 0.0468 -0.9893
vn 0.0390 0.6321 -0.7739
vn -0.0361 -0.0102 -0.9993
vn 0.2819 0.4120 -0.8665
vn 0.3555 -0.1677 -0.9195
vn 0.7570 0.0671 -0.6500
vn 0.7247 -0.1743 -0.6667
vn -0.9574 -0.2669 0.1098
vn -0.9337 0.2731 0.2315
vn -0.8649 0.4938 0.0898
vn -0.7737 -0.1534 0.6147
vn -0.6091 -0.7103 0.3527
vn -0.9771 -0.1911 -0.0936
vn -0.8191 -0.4573 -0.3463
vn -0.9562 -0.2778 -0.0926
vn -0.8009 -0.4668 -0.3751
vn -0.9176 -0.3969 -0.0209
vn -0.9162 -0.2571 -0.3075
vn -0.9990 0.0320 -0.0325
vn -0.8749 -0.0111 -0.4842
vn -0.9984 -0.0169 -0.0538
vn -0.7726 -0.5246 -0.3577
vn -0.8163 -0.4497 -0.3625
vn -0.8560 -0.5135 -0.0596
vn -0.9042 -0.1969 -0.3790
vn -0.9662 -0.0644 -0.2495
vn -0.7337 -0.2112 -0.6458
vn -0.6185 -0.5161 -0.5926
vn -0.5977 -0.5093 -0.6192
vn -0.7084 -0.3732 -0.5991
vn -0.6538 -0.1967 -0.7306
vn -0.6147 -0.5180 -0.5948
vn -0.6581 -0.4356 -0.6141
vn -0.7744 0.1617 -0.6117
vn -0.8103 0.3239 -0.4884
vn -0.7545 0.3572 -0.5506
vn -0.3901 -0.1628 -0.9063
vn -0.0814 -0.5363 -0.8401
vn -0.3707 -0.5209 -0.7689
vn -0.4683 -0.2343 -0.8519
vn -0.3620 -0.5249 -0.7704
vn -0.3341 -0.5124 -0.7911
vn -0.0261 -0.4952 -0.8684
vn 0.0040 -0.4760 -0.8794
vn 0.3025 -0.4308 -0.8502
vn 0.3413 -0.3960 -0.8525
vn 0.6328 -0.3688 -0.6809
vn 0.6732 -0.3281 -0.6627
vn 0.8819 -0.3122 -0.3532
vn 0.9047 -0.2744 -0.3258
vn 0.2416 -0.4996 -0.8319
vn 0.6749 -0.0175 -0.7377
vn 0.1808 -0.4365 -0.8813
vn -0.0678 -0.1710 -0.9829
vn -0.1211 -0.1923 -0.9738
vn 0.2556 -0.1039 -0.9612
vn 0.6297 -0.2323 -0.7413
vn 0.9220 -0.0040 -0.3873
vn 0.9998 -0.0093 -0.0151
vn 0.9367 0.0942 0.3372
vn 0.9993 -0.0347 -0.0113
vn 0.9111 -0.0000 -0.4123
vn 0.6507 -0.2015 -0.7321
vn 0.3119 -0.0537 -0.9486
vn 0.6039 -0.4131 -0.6816
vn 0.8494 -0.3632 -0.3829
vn 0.9466 -0.3215 -0.0243
vn 0.8836 -0.3355 0.3268
vn 0.5985 0.1862 0.7792
vn 0.5786 -0.3648 0.7295
vn 0.2283 -0.1918 0.9545
vn 0.2042 -0.3590 0.9107
vn 0.5358 -0.4722 0.7000
vn 0.8739 -0.3057 0.3780
vn 0.9849 -0.1725 -0.0147
vn 0.9277 -0.0631 -0.3679
vn -0.0896 -0.5629 0.8216
vn 0.1767 -0.5042 0.8453
vn -0.4558 -0.2347 0.8586
vn -0.7737 -0.1533 0.6147
vn -0.1119 -0.3320 0.9366
vn 0.1148 -0.2605 0.9586
vn 0.5948 0.5483 0.5879
vn 0.8968 -0.2232 0.3820
vn 0.9979 0.0306 -0.0578
vn 0.8976 0.2721 -0.3467
vn 0.9639 -0.2030 0.1724
vn 0.8699 0.3638 0.3330
vn 0.8861 0.4597 -0.0585
vn 0.8362 0.2443 -0.4909
vn 0.9722 0.0421 -0.2303
vn 0.7917 0.5606 -0.2427
vn 0.9387 -0.0532 -0.3406
vn 0.8414 0.4808 -0.2469
vn 0.9798 -0.1040 -0.1709
vn 0.9916 0.1017 -0.0802
vn 0.8558 0.4118 -0.3131
vn 0.5461 0.6941 -0.4690
vn 0.5583 0.6042 -0.5686
vn 0.9324 -0.0136 -0.3612
vn 0.5247 0.7333 -0.4324
vn 0.5714 0.5259 -0.6300
vn 0.8364 0.4936 -0.2383
vn 0.9521 0.2921 -0.0900
vn 0.9300 0.0661 -0.3615
vn 0.7749 0.1036 -0.6236
vn 0.5384 0.4493 -0.7129
vn 0.1409 0.8832 -0.4474
vn 0.1577 0.4058 -0.9002
vn -0.0734 -0.6011 -0.7958
vn 0.8278 0.0644 -0.5573
vn 0.1279 0.5522 -0.8238
vn -0.1316 0.8990 -0.4176
vn -0.1906 0.2381 -0.9524
vn -0.3342 -0.5630 -0.7559
vn -0.4698 0.6971 -0.5417
vn -0.5179 0.1338 -0.8449
vn -0.2216 0.5270 -0.8205
vn -0.3546 0.2329 -0.9055
vn -0.9129 0.3786 -0.1525
vn -0.6482 0.6211 -0.4406
vn -0.7319 0.5126 -0.4489
vn -0.3604 0.2383 -0.9018
vn -0.1452 0.6772 -0.7213
vn 0.0226 0.6072 -0.7942
vn 0.2193 0.6226 -0.7512
vn -0.6301 0.4322 -0.6452
vn 0.4862 0.4768 -0.7323
vn 0.0662 0.8186 -0.5706
vn 0.0152 0.7901 -0.6128
vn 0.0801 0.7843 -0.6152
vn -0.1554 0.7458 -0.6478
vn -0.2565 0.7988 -0.5442
vn -0.1974 0.6177 -0.7612
vn 0.0338 0.5470 -0.8365
vn -0.0893 0.5903 -0.8022
vn -0.0425 0.6151 -0.7873
vn -0.0432 0.5734 -0.8182
vn 0.3203 0.8766 0.3591
vn 0.7069 0.3721 0.6016
vn 0.5947 0.5484 0.5879
vn 0.2123 0.7614 0.6126
vn 0.1148 -0.2604 0.9587
vn 0.1211 0.0382 0.9919
vn -0.1119 -0.3318 0.9367
vn -0.1692 0.0260 0.9852
vn -0.5261 0.1810 0.8309
vn -0.4558 -0.2348 0.8585
vn -0.7752 0.3216 0.5438
vn -0.9337 0.2731 0.2316
vn -0.8756 0.4112 0.2534
vn -0.8650 0.4937 0.0898
vn -0.9131 0.4056 -0.0419
vn -0.9204 0.3092 -0.2393
vn -0.8402 0.4011 -0.3649
vn -0.7892 0.4504 -0.4174
vn -0.1981 -0.0934 0.9757
vn -0.4842 -0.4333 0.7601
vn -0.6693 -0.5642 0.4836
vn -0.7649 -0.6044 0.2228
vn -0.7719 -0.6334 -0.0553
vn -0.7055 -0.6173 -0.3480
vn -0.5390 -0.5707 -0.6195
vn -0.6361 0.3443 -0.6905
vn -0.2830 -0.4310 -0.8568
vn -0.3623 0.1188 -0.9245
vn 0.0086 0.0022 -1.0000
vn 0.0093 0.6564 -0.7544
vn 0.2428 0.6979 -0.6738
vn -0.2389 0.7347 -0.6350
vn -0.0954 0.6474 -0.7562
vn 0.0389 0.6321 -0.7739
vn 0.2817 0.4120 -0.8665
vn 0.3625 0.0800 -0.9285
vn 0.0007 -0.4649 -0.8854
vn -0.1220 -0.9166 -0.3807
vn -0.1130 -0.9827 -0.1469
vn 0.3083 -0.4223 -0.8524
vn 0.1090 -0.8996 -0.4230
vn 0.1422 -0.9628 -0.2297
vn 0.5776 -0.5762 -0.5783
vn 0.6211 0.3219 -0.7146
vn 0.8337 0.4708 -0.2885
vn 0.7918 0.5605 -0.2428
vn 0.8958 0.4433 -0.0305
vn 0.8629 0.4394 0.2498
vn -0.1002 -0.9938 -0.0482
vn 0.1032 -0.9938 -0.0420
vn 0.7238 -0.6375 -0.2642
vn 0.7676 -0.6406 -0.0207
vn 0.4193 0.1964 0.8863
vn -0.0962 -0.9953 -0.0086
vn 0.0910 -0.9958 -0.0041
vn -0.1133 -0.9929 0.0355
vn 0.0950 -0.9952 0.0252
vn 0.7633 -0.6073 0.2205
vn 0.6188 -0.5639 0.5470
vn 0.3673 -0.4459 0.8163
vn 0.0914 -0.2740 0.9574
vn 0.1059 -0.8668 0.4872
vn 0.0385 -0.6884 0.7244
vn -0.0640 -0.4879 0.8705
vn -0.1625 -0.9736 0.1603
vn 0.1141 -0.9836 0.1396
vn -0.1808 -0.8324 0.5239
vt 0.796748 0.044989
vt 0.826644 0.052422
vt 0.797525 0.057777
vt 0.826272 0.043650
vt 0.855663 0.054630
vt 0.855110 0.043755
vt 0.888506 0.042997
vt 0.889116 0.053247
vt 0.917483 0.051705
vt 0.888932 0.055149
vt 0.916145 0.054312
vt 0.885281 0.076819
vt 0.910728 0.076600
vt 0.904716 0.096696
vt 0.919706 0.097205
vt 0.923960 0.112397
vt 0.939469 0.098766
vt 0.941206 0.110281
vt 0.959746 0.102003
vt 0.960976 0.108922
vt 0.772000 0.045636
vt 0.783151 0.027635
vt 0.808931 0.027461
vt 0.835611 0.027280
vt 0.863943 0.027088
vt 0.893648 0.026886
vt 0.917910 0.042028
vt 0.921593 0.026697
vt 0.933394 0.041791
vt 0.935896 0.026600
vt 0.958070 0.043596
vt 0.959537 0.026440
vt 0.988617 0.045282
vt 0.988123 0.026246
vt 0.926543 0.077172
vt 0.933393 0.056233
vt 0.956640 0.060430
vt 0.947933 0.080193
vt 0.970417 0.085178
vt 0.983071 0.065965
vt 0.984367 0.060398
vt 0.957183 0.058130
vt 0.933304 0.053829
vt 0.624097 0.120320
vt 0.624355 0.117619
vt 0.632134 0.116538
vt 0.616359 0.122571
vt 0.619096 0.122929
vt 0.617117 0.124801
vt 0.639831 0.126621
vt 0.639967 0.132340
vt 0.668407 0.133687
vt 0.667349 0.137621
vt 0.689487 0.133571
vt 0.688302 0.138019
vt 0.698211 0.138638
vt 0.698549 0.134191
vt 0.703753 0.138928
vt 0.703071 0.135297
vt 0.713471 0.139498
vt 0.715369 0.134848
vt 0.731768 0.135409
vt 0.731042 0.134310
vt 0.597352 0.118285
vt 0.595060 0.121568
vt 0.612978 0.124894
vt 0.571923 0.128714
vt 0.572667 0.124966
vt 0.585120 0.116054
vt 0.602617 0.108948
vt 0.609522 0.112448
vt 0.595772 0.048012
vt 0.581843 0.028311
vt 0.601818 0.028865
vt 0.573806 0.048572
vt 0.595787 0.061987
vt 0.574226 0.064714
vt 0.600863 0.065167
vt 0.576123 0.070266
vt 0.605309 0.086079
vt 0.585265 0.089782
vt 0.613537 0.100159
vt 0.595912 0.105183
vt 0.618486 0.103703
vt 0.621939 0.108060
vt 0.631572 0.114015
vt 0.619244 0.047180
vt 0.624234 0.028713
vt 0.618359 0.059317
vt 0.624631 0.063481
vt 0.626241 0.083825
vt 0.631545 0.096346
vt 0.635026 0.099716
vt 0.638374 0.104004
vt 0.647075 0.108356
vt 0.646537 0.062531
vt 0.674914 0.080655
vt 0.646447 0.082226
vt 0.642724 0.058201
vt 0.643311 0.046774
vt 0.648396 0.028549
vt 0.673404 0.046458
vt 0.677244 0.028353
vt 0.696451 0.046393
vt 0.700811 0.028194
vt 0.719948 0.045981
vt 0.725503 0.028026
vt 0.745827 0.045917
vt 0.756806 0.027814
vt 0.701004 0.079867
vt 0.727694 0.092685
vt 0.702234 0.091480
vt 0.675102 0.061758
vt 0.672493 0.057375
vt 0.695942 0.055242
vt 0.720089 0.055613
vt 0.746290 0.057662
vt 0.773012 0.059856
vt 0.798189 0.059491
vt 0.773828 0.061771
vt 0.746817 0.061883
vt 0.721814 0.061063
vt 0.698904 0.060716
vt 0.726069 0.080653
vt 0.752003 0.080812
vt 0.775693 0.079980
vt 0.803037 0.078410
vt 0.829418 0.055436
vt 0.833895 0.075262
vt 0.855743 0.056123
vt 0.856702 0.076874
vt 0.835186 0.095156
vt 0.805417 0.094644
vt 0.775729 0.094045
vt 0.754113 0.093555
vt 0.882282 0.096597
vt 0.856694 0.096805
vt 0.902428 0.112241
vt 0.921531 0.116772
vt 0.879777 0.112447
vt 0.855926 0.111718
vt 0.825732 0.111061
vt 0.798463 0.107570
vt 0.770725 0.103602
vt 0.749769 0.100372
vt 0.788476 0.112035
vt 0.797531 0.113454
vt 0.770225 0.119552
vt 0.733121 0.126228
vt 0.750391 0.125531
vt 0.750442 0.129511
vt 0.763356 0.119353
vt 0.765464 0.120787
vt 0.768073 0.118554
vt 0.767589 0.107601
vt 0.747151 0.103735
vt 0.726998 0.100770
vt 0.727055 0.096687
vt 0.757994 0.114751
vt 0.723566 0.115519
vt 0.725523 0.109857
vt 0.737388 0.118832
vt 0.751632 0.121151
vt 0.754126 0.117488
vt 0.742330 0.110921
vt 0.724949 0.107860
vt 0.704131 0.099380
vt 0.703072 0.094915
vt 0.676043 0.091672
vt 0.742308 0.113805
vt 0.704717 0.105439
vt 0.679456 0.098704
vt 0.677303 0.094751
vt 0.649785 0.093503
vt 0.656206 0.100125
vt 0.651981 0.096414
vt 0.680932 0.103736
vt 0.663690 0.104445
vt 0.637639 0.120956
vt 0.653601 0.114923
vt 0.648003 0.110084
vt 0.664514 0.107015
vt 0.685056 0.106126
vt 0.700150 0.106988
vt 0.707460 0.107783
vt 0.660534 0.123627
vt 0.720394 0.124555
vt 0.707720 0.113124
vt 0.704518 0.113137
vt 0.698125 0.112326
vt 0.690046 0.111831
vt 0.673650 0.112615
vt 0.683690 0.121655
vt 0.697529 0.122433
vt 0.695169 0.121829
vt 0.703254 0.123510
vt 0.700339 0.123305
vt 0.391131 0.664853
vt 0.391414 0.667066
vt 0.401861 0.682070
vt 0.389070 0.660043
vt 0.378636 0.656045
vt 0.368428 0.649039
vt 0.367248 0.651913
vt 0.349948 0.651116
vt 0.349236 0.653322
vt 0.333815 0.657501
vt 0.334112 0.655303
vt 0.322535 0.665829
vt 0.321710 0.663585
vt 0.308636 0.682977
vt 0.310827 0.684628
vt 0.306220 0.701158
vt 0.307140 0.705548
vt 0.304870 0.706725
vt 0.309856 0.729956
vt 0.313564 0.731520
vt 0.349377 0.657291
vt 0.335221 0.660689
vt 0.325515 0.668642
vt 0.314709 0.686145
vt 0.311737 0.705393
vt 0.317351 0.729796
vt 0.329461 0.743740
vt 0.326757 0.746849
vt 0.342873 0.750890
vt 0.341733 0.754659
vt 0.355003 0.756604
vt 0.354928 0.757922
vt 0.366397 0.757283
vt 0.342060 0.756133
vt 0.327514 0.749717
vt 0.344367 0.760961
vt 0.356487 0.763700
vt 0.364494 0.760919
vt 0.372972 0.756699
vt 0.387578 0.747927
vt 0.366867 0.755535
vt 0.355126 0.753083
vt 0.342566 0.748427
vt 0.337804 0.743740
vt 0.365944 0.751550
vt 0.364883 0.749629
vt 0.374885 0.744283
vt 0.383131 0.744695
vt 0.385589 0.747847
vt 0.398172 0.730687
vt 0.400318 0.731803
vt 0.403634 0.708371
vt 0.404938 0.714834
vt 0.405676 0.708590
vt 0.400086 0.683895
vt 0.328736 0.729937
vt 0.383244 0.728967
vt 0.394406 0.728633
vt 0.399056 0.707885
vt 0.379089 0.657848
vt 0.323532 0.704968
vt 0.387271 0.707564
vt 0.324489 0.686857
vt 0.386157 0.685860
vt 0.396571 0.685045
vt 0.388879 0.669253
vt 0.377125 0.661004
vt 0.365994 0.656162
vt 0.370862 0.660697
vt 0.365486 0.657683
vt 0.350281 0.657932
vt 0.332406 0.669228
vt 0.380032 0.668750
vt 0.340131 0.661408
s 1
g ValveBiped.Bip01_R_Calf
g PatDerPo_PoMaterial
usemtl PoMaterial
f 191/1/1 176/2/2 189/3/3
f 268/4/4 176/2/2 191/1/1
f 268/4/4 175/5/5 176/2/2
f 268/4/4 266/6/6 175/5/5
f 247/7/7 175/5/5 266/6/6
f 247/7/7 174/8/8 175/5/5
f 247/7/7 240/9/9 174/8/8
f 240/9/9 173/10/10 174/8/8
f 240/9/9 241/11/11 173/10/10
f 165/12/12 173/10/10 241/11/11
f 165/12/12 241/11/11 248/13/13
f 248/13/13 161/14/14 165/12/12
f 248/13/13 249/15/15 161/14/14
f 249/15/15 162/16/16 161/14/14
f 258/17/17 162/16/16 249/15/15
g ValveBiped.Bip01_R_Foot
f 258/17/17 270/18/18 162/16/16
g ValveBiped.Bip01_R_Calf
f 259/19/19 270/18/18 258/17/17
g ValveBiped.Bip01_R_Foot
f 259/19/19 271/20/20 270/18/18
g ValveBiped.Bip01_R_Calf
f 190/21/21 199/22/22 191/1/1
f 191/1/1 199/22/22 269/23/23
f 191/1/1 269/23/23 268/4/4
f 268/4/4 269/23/23 267/24/24
f 268/4/4 267/24/24 266/6/6
f 265/25/25 266/6/6 267/24/24
f 247/7/7 266/6/6 265/25/25
f 265/25/25 264/26/26 247/7/7
f 247/7/7 264/26/26 246/27/27
f 263/28/28 246/27/27 264/26/26
f 245/29/29 246/27/27 263/28/28
f 245/29/29 263/28/28 262/30/30
f 245/29/29 262/30/30 244/31/31
f 244/31/31 262/30/30 261/32/32
f 261/32/32 255/33/33 244/31/31
f 261/32/32 260/34/34 255/33/33
f 250/35/35 251/36/36 252/37/37
f 250/35/35 252/37/37 257/38/38
f 257/38/38 249/15/15 250/35/35
f 257/38/38 258/17/17 249/15/15
f 256/39/39 258/17/17 257/38/38
f 256/39/39 259/19/19 258/17/17
f 257/38/38 252/37/37 256/39/39
f 256/39/39 252/37/37 253/40/40
f 244/31/31 255/33/33 254/41/41
f 244/31/31 254/41/41 243/42/42
f 254/41/41 253/40/40 243/42/42
f 243/42/42 253/40/40 252/37/37
f 243/42/42 252/37/37 242/43/43
f 242/43/43 252/37/37 251/36/36
f 242/43/43 251/36/36 241/11/11
f 250/35/35 241/11/11 251/36/36
f 248/13/13 241/11/11 250/35/35
f 250/35/35 249/15/15 248/13/13
f 247/7/7 246/27/27 240/9/9
f 245/29/29 240/9/9 246/27/27
f 245/29/29 242/43/43 240/9/9
f 244/31/31 242/43/43 245/29/29
f 244/31/31 243/42/42 242/43/43
f 242/43/43 241/11/11 240/9/9
g ValveBiped.Bip01_R_Foot
f 112/44/44 210/45/45 109/46/46
f 112/44/44 219/47/47 210/45/45
f 111/48/48 219/47/47 112/44/44
f 233/49/49 219/47/47 111/48/48
f 92/50/50 233/49/49 111/48/48
f 92/50/50 239/51/51 233/49/49
f 81/52/52 239/51/51 92/50/50
f 81/52/52 238/53/53 239/51/51
f 81/52/52 79/54/54 238/53/53
f 238/53/53 79/54/54 237/55/55
f 236/56/56 237/55/55 79/54/54
f 236/56/56 79/54/54 76/57/57
f 76/57/57 235/58/58 236/56/56
f 77/59/59 235/58/58 76/57/57
f 77/59/59 234/60/60 235/58/58
f 88/61/61 234/60/60 77/59/59
f 88/61/61 102/62/62 234/60/60
f 89/63/63 102/62/62 88/61/61
f 218/64/64 219/47/47 229/65/65
f 229/65/65 219/47/47 232/66/66
f 233/49/49 232/66/66 219/47/47
f 231/67/67 230/68/68 229/65/65
f 229/65/65 230/68/68 228/69/18
f 229/65/65 228/69/18 218/64/64
f 218/64/64 228/69/18 221/70/20
f 218/64/64 221/70/20 220/71/69
g ValveBiped.Bip01_R_Calf
f 217/72/70 227/73/71 208/74/72
f 226/75/73 227/73/71 217/72/70
f 217/72/70 216/76/74 226/75/73
f 226/75/73 216/76/74 225/77/75
f 216/76/74 215/78/76 225/77/75
f 225/77/75 215/78/76 224/79/77
f 215/78/76 214/80/78 224/79/77
f 224/79/77 214/80/78 223/81/39
f 214/80/78 213/82/79 223/81/39
f 223/81/39 213/82/79 222/83/80
f 212/84/81 222/83/80 213/82/79
g ValveBiped.Bip01_R_Foot
f 212/84/81 221/70/20 222/83/80
f 220/71/69 221/70/20 212/84/81
f 211/85/82 220/71/69 212/84/81
f 211/85/82 209/86/83 220/71/69
f 220/71/69 209/86/83 210/45/45
f 220/71/69 210/45/45 219/47/47
f 220/71/69 219/47/47 218/64/64
g ValveBiped.Bip01_R_Calf
f 206/87/84 208/74/72 205/88/85
f 217/72/70 208/74/72 206/87/84
f 206/87/84 207/89/86 217/72/70
f 217/72/70 207/89/86 216/76/74
f 207/89/86 132/90/87 216/76/74
f 216/76/74 132/90/87 215/78/76
f 132/90/87 121/91/88 215/78/76
f 215/78/76 121/91/88 214/80/78
f 121/91/88 119/92/89 214/80/78
f 214/80/78 119/92/89 213/82/79
f 120/93/90 213/82/79 119/92/89
g ValveBiped.Bip01_R_Foot
f 212/84/81 213/82/79 120/93/90
f 114/94/91 212/84/81 120/93/90
f 211/85/82 212/84/81 114/94/91
f 114/94/91 108/95/92 211/85/82
f 211/85/82 108/95/92 209/86/83
f 109/46/46 209/86/83 108/95/92
f 109/46/46 210/45/45 209/86/83
g ValveBiped.Bip01_R_Calf
f 198/96/93 133/97/94 122/98/95
f 198/96/93 122/98/95 132/90/87
f 197/99/96 198/96/93 132/90/87
f 197/99/96 132/90/87 207/89/86
f 206/87/84 197/99/96 207/89/86
f 196/100/97 197/99/96 206/87/84
f 206/87/84 205/88/85 196/100/97
f 196/100/97 205/88/85 204/101/98
f 196/100/97 204/101/98 195/102/99
f 195/102/99 204/101/98 203/103/100
f 195/102/99 203/103/100 194/104/101
f 194/104/101 203/103/100 202/105/102
f 194/104/101 202/105/102 193/106/103
f 193/106/103 202/105/102 201/107/104
f 193/106/103 201/107/104 192/108/105
f 192/108/105 201/107/104 200/109/106
f 192/108/105 200/109/106 190/21/21
f 190/21/21 200/109/106 199/22/22
f 166/110/107 143/111/108 134/112/109
f 166/110/107 134/112/109 133/97/94
f 179/113/110 166/110/107 133/97/94
f 179/113/110 133/97/94 198/96/93
f 185/114/111 179/113/110 198/96/93
f 185/114/111 198/96/93 197/99/96
f 196/100/97 185/114/111 197/99/96
f 195/102/99 185/114/111 196/100/97
f 195/102/99 184/115/112 185/114/111
f 194/104/101 184/115/112 195/102/99
f 194/104/101 186/116/113 184/115/112
f 193/106/103 186/116/113 194/104/101
f 193/106/103 187/117/114 186/116/113
f 192/108/105 187/117/114 193/106/103
f 192/108/105 188/118/115 187/117/114
f 190/21/21 188/118/115 192/108/105
f 190/21/21 189/3/3 188/118/115
f 191/1/1 189/3/3 190/21/21
f 176/2/2 178/119/116 189/3/3
f 189/3/3 178/119/116 188/118/115
f 188/118/115 178/119/116 181/120/117
f 188/118/115 181/120/117 187/117/114
f 187/117/114 181/120/117 182/121/118
f 187/117/114 182/121/118 183/122/119
f 187/117/114 183/122/119 186/116/113
f 186/116/113 183/122/119 184/115/112
f 184/115/112 179/113/110 185/114/111
f 184/115/112 180/123/120 179/113/110
f 184/115/112 183/122/119 180/123/120
f 183/122/119 167/124/121 180/123/120
f 182/121/118 167/124/121 183/122/119
f 182/121/118 168/125/122 167/124/121
f 182/121/118 169/126/123 168/125/122
f 181/120/117 169/126/123 182/121/118
f 170/127/124 169/126/123 181/120/117
f 181/120/117 178/119/116 170/127/124
f 170/127/124 178/119/116 177/128/125
f 180/123/120 167/124/121 166/110/107
f 180/123/120 166/110/107 179/113/110
f 170/127/124 177/128/125 171/129/126
f 171/129/126 177/128/125 172/130/127
f 176/2/2 177/128/125 178/119/116
f 176/2/2 172/130/127 177/128/125
f 175/5/5 172/130/127 176/2/2
f 174/8/8 172/130/127 175/5/5
f 174/8/8 173/10/10 172/130/127
f 165/12/12 172/130/127 173/10/10
f 164/131/128 172/130/127 165/12/12
f 171/129/126 172/130/127 164/131/128
f 164/131/128 155/132/129 171/129/126
f 171/129/126 155/132/129 170/127/124
f 170/127/124 155/132/129 154/133/130
f 170/127/124 154/133/130 169/126/123
f 169/126/123 154/133/130 153/134/131
f 169/126/123 153/134/131 168/125/122
f 168/125/122 153/134/131 152/135/132
f 168/125/122 152/135/132 167/124/121
f 167/124/121 152/135/132 143/111/108
f 167/124/121 143/111/108 166/110/107
f 165/12/12 161/14/14 159/136/133
f 165/12/12 159/136/133 164/131/128
f 164/131/128 159/136/133 157/137/134
f 164/131/128 157/137/134 155/132/129
g ValveBiped.Bip01_R_Foot
f 160/138/135 162/16/16 163/139/136
f 160/138/135 161/14/14 162/16/16
g ValveBiped.Bip01_R_Calf
f 160/138/135 159/136/133 161/14/14
g ValveBiped.Bip01_R_Foot
f 158/140/137 159/136/133 160/138/135
g ValveBiped.Bip01_R_Calf
f 158/140/137 157/137/134 159/136/133
g ValveBiped.Bip01_R_Foot
f 156/141/138 157/137/134 158/140/137
g ValveBiped.Bip01_R_Calf
f 156/141/138 155/132/129 157/137/134
g ValveBiped.Bip01_R_Foot
f 150/142/139 155/132/129 156/141/138
f 151/143/140 155/132/129 150/142/139
g ValveBiped.Bip01_R_Calf
f 151/143/140 154/133/130 155/132/129
f 151/143/140 153/134/131 154/133/130
g ValveBiped.Bip01_R_Foot
f 145/144/141 153/134/131 151/143/140
g ValveBiped.Bip01_R_Calf
f 145/144/141 152/135/132 153/134/131
g ValveBiped.Bip01_R_Foot
f 144/145/142 152/135/132 145/144/141
g ValveBiped.Bip01_R_Calf
f 144/145/142 143/111/108 152/135/132
g ValveBiped.Bip01_R_Foot
f 146/146/143 145/144/141 151/143/140
f 151/143/140 149/147/144 146/146/143
f 151/143/140 150/142/139 149/147/144
f 146/146/143 149/147/144 147/148/145
f 100/149/146 140/150/147 101/151/148
f 140/150/147 139/152/149 101/151/148
f 101/151/148 139/152/149 148/153/150
f 139/152/149 142/154/151 148/153/150
f 148/153/150 142/154/151 147/148/145
f 146/146/143 147/148/145 142/154/151
f 146/146/143 142/154/151 141/155/152
f 141/155/152 145/144/141 146/146/143
f 137/156/153 145/144/141 141/155/152
f 137/156/153 144/145/142 145/144/141
f 137/156/153 136/157/154 144/145/142
f 144/145/142 136/157/154 135/158/155
f 135/158/155 143/111/108 144/145/142
g ValveBiped.Bip01_R_Calf
f 135/158/155 134/112/109 143/111/108
g ValveBiped.Bip01_R_Foot
f 139/152/149 138/159/156 142/154/151
f 141/155/152 142/154/151 138/159/156
f 141/155/152 138/159/156 137/156/153
f 99/160/157 104/161/158 131/162/159
f 100/149/146 99/160/157 131/162/159
f 131/162/159 140/150/147 100/149/146
f 131/162/159 130/163/160 140/150/147
f 130/163/160 139/152/149 140/150/147
f 130/163/160 129/164/161 139/152/149
f 129/164/161 138/159/156 139/152/149
f 129/164/161 127/165/162 138/159/156
f 137/156/153 138/159/156 127/165/162
f 137/156/153 127/165/162 126/166/163
f 137/156/153 126/166/163 136/157/154
f 125/167/164 136/157/154 126/166/163
f 125/167/164 135/158/155 136/157/154
f 125/167/164 124/168/165 135/158/155
f 124/168/165 134/112/109 135/158/155
g ValveBiped.Bip01_R_Calf
f 124/168/165 123/169/166 134/112/109
f 133/97/94 134/112/109 123/169/166
f 133/97/94 123/169/166 122/98/95
f 132/90/87 122/98/95 121/91/88
g ValveBiped.Bip01_R_Foot
f 131/162/159 104/161/158 128/170/167
f 131/162/159 128/170/167 130/163/160
f 128/170/167 129/164/161 130/163/160
f 128/170/167 127/165/162 129/164/161
f 104/161/158 127/165/162 128/170/167
f 104/161/158 126/166/163 127/165/162
f 104/161/158 105/171/168 126/166/163
f 125/167/164 126/166/163 105/171/168
f 125/167/164 105/171/168 113/172/169
f 113/172/169 124/168/165 125/167/164
f 113/172/169 117/173/170 124/168/165
f 117/173/170 123/169/166 124/168/165
g ValveBiped.Bip01_R_Calf
f 117/173/170 118/174/171 123/169/166
f 122/98/95 123/169/166 118/174/171
f 122/98/95 118/174/171 121/91/88
f 121/91/88 118/174/171 119/92/89
g ValveBiped.Bip01_R_Foot
f 114/94/91 120/93/90 115/175/172
f 115/175/172 120/93/90 116/176/173
f 120/93/90 119/92/89 116/176/173
g ValveBiped.Bip01_R_Calf
f 116/176/173 119/92/89 118/174/171
g ValveBiped.Bip01_R_Foot
f 116/176/173 118/174/171 117/173/170
f 113/172/169 116/176/173 117/173/170
f 115/175/172 116/176/173 113/172/169
f 113/172/169 106/177/174 115/175/172
f 115/175/172 106/177/174 107/178/175
f 115/175/172 107/178/175 114/94/91
f 114/94/91 107/178/175 108/95/92
f 113/172/169 105/171/168 106/177/174
f 110/179/176 112/44/44 109/46/46
f 110/179/176 111/48/48 112/44/44
f 92/50/50 111/48/48 110/179/176
f 94/180/177 92/50/50 110/179/176
f 110/179/176 109/46/46 94/180/177
f 94/180/177 109/46/46 103/181/178
f 109/46/46 108/95/92 103/181/178
f 103/181/178 108/95/92 107/178/175
f 103/181/178 107/178/175 95/182/179
f 95/182/179 107/178/175 106/177/174
f 95/182/179 106/177/174 96/183/180
f 96/183/180 106/177/174 97/184/181
f 97/184/181 106/177/174 105/171/168
f 97/184/181 105/171/168 98/185/182
f 98/185/182 105/171/168 104/161/158
f 99/160/157 98/185/182 104/161/158
f 94/180/177 103/181/178 95/182/179
f 93/186/183 92/50/50 94/180/177
f 89/63/63 101/151/148 102/62/62
f 100/149/146 101/151/148 89/63/63
f 100/149/146 89/63/63 87/187/184
f 87/187/184 99/160/157 100/149/146
f 87/187/184 86/188/185 99/160/157
f 86/188/185 98/185/182 99/160/157
f 86/188/185 85/189/186 98/185/182
f 85/189/186 97/184/181 98/185/182
f 84/190/187 97/184/181 85/189/186
f 84/190/187 96/183/180 97/184/181
f 91/191/188 96/183/180 84/190/187
f 91/191/188 95/182/179 96/183/180
f 91/191/188 90/192/189 95/182/179
f 94/180/177 95/182/179 90/192/189
f 94/180/177 90/192/189 80/193/190
f 94/180/177 80/193/190 93/186/183
f 93/186/183 80/193/190 81/52/52
f 93/186/183 81/52/52 92/50/50
f 83/194/191 91/191/188 84/190/187
f 83/194/191 82/195/192 91/191/188
f 82/195/192 90/192/189 91/191/188
f 82/195/192 80/193/190 90/192/189
f 87/187/184 89/63/63 88/61/61
f 87/187/184 88/61/61 77/59/59
f 87/187/184 77/59/59 78/196/193
f 87/187/184 78/196/193 86/188/185
f 78/196/193 85/189/186 86/188/185
f 78/196/193 75/197/194 85/189/186
f 75/197/194 84/190/187 85/189/186
f 83/194/191 84/190/187 75/197/194
f 75/197/194 76/57/57 83/194/191
f 83/194/191 76/57/57 82/195/192
f 76/57/57 79/54/54 82/195/192
f 82/195/192 79/54/54 80/193/190
f 81/52/52 80/193/190 79/54/54
f 77/59/59 75/197/194 78/196/193
f 77/59/59 76/57/57 75/197/194
f 32/198/195 19/199/196 39/200/144
f 32/198/195 39/200/144 74/201/197
f 32/198/195 74/201/197 31/202/198
f 31/202/198 74/201/197 73/203/199
f 73/203/199 17/204/200 31/202/198
f 72/205/201 17/204/200 73/203/199
f 66/206/202 17/204/200 72/205/201
f 65/207/203 66/206/202 72/205/201
f 65/207/203 72/205/201 71/208/204
f 65/207/203 71/208/204 64/209/205
f 64/209/205 71/208/204 70/210/67
f 64/209/205 70/210/67 69/211/206
f 64/209/205 69/211/206 63/212/207
f 63/212/207 69/211/206 68/213/208
f 63/212/207 68/213/208 62/214/209
f 62/214/209 68/213/208 67/215/210
f 62/214/209 67/215/210 60/216/211
f 62/214/209 60/216/211 61/217/212
f 66/206/202 6/218/213 17/204/200
f 4/219/214 6/218/213 66/206/202
f 65/207/203 4/219/214 66/206/202
f 5/220/215 4/219/214 65/207/203
f 64/209/205 5/220/215 65/207/203
f 16/221/216 5/220/215 64/209/205
f 63/212/207 16/221/216 64/209/205
f 24/222/217 16/221/216 63/212/207
f 62/214/209 24/222/217 63/212/207
f 26/223/218 24/222/217 62/214/209
f 26/223/218 62/214/209 61/217/212
f 26/223/218 61/217/212 28/224/219
f 28/224/219 61/217/212 59/225/220
f 28/224/219 59/225/220 48/226/221
f 48/226/221 59/225/220 58/227/222
f 48/226/221 58/227/222 49/228/223
f 58/227/222 54/229/224 49/228/223
f 49/228/223 54/229/224 50/230/225
f 58/227/222 56/231/226 54/229/224
f 61/217/212 60/216/211 59/225/220
f 59/225/220 60/216/211 57/232/53
f 59/225/220 57/232/53 58/227/222
f 58/227/222 57/232/53 56/231/226
f 55/233/227 56/231/226 57/232/53
f 55/233/227 54/229/224 56/231/226
f 53/234/56 54/229/224 55/233/227
f 53/234/56 50/230/225 54/229/224
f 52/235/228 50/230/225 53/234/56
f 51/236/229 50/230/225 52/235/228
f 51/236/229 43/237/62 50/230/225
f 44/238/230 50/230/225 43/237/62
f 49/228/223 50/230/225 44/238/230
f 47/239/231 49/228/223 44/238/230
f 48/226/221 49/228/223 47/239/231
f 47/239/231 38/240/232 48/226/221
f 48/226/221 38/240/232 28/224/219
f 28/224/219 38/240/232 27/241/233
f 47/239/231 44/238/230 45/242/234
f 47/239/231 45/242/234 46/243/235
f 47/239/231 46/243/235 38/240/232
f 46/243/235 37/244/236 38/240/232
f 46/243/235 45/242/234 37/244/236
f 45/242/234 36/245/237 37/244/236
f 44/238/230 36/245/237 45/242/234
f 44/238/230 35/246/238 36/245/237
f 44/238/230 43/237/62 35/246/238
f 35/246/238 43/237/62 34/247/239
f 34/247/239 43/237/62 42/248/240
f 34/247/239 42/248/240 33/249/241
f 33/249/241 42/248/240 41/250/150
f 33/249/241 41/250/150 40/251/145
f 40/251/145 20/252/242 33/249/241
f 39/200/144 20/252/242 40/251/145
f 39/200/144 19/199/196 20/252/242
f 38/240/232 37/244/236 27/241/233
f 27/241/233 37/244/236 25/253/243
f 37/244/236 30/254/244 25/253/243
f 37/244/236 36/245/237 30/254/244
f 36/245/237 29/255/245 30/254/244
f 35/246/238 29/255/245 36/245/237
f 35/246/238 34/247/239 29/255/245
f 34/247/239 21/256/246 29/255/245
f 34/247/239 33/249/241 21/256/246
f 33/249/241 20/252/242 21/256/246
f 32/198/195 18/257/247 19/199/196
f 31/202/198 18/257/247 32/198/195
f 31/202/198 17/204/200 18/257/247
f 25/253/243 30/254/244 23/258/248
f 30/254/244 22/259/249 23/258/248
f 30/254/244 29/255/245 22/259/249
f 29/255/245 21/256/246 22/259/249
f 28/224/219 27/241/233 26/223/218
f 27/241/233 25/253/243 26/223/218
f 26/223/218 25/253/243 24/222/217
f 25/253/243 23/258/248 24/222/217
f 24/222/217 23/258/248 16/221/216
f 23/258/248 15/260/250 16/221/216
f 23/258/248 22/259/249 15/260/250
f 22/259/249 14/261/251 15/260/250
f 22/259/249 21/256/246 14/261/251
f 21/256/246 13/262/252 14/261/251
f 21/256/246 20/252/242 13/262/252
f 20/252/242 12/263/253 13/262/252
f 19/199/196 12/263/253 20/252/242
f 19/199/196 8/264/254 12/263/253
f 18/257/247 8/264/254 19/199/196
f 18/257/247 7/265/255 8/264/254
f 17/204/200 7/265/255 18/257/247
f 6/218/213 7/265/255 17/204/200
f 11/266/256 9/267/257 10/268/258
f 11/266/256 8/264/254 9/267/257
f 11/266/256 12/263/253 8/264/254
f 16/221/216 15/260/250 5/220/215
f 15/260/250 3/269/259 5/220/215
f 15/260/250 14/261/251 3/269/259
f 14/261/251 2/270/260 3/269/259
f 14/261/251 13/262/252 2/270/260
f 2/270/260 13/262/252 12/263/253
f 2/270/260 12/263/253 11/266/256
f 11/266/256 1/271/261 2/270/260
f 10/268/258 1/271/261 11/266/256
f 10/268/258 6/218/213 1/271/261
f 10/268/258 9/267/257 6/218/213
f 9/267/257 7/265/255 6/218/213
f 9/267/257 8/264/254 7/265/255
f 4/219/214 1/271/261 6/218/213
f 5/220/215 3/269/259 4/219/214
f 3/269/259 1/271/261 4/219/214
f 3/269/259 2/270/260 1/271/261
