# Blender 5.0.0
# www.blender.org
mtllib PataIzqPo.mtl
g PatIzqPo_Mesh
v -0.097057 -0.264384 0.250676
v -0.131641 -0.348802 0.279988
v -0.115187 -0.244765 0.411229
v -0.161367 -0.158375 0.526452
v -0.233788 -0.132138 0.594860
v -0.181677 -0.231652 0.525303
v -0.146175 -0.332460 0.421614
v -0.158809 -0.408326 0.295836
v -0.175326 -0.405500 0.418958
v -0.153965 -0.417250 0.296308
v -0.203625 -0.509011 0.307548
v -0.173905 -0.412052 0.420243
v -0.226369 -0.388171 0.519864
v -0.205379 -0.319510 0.527952
v -0.253407 -0.223853 0.577270
v -0.386382 -0.093311 0.664167
v -0.219220 -0.401716 0.525209
v -0.834296 -0.067590 0.459376
v -0.728527 -0.040029 0.599436
v -0.718467 -0.180420 0.580752
v -0.575444 -0.191056 0.646281
v -0.576187 -0.060282 0.675442
v -0.401067 -0.207539 0.630490
v -0.271157 -0.314849 0.575910
v -0.284327 -0.374534 0.572551
v -0.285359 -0.391831 0.585375
v -0.266694 -0.516582 0.502650
v -0.222350 -0.515265 0.412102
v -0.279360 -0.604744 0.388463
v -0.322153 -0.614895 0.460931
v -0.324084 -0.516423 0.551651
v -0.409949 -0.305936 0.621418
v -0.577111 -0.295006 0.630840
v -0.258340 -0.588813 0.300491
v -0.299253 -0.652572 0.347106
v -0.333264 -0.678438 0.395636
v -0.368284 -0.617571 0.500805
v -0.438228 -0.513844 0.587864
v -0.415235 -0.389018 0.625850
v -0.416505 -0.371254 0.610074
v -0.577768 -0.363765 0.615115
v -0.709086 -0.287583 0.562513
v -0.820225 -0.176641 0.451256
v -0.273783 -0.613900 0.274980
v -0.401727 -0.687494 0.451303
v -0.354796 -0.687602 0.402049
v -0.456350 -0.617595 0.532883
v -0.474799 -0.687214 0.472622
v -0.702436 -0.350159 0.546945
v -0.578898 -0.383340 0.610564
v -0.572355 -0.505357 0.576103
v -0.562597 -0.612919 0.524109
v -0.556174 -0.687558 0.476361
v -0.647164 -0.606913 0.497991
v -0.652354 -0.687033 0.426610
v -0.727464 -0.655519 0.345428
v -0.727870 -0.687337 0.324209
v -0.741339 -0.673617 0.291494
v -0.747407 -0.691788 0.194467
v -0.747991 -0.682591 0.187065
v -0.738677 -0.690870 0.167554
v -0.676326 -0.494921 0.544124
v -0.707518 -0.374716 0.568481
v -0.789197 -0.377004 0.429283
v -0.781468 -0.361742 0.424407
v -0.804134 -0.365337 0.301681
v -0.828511 -0.284522 0.303159
v -0.798517 -0.294107 0.160363
v -0.777434 -0.355700 0.168549
v -0.714870 -0.312291 0.042321
v -0.701949 -0.355377 0.055586
v -0.593572 -0.329274 -0.013324
v -0.586905 -0.363741 0.002434
v -0.466057 -0.340489 -0.031192
v -0.466386 -0.383435 -0.006572
v -0.473668 -0.395226 -0.009361
v -0.704423 -0.377506 0.058569
v -0.597580 -0.382726 -0.001666
v -0.800478 -0.283417 0.437698
v -0.250837 -0.411113 0.092732
v -0.327860 -0.392810 0.037628
v -0.338206 -0.406046 0.030043
v -0.316749 -0.346038 0.010670
v -0.306447 -0.264284 -0.039123
v -0.465721 -0.261227 -0.075707
v -0.605643 -0.248130 -0.047802
v -0.735321 -0.225255 0.018714
v -0.825033 -0.197667 0.149407
v -0.853410 -0.181400 0.304933
v -0.217791 -0.347986 0.082699
v -0.235012 -0.397907 0.108662
v -0.869258 -0.085507 0.308005
v -0.844682 -0.091528 0.137793
v -0.752234 -0.103310 -0.014889
v -0.613310 -0.132736 -0.097315
v -0.456329 -0.148583 -0.143025
v -0.285489 -0.168978 -0.111523
v -0.169833 -0.190501 -0.022369
v -0.194347 -0.264099 0.034889
v -0.105754 -0.209500 0.097897
v -0.124133 -0.266434 0.139889
v -0.080273 -0.219606 0.223976
v -0.097057 -0.264384 0.250676
v -0.154957 -0.350593 0.179628
v -0.178261 -0.408491 0.198257
v -0.182630 -0.415980 0.182638
v -0.280237 -0.500759 0.139639
v -0.230068 -0.507609 0.219001
v -0.309648 -0.553159 0.152388
v -0.272347 -0.571626 0.220109
v -0.317258 -0.558960 0.146947
v -0.282477 -0.583185 0.206426
v -0.319043 -0.567995 0.133544
v -0.289850 -0.600115 0.193350
v -0.337212 -0.576310 0.097906
v -0.295633 -0.619392 0.144349
v -0.282557 -0.678982 0.201603
v -0.289494 -0.628954 0.242741
v -0.288552 -0.645553 0.170138
v -0.131641 -0.348802 0.279988
v -0.158809 -0.408326 0.295836
v -0.153965 -0.417250 0.296308
v -0.203625 -0.509011 0.307548
v -0.258340 -0.588813 0.300491
v -0.273783 -0.613900 0.274980
v -0.298344 -0.667392 0.290415
v -0.304741 -0.687894 0.300501
v -0.287157 -0.695461 0.214036
v -0.290983 -0.689428 0.192736
v -0.333264 -0.678438 0.395636
v -0.354796 -0.687602 0.402049
v -0.299253 -0.652572 0.347106
v -0.311133 -0.625422 0.149150
v -0.300401 -0.655931 0.174601
v -0.291688 -0.676711 0.188202
v -0.305395 -0.634402 0.114156
v -0.306914 -0.658776 0.090837
v -0.347859 -0.587449 0.062193
v -0.339608 -0.576745 0.094409
v -0.401553 -0.553480 0.063283
v -0.378949 -0.545140 0.088683
v -0.371143 -0.541490 0.104882
v -0.366650 -0.537700 0.103433
v -0.349374 -0.492746 0.081823
v -0.469490 -0.478518 0.041938
v -0.470204 -0.522236 0.071290
v -0.470148 -0.528271 0.076724
v -0.473025 -0.532471 0.062918
v -0.473913 -0.543215 0.044551
v -0.404744 -0.559312 0.065726
v -0.432356 -0.568751 0.027443
v -0.464950 -0.602773 -0.019274
v -0.358866 -0.617593 0.013564
v -0.388885 -0.665181 -0.027005
v -0.577899 -0.544313 0.036765
v -0.486596 -0.662024 -0.054995
v -0.391216 -0.688161 -0.023075
v -0.316778 -0.688537 0.080670
v -0.521471 -0.602900 -0.027050
v -0.535353 -0.664917 -0.054300
v -0.535393 -0.687089 -0.046151
v -0.484189 -0.687129 -0.048942
v -0.564120 -0.687481 -0.054855
v -0.736778 -0.679001 0.163399
v -0.723577 -0.692130 0.079679
v -0.727885 -0.673258 0.091481
v -0.698493 -0.643692 0.019744
v -0.705682 -0.618198 0.061144
v -0.660170 -0.583455 0.026206
v -0.659099 -0.572437 0.057914
v -0.585800 -0.553614 0.036015
v -0.555236 -0.549805 0.036653
v -0.490046 -0.548728 0.039410
v -0.506916 -0.565484 0.013965
v -0.562775 -0.667388 -0.063899
v -0.604969 -0.687566 -0.037188
v -0.625052 -0.668569 -0.049159
v -0.683577 -0.687728 -0.003192
v -0.685366 -0.681939 -0.005505
v -0.652675 -0.617059 -0.018293
v -0.588762 -0.567360 0.011953
v -0.573257 -0.570912 0.011987
v -0.544528 -0.562609 0.009309
v -0.536604 -0.603930 -0.029572
v -0.552983 -0.609556 -0.029357
v -0.570561 -0.606560 -0.033727
v -0.393791 -0.721564 0.451250
v -0.470348 -0.720851 0.472429
v -0.470295 -0.698748 0.472365
v -0.393744 -0.698767 0.451159
v -0.344303 -0.725569 0.402285
v -0.344265 -0.698780 0.402162
v -0.290823 -0.726619 0.301039
v -0.290409 -0.698830 0.301011
v -0.280964 -0.726088 0.192149
v -0.279143 -0.698333 0.192844
v -0.313558 -0.725975 0.056074
v -0.310961 -0.698231 0.056992
v -0.561596 -0.720995 0.476383
v -0.561728 -0.698824 0.476346
v -0.474799 -0.687214 0.472622
v -0.401727 -0.687494 0.451303
v -0.354796 -0.687602 0.402049
v -0.304741 -0.687894 0.300501
v -0.287157 -0.695461 0.214036
v -0.290983 -0.689428 0.192736
v -0.316778 -0.688537 0.080670
v -0.378178 -0.698911 -0.023721
v -0.380340 -0.726655 -0.024517
v -0.428237 -0.737704 -0.024585
v -0.391216 -0.688161 -0.023075
v -0.683159 -0.737687 0.319532
v -0.346521 -0.737689 0.300385
v -0.692164 -0.737729 0.195610
v -0.345580 -0.737704 0.196281
v -0.674412 -0.737761 0.071509
v -0.377523 -0.737710 0.055465
v -0.632169 -0.737745 -0.021120
v -0.455277 -0.734664 -0.054058
v -0.455254 -0.724928 -0.067430
v -0.455260 -0.698920 -0.067408
v -0.458512 -0.688157 -0.066038
v -0.484189 -0.687129 -0.048942
v -0.524977 -0.688166 -0.079499
v -0.535393 -0.687089 -0.046151
v -0.583493 -0.688197 -0.067854
v -0.564120 -0.687481 -0.054855
v -0.578868 -0.733077 -0.059342
v -0.524975 -0.698933 -0.079499
v -0.524970 -0.721539 -0.079503
v -0.586722 -0.724209 -0.068022
v -0.679043 -0.726719 -0.018068
v -0.586727 -0.698952 -0.068093
v -0.604969 -0.687566 -0.037188
v -0.683577 -0.687728 -0.003192
v -0.680497 -0.698979 -0.018596
v -0.736740 -0.726729 0.077723
v -0.756884 -0.726667 0.196713
v -0.743948 -0.726580 0.326208
v -0.645623 -0.737457 0.415971
v -0.697981 -0.726228 0.416181
v -0.592647 -0.734776 0.460661
v -0.628332 -0.724025 0.460152
v -0.560326 -0.727162 0.472465
v -0.628466 -0.698756 0.460149
v -0.698030 -0.698720 0.416201
v -0.744235 -0.698592 0.326136
v -0.758488 -0.698856 0.196226
v -0.739100 -0.698983 0.076896
v -0.723577 -0.692130 0.079679
v -0.556174 -0.687558 0.476361
v -0.617804 -0.687418 0.460460
v -0.683106 -0.687384 0.416356
v -0.727870 -0.687337 0.324209
v -0.747407 -0.691788 0.194467
v -0.738677 -0.690870 0.167554
v -0.652354 -0.687033 0.426610
v -0.746421 -0.605434 0.242002
v -0.720120 -0.578326 0.146749
v -0.725155 -0.568020 0.167803
v -0.665141 -0.545892 0.091572
v -0.663979 -0.537383 0.104884
v -0.576521 -0.529977 0.059873
v -0.573833 -0.524114 0.074725
v -0.661977 -0.566535 0.060587
v -0.718427 -0.600376 0.103540
v -0.728223 -0.540602 0.201174
v -0.667729 -0.524373 0.116246
v -0.576427 -0.516292 0.072227
v -0.704531 -0.612222 0.101700
v -0.723796 -0.648891 0.136112
v -0.729015 -0.657015 0.110614
v -0.743876 -0.624072 0.216392
v -0.743594 -0.644319 0.155918
v -0.585858 -0.469557 0.044012
v -0.683947 -0.470643 0.099076
v -0.784732 -0.376505 0.163828
v -0.807542 -0.378296 0.302297
v -0.751785 -0.490071 0.421236
v -0.722861 -0.585700 0.400662
v -0.746447 -0.558169 0.282701
v -0.772318 -0.480524 0.298301
v -0.751305 -0.475512 0.193679
v -0.113640 -0.261439 0.090716
v -0.087182 -0.268663 0.247524
v -0.105754 -0.209500 0.097897
v -0.080273 -0.219606 0.223976
v -0.383977 -0.737056 0.403424
v -0.422263 -0.733298 0.452814
v -0.476643 -0.726325 0.473149
vn -0.0950 -0.9952 0.0252
vn 0.1133 -0.9929 0.0355
vn 0.1625 -0.9736 0.1603
vn -0.1140 -0.9836 0.1396
vn 0.1809 -0.8324 0.5239
vn -0.1058 -0.8669 0.4872
vn 0.0641 -0.4878 0.8706
vn -0.0384 -0.6884 0.7243
vn 0.1983 -0.0934 0.9757
vn 0.4843 -0.4333 0.7601
vn 0.6693 -0.5642 0.4835
vn 0.7649 -0.6044 0.2229
vn 0.0962 -0.9953 -0.0086
vn 0.7719 -0.6334 -0.0553
vn 0.1002 -0.9938 -0.0483
vn 0.7056 -0.6173 -0.3480
vn 0.1130 -0.9827 -0.1470
vn -0.9468 0.2814 0.1563
vn -0.3873 -0.9155 0.1091
vn -0.2255 -0.7760 0.5890
vn -0.9774 0.1248 0.1707
vn -0.9466 -0.3215 -0.0240
vn -0.8495 -0.3631 -0.3827
vn -0.9849 -0.1725 -0.0146
vn -0.9278 -0.0632 -0.3677
vn 0.0812 -0.5362 -0.8402
vn 0.0732 -0.6009 -0.7959
vn -0.1811 -0.4363 -0.8814
vn -0.2419 -0.4995 -0.8318
vn -0.6751 -0.0178 -0.7376
vn -0.6042 -0.4131 -0.6815
vn -0.8653 -0.1247 -0.4855
vn -0.9905 -0.1305 0.0426
vn -0.8835 -0.3355 0.3270
vn -0.8737 -0.3058 0.3782
vn -0.9979 0.0303 -0.0578
vn -0.8967 -0.2233 0.3821
vn -0.5357 -0.4722 0.7001
vn -0.5783 -0.3648 0.7297
vn -0.5982 0.1862 0.7794
vn -0.9366 0.0942 0.3375
vn -0.9933 -0.1058 0.0468
vn -0.8805 -0.1313 -0.4556
vn -0.6509 -0.2015 -0.7319
vn -0.3122 -0.0536 -0.9485
vn 0.0675 -0.1709 -0.9830
vn -0.9797 -0.1041 -0.1710
vn -0.9639 -0.2031 0.1724
vn -0.9916 0.1016 -0.0803
vn -0.9324 -0.0137 -0.3612
vn -0.9387 -0.0532 -0.3407
vn -0.9300 0.0660 -0.3615
vn -0.7748 0.1036 -0.6236
vn -0.8559 0.4115 -0.3132
vn -0.8364 0.4936 -0.2384
vn -0.8278 0.0644 -0.5574
vn -0.5715 0.5259 -0.6300
vn -0.9522 0.2920 -0.0900
vn -0.9722 0.0420 -0.2304
vn -0.5384 0.4493 -0.7129
vn -0.1278 0.5522 -0.8239
vn -0.1409 0.8831 -0.4475
vn 0.1316 0.8990 -0.4176
vn -0.1577 0.4059 -0.9002
vn 0.1906 0.2382 -0.9523
vn -0.5585 0.6035 -0.5691
vn -0.8977 0.2715 -0.3469
vn -0.5462 0.6938 -0.4693
vn -0.2122 0.7614 0.6126
vn -0.1146 -0.2604 0.9587
vn -0.5947 0.5483 0.5879
vn -0.3203 0.8766 0.3591
vn -0.8699 0.3638 0.3330
vn -0.7918 0.5605 -0.2428
vn -0.8959 0.4433 -0.0306
vn -0.8414 0.4808 -0.2469
vn -0.8862 0.4597 -0.0585
vn -0.8629 0.4394 0.2498
vn -0.7068 0.3721 0.6016
vn -0.4192 0.1964 0.8864
vn -0.1210 0.0382 0.9919
vn 0.1120 -0.3319 0.9366
vn -0.8337 0.4708 -0.2885
vn -0.7237 -0.6375 -0.2643
vn -0.7676 -0.6406 -0.0208
vn -0.6211 0.3219 -0.7146
vn -0.7569 0.0672 -0.6500
vn -0.7633 -0.6073 0.2205
vn -0.6187 -0.5639 0.5470
vn -0.3672 -0.4459 0.8163
vn -0.0912 -0.2740 0.9574
vn -0.0910 -0.9958 -0.0041
vn -0.1032 -0.9938 -0.0421
vn -0.5776 -0.5761 -0.5784
vn -0.3625 0.0801 -0.9285
vn -0.3029 0.4388 -0.8460
vn -0.5163 0.4120 -0.7508
vn -0.0092 0.6564 -0.7543
vn -0.0086 0.0023 -1.0000
vn -0.0007 -0.4648 -0.8854
vn -0.3083 -0.4223 -0.8525
vn -0.1422 -0.9628 -0.2299
vn -0.1090 -0.8995 -0.4231
vn 0.1220 -0.9166 -0.3808
vn 0.2831 -0.4309 -0.8569
vn 0.3623 0.1189 -0.9244
vn 0.2389 0.7348 -0.6349
vn 0.3209 0.6322 -0.7052
vn 0.1109 0.5256 -0.8434
vn 0.0954 0.6474 -0.7561
vn 0.5637 0.2859 -0.7749
vn 0.6361 0.3444 -0.6905
vn 0.5390 -0.5707 -0.6195
vn 0.8403 0.4011 -0.3648
vn 0.7893 0.4504 -0.4173
vn 0.9131 0.4056 -0.0418
vn 0.9204 0.3093 -0.2392
vn 0.8649 0.4938 0.0898
vn 0.8756 0.4113 0.2534
vn 0.9337 0.2732 0.2315
vn 0.7752 0.3216 0.5437
vn 0.7738 -0.1534 0.6146
vn 0.4560 -0.2347 0.8585
vn 0.5262 0.1810 0.8309
vn 0.1693 0.0259 0.9852
vn 0.0425 0.6152 -0.7872
vn 0.0432 0.5735 -0.8181
vn 0.0361 -0.0101 -0.9993
vn -0.7247 -0.1742 -0.6667
vn -0.4862 0.4769 -0.7322
vn -0.3555 -0.1676 -0.9195
vn -0.0662 0.8186 -0.5705
vn -0.0153 0.7902 -0.6127
vn -0.0801 0.7844 -0.6151
vn -0.0337 0.5470 -0.8364
vn 0.1383 0.0470 -0.9893
vn -0.0390 0.6323 -0.7738
vn 0.0894 0.5904 -0.8021
vn 0.1554 0.7458 -0.6478
vn 0.1452 0.6773 -0.7213
vn -0.0226 0.6072 -0.7942
vn -0.2194 0.6226 -0.7512
vn -0.5247 0.7333 -0.4324
vn -0.8362 0.2443 -0.4909
vn -0.2817 0.4120 -0.8665
vn 0.1975 0.6178 -0.7611
vn 0.1167 0.1120 -0.9868
vn 0.2565 0.7988 -0.5441
vn 0.3604 0.2385 -0.9018
vn 0.2216 0.5270 -0.8205
vn 0.1109 0.5257 -0.8434
vn 0.5637 0.2858 -0.7750
vn 0.0954 0.6475 -0.7561
vn 0.9317 0.0310 -0.3619
vn 0.8402 0.4011 -0.3649
vn 0.5326 0.0824 -0.8424
vn 0.6482 0.6212 -0.4405
vn 0.6301 0.4322 -0.6451
vn 0.7319 0.5129 -0.4486
vn 0.3547 0.2330 -0.9055
vn 0.4698 0.6971 -0.5417
vn 0.5181 0.1334 -0.8448
vn 0.3339 -0.5628 -0.7561
vn 0.3704 -0.5209 -0.7691
vn 0.3898 -0.1628 -0.9064
vn 0.1208 -0.1922 -0.9739
vn 0.6536 -0.1967 -0.7309
vn 0.6145 -0.5180 -0.5951
vn 0.6582 -0.4352 -0.6144
vn 0.7744 0.1618 -0.6117
vn 0.8103 0.3240 -0.4883
vn 0.7546 0.3575 -0.5503
vn 0.7617 -0.2304 -0.6056
vn 0.9129 0.3787 -0.1524
vn 0.9262 -0.0008 -0.3769
vn 0.9695 -0.1543 -0.1903
vn 0.8624 -0.1218 -0.4913
vn 0.8058 -0.2715 -0.5263
vn 0.7337 -0.2112 -0.6458
vn 0.9575 -0.2669 0.1098
vn 0.9003 -0.4106 -0.1444
vn 0.8502 -0.4879 0.1977
vn 0.6092 -0.7103 0.3526
vn 0.7738 -0.1533 0.6146
vn 0.8649 0.4938 0.0899
vn 0.9771 -0.1911 -0.0936
vn 0.9042 -0.1967 -0.3790
vn 0.8560 -0.5134 -0.0598
vn 0.8164 -0.4493 -0.3627
vn 0.8575 -0.5117 -0.0531
vn 0.7725 -0.5246 -0.3579
vn 0.9984 -0.0169 -0.0541
vn 0.8748 -0.0111 -0.4844
vn 0.9989 0.0320 -0.0329
vn 0.9161 -0.2570 -0.3078
vn 0.9176 -0.3969 -0.0212
vn 0.8190 -0.4574 -0.3466
vn 0.9280 -0.3719 -0.0231
vn 0.8078 -0.4808 -0.3410
vn 0.9662 -0.0643 -0.2495
vn 0.7082 -0.3732 -0.5994
vn 0.6183 -0.5161 -0.5928
vn 0.5878 -0.5646 -0.5794
vn 0.3617 -0.5248 -0.7705
vn 0.3163 -0.5736 -0.7556
vn -0.3873 -0.9155 0.1093
vn -0.4731 -0.8751 -0.1019
vn -0.4694 -0.8802 0.0697
vn -0.1711 -0.9250 0.3393
vn -0.0274 -0.5049 -0.8627
vn -0.0744 -0.9567 0.2814
vn -0.3546 -0.4020 -0.8442
vn -0.1120 -0.9897 0.0895
vn -0.6732 -0.3132 -0.6698
vn 0.0088 -0.9913 0.1316
vn -0.9096 -0.2441 -0.3361
vn 0.1158 -0.9921 0.0488
vn -0.9794 -0.1989 0.0345
vn 0.0060 -0.9982 0.0597
vn -0.8884 -0.1779 0.4232
vn 0.0330 -0.9863 0.1617
vn 0.4680 -0.2343 -0.8521
vn -0.8868 -0.2452 0.3917
vn -0.6763 0.1668 0.7175
vn -0.6399 -0.2148 0.7378
vn -0.9646 -0.2635 0.0126
vn -0.8820 -0.3122 -0.3530
vn -0.6330 -0.3688 -0.6807
vn -0.3028 -0.4309 -0.8501
vn 0.0258 -0.4953 -0.8684
vn -0.9267 0.1339 0.3512
vn -0.2559 -0.1038 -0.9611
vn -0.6299 -0.2323 -0.7411
vn -0.2280 -0.1919 0.9546
vn -0.2040 -0.3590 0.9108
vn -0.1765 -0.5042 0.8453
vn -0.8862 0.4596 -0.0586
vn -0.8699 0.3639 0.3330
vn -0.5947 0.5483 0.5880
vn -0.1146 -0.2605 0.9587
vn 0.1120 -0.3320 0.9366
vn 0.0898 -0.5629 0.8216
vn 0.0850 -0.3955 0.9145
vn 0.1119 0.1902 0.9753
vn 0.1281 0.2642 0.9559
vn -0.2285 -0.2130 0.9500
vn 0.4105 -0.5923 0.6933
vn 0.6092 -0.7102 0.3527
vn 0.8560 -0.5135 -0.0597
vn 0.9003 -0.4107 -0.1443
vn -0.6200 -0.1598 0.7682
vn -0.2081 -0.1836 0.9607
vn 0.1697 -0.1480 0.9743
vn 0.5042 0.1627 0.8481
vn 0.4911 0.0986 0.8655
vn 0.4272 -0.4531 0.7824
vn 0.6325 -0.5926 0.4988
vn 0.8022 -0.5434 0.2474
vn 0.8575 -0.5117 -0.0530
vn -0.1900 -0.1696 0.9670
vn 0.1816 -0.1953 0.9638
vn 0.4492 -0.1285 0.8841
vn 0.6870 -0.4879 0.5386
vn 0.8292 -0.4958 0.2581
vn 0.9518 -0.0907 0.2929
vn 0.8176 0.0730 0.5711
vn 0.7939 0.1383 0.5921
vn 0.7187 -0.2207 0.6594
vn 0.4525 -0.1901 0.8713
vn -0.1465 -0.9808 0.1288
vn -0.1880 -0.9819 -0.0225
vn 0.0032 -0.9992 0.0401
vn -0.1486 -0.9518 0.2683
vn 0.7231 -0.2099 0.6580
vn 0.8918 -0.3138 0.3258
vn 0.9523 -0.0419 0.3024
vn 0.9984 -0.0169 -0.0540
vn 0.9990 0.0320 -0.0328
vn 0.9176 -0.3969 -0.0211
vn 0.8952 -0.2792 0.3475
vn -0.2718 -0.8667 0.4183
vn 0.9703 -0.2417 0.0037
vt 0.386157 0.685860
vt 0.324489 0.686857
vt 0.332406 0.669228
vt 0.380032 0.668750
vt 0.340131 0.661408
vt 0.370862 0.660697
vt 0.350281 0.657932
vt 0.365486 0.657683
vt 0.349377 0.657291
vt 0.335221 0.660689
vt 0.325515 0.668642
vt 0.314709 0.686145
vt 0.323532 0.704968
vt 0.311737 0.705393
vt 0.328736 0.729937
vt 0.317351 0.729796
vt 0.337804 0.743740
vt 0.729159 0.754374
vt 0.732386 0.762230
vt 0.755946 0.765530
vt 0.759118 0.757925
vt 0.775693 0.079980
vt 0.752003 0.080812
vt 0.775729 0.094045
vt 0.754113 0.093555
vt 0.674914 0.080655
vt 0.676043 0.091672
vt 0.702234 0.091480
vt 0.701004 0.079867
vt 0.727694 0.092685
vt 0.726069 0.080653
vt 0.746817 0.061883
vt 0.773828 0.061771
vt 0.803037 0.078410
vt 0.805417 0.094644
vt 0.770725 0.103602
vt 0.798463 0.107570
vt 0.835186 0.095156
vt 0.833895 0.075262
vt 0.829418 0.055436
vt 0.798189 0.059491
vt 0.773012 0.059856
vt 0.746290 0.057662
vt 0.721814 0.061063
vt 0.698904 0.060716
vt 0.675102 0.061758
vt 0.768073 0.118554
vt 0.788476 0.112035
vt 0.767589 0.107601
vt 0.757994 0.114751
vt 0.763356 0.119353
vt 0.754126 0.117488
vt 0.742330 0.110921
vt 0.747151 0.103735
vt 0.737388 0.118832
vt 0.742308 0.113805
vt 0.725523 0.109857
vt 0.751632 0.121151
vt 0.750391 0.125531
vt 0.724949 0.107860
vt 0.704717 0.105439
vt 0.704131 0.099380
vt 0.679456 0.098704
vt 0.703072 0.094915
vt 0.677303 0.094751
vt 0.727055 0.096687
vt 0.749769 0.100372
vt 0.726998 0.100770
vt 0.378636 0.656045
vt 0.368428 0.649039
vt 0.389070 0.660043
vt 0.391131 0.664853
vt 0.401861 0.682070
vt 0.400318 0.731803
vt 0.403634 0.708371
vt 0.404938 0.714834
vt 0.405676 0.708590
vt 0.400086 0.683895
vt 0.391414 0.667066
vt 0.379089 0.657848
vt 0.367248 0.651913
vt 0.349948 0.651116
vt 0.398172 0.730687
vt 0.394406 0.728633
vt 0.399056 0.707885
vt 0.385589 0.747847
vt 0.387578 0.747927
vt 0.396571 0.685045
vt 0.388879 0.669253
vt 0.377125 0.661004
vt 0.365994 0.656162
vt 0.387271 0.707564
vt 0.383244 0.728967
vt 0.383131 0.744695
vt 0.366867 0.755535
vt 0.366397 0.757283
vt 0.372972 0.756699
vt 0.354928 0.757922
vt 0.355003 0.756604
vt 0.355126 0.753083
vt 0.365944 0.751550
vt 0.374885 0.744283
vt 0.364883 0.749629
vt 0.342566 0.748427
vt 0.342873 0.750890
vt 0.341733 0.754659
vt 0.342060 0.756133
vt 0.364494 0.760919
vt 0.356487 0.763700
vt 0.344367 0.760961
vt 0.327514 0.749717
vt 0.326757 0.746849
vt 0.329461 0.743740
vt 0.309856 0.729956
vt 0.313564 0.731520
vt 0.307140 0.705548
vt 0.304870 0.706725
vt 0.306220 0.701158
vt 0.310827 0.684628
vt 0.308636 0.682977
vt 0.322535 0.665829
vt 0.321710 0.663585
vt 0.334112 0.655303
vt 0.333815 0.657501
vt 0.349236 0.653322
vt 0.703254 0.123510
vt 0.700339 0.123305
vt 0.703071 0.135297
vt 0.731042 0.134310
vt 0.720394 0.124555
vt 0.715369 0.134848
vt 0.707720 0.113124
vt 0.704518 0.113137
vt 0.698125 0.112326
vt 0.697529 0.122433
vt 0.698549 0.134191
vt 0.703753 0.138928
vt 0.695169 0.121829
vt 0.690046 0.111831
vt 0.685056 0.106126
vt 0.700150 0.106988
vt 0.707460 0.107783
vt 0.723566 0.115519
vt 0.733121 0.126228
vt 0.750442 0.129511
vt 0.731768 0.135409
vt 0.713471 0.139498
vt 0.683690 0.121655
vt 0.689487 0.133571
vt 0.673650 0.112615
vt 0.664514 0.107015
vt 0.680932 0.103736
vt 0.765464 0.120787
vt 0.698211 0.138638
vt 0.667349 0.137621
vt 0.688302 0.138019
vt 0.639831 0.126621
vt 0.617117 0.124801
vt 0.639967 0.132340
vt 0.668407 0.133687
vt 0.653601 0.114923
vt 0.660534 0.123627
vt 0.648003 0.110084
vt 0.663690 0.104445
vt 0.656206 0.100125
vt 0.651981 0.096414
vt 0.649785 0.093503
vt 0.646447 0.082226
vt 0.646537 0.062531
vt 0.672493 0.057375
vt 0.624631 0.063481
vt 0.626241 0.083825
vt 0.631545 0.096346
vt 0.635026 0.099716
vt 0.638374 0.104004
vt 0.647075 0.108356
vt 0.632134 0.116538
vt 0.637639 0.120956
vt 0.619096 0.122929
vt 0.616359 0.122571
vt 0.624097 0.120320
vt 0.624355 0.117619
vt 0.631572 0.114015
vt 0.597352 0.118285
vt 0.602617 0.108948
vt 0.585120 0.116054
vt 0.595060 0.121568
vt 0.572667 0.124966
vt 0.571923 0.128714
vt 0.612978 0.124894
vt 0.609522 0.112448
vt 0.618486 0.103703
vt 0.595912 0.105183
vt 0.613537 0.100159
vt 0.585265 0.089782
vt 0.605309 0.086079
vt 0.576123 0.070266
vt 0.600863 0.065167
vt 0.574226 0.064714
vt 0.595787 0.061987
vt 0.573806 0.048572
vt 0.595772 0.048012
vt 0.582455 0.028066
vt 0.602448 0.028860
vt 0.621939 0.108060
vt 0.618359 0.059317
vt 0.619244 0.047180
vt 0.624181 0.028713
vt 0.643311 0.046774
vt 0.647643 0.028554
vt 0.582214 0.007673
vt 0.602020 0.007538
vt 0.623452 0.007393
vt 0.647172 0.007232
vt 0.675756 0.028364
vt 0.675059 0.007043
vt 0.699320 0.028204
vt 0.700252 0.006872
vt 0.723121 0.028042
vt 0.725755 0.006700
vt 0.749382 0.027864
vt 0.753261 0.006513
vt 0.775867 0.027685
vt 0.779945 0.006332
vt 0.801269 0.027513
vt 0.804060 0.006169
vt 0.642724 0.058201
vt 0.796748 0.044989
vt 0.826644 0.052422
vt 0.826272 0.043650
vt 0.772000 0.045636
vt 0.745827 0.045917
vt 0.719948 0.045981
vt 0.696451 0.046393
vt 0.673404 0.046458
vt 0.797525 0.057777
vt 0.695942 0.055242
vt 0.720089 0.055613
vt 0.855743 0.056123
vt 0.856702 0.076874
vt 0.856694 0.096805
vt 0.770225 0.119552
vt 0.797531 0.113454
vt 0.825732 0.111061
vt 0.855926 0.111718
vt 0.879777 0.112447
vt 0.882282 0.096597
vt 0.885281 0.076819
vt 0.888932 0.055149
vt 0.889116 0.053247
vt 0.855663 0.054630
vt 0.902428 0.112241
vt 0.904716 0.096696
vt 0.921531 0.116772
vt 0.923960 0.112397
vt 0.959746 0.102003
vt 0.941206 0.110281
vt 0.960976 0.108922
vt 0.830180 0.027317
vt 0.855110 0.043755
vt 0.888506 0.042997
vt 0.917483 0.051705
vt 0.916145 0.054312
vt 0.910728 0.076600
vt 0.919706 0.097205
vt 0.939469 0.098766
vt 0.970417 0.085178
vt 0.858375 0.027126
vt 0.890226 0.026910
vt 0.917910 0.042028
vt 0.926543 0.077172
vt 0.947933 0.080193
vt 0.956640 0.060430
vt 0.933393 0.056233
vt 0.933304 0.053829
vt 0.933394 0.041791
vt 0.919066 0.026714
vt 0.889335 0.005591
vt 0.858210 0.005802
vt 0.831032 0.005986
vt 0.917202 0.005402
vt 0.935323 0.026604
vt 0.958070 0.043596
vt 0.957183 0.058130
vt 0.983071 0.065965
vt 0.984367 0.060398
vt 0.988617 0.045282
vt 0.958907 0.026444
vt 0.933812 0.005289
vt 0.986582 0.026256
s 1
g ValveBiped.Bip01_L_Foot
g PatIzqPo_PoMaterial
usemtl PoMaterial
f 212/1/1 213/2/2 288/3/3
f 212/1/1 288/3/3 240/4/4
f 240/4/4 288/3/3 289/5/5
f 240/4/4 289/5/5 242/6/6
f 242/6/6 289/5/5 290/7/7
f 242/6/6 290/7/7 244/8/8
f 188/9/9 244/8/8 290/7/7
f 188/9/9 290/7/7 289/5/5
f 188/9/9 289/5/5 187/10/10
f 187/10/10 289/5/5 288/3/3
f 187/10/10 288/3/3 191/11/11
f 191/11/11 288/3/3 213/2/2
f 191/11/11 213/2/2 193/12/12
f 193/12/12 213/2/2 215/13/13
f 193/12/12 215/13/13 195/14/14
f 195/14/14 215/13/13 217/15/15
f 195/14/14 217/15/15 197/16/16
f 197/16/16 217/15/15 210/17/17
g ValveBiped.Bip01_L_Thigh
f 285/18/18 287/19/19 286/20/20
f 285/18/18 286/20/20 284/21/21
g ValveBiped.Bip01_L_Calf
f 282/22/22 283/23/23 281/24/24
g ValveBiped.Bip01_L_Foot
f 281/24/24 283/23/23 267/25/25
f 145/26/26 146/27/27 269/28/28
g ValveBiped.Bip01_L_Calf
f 145/26/26 269/28/28 275/29/29
g ValveBiped.Bip01_L_Foot
f 275/29/29 269/28/28 268/30/30
g ValveBiped.Bip01_L_Calf
f 275/29/29 268/30/30 276/31/31
g ValveBiped.Bip01_L_Foot
f 276/31/31 268/30/30 267/25/25
g ValveBiped.Bip01_L_Calf
f 276/31/31 267/25/25 283/23/23
f 276/31/31 283/23/23 277/32/32
f 282/22/22 277/32/32 283/23/23
f 282/22/22 278/33/33 277/32/32
f 279/34/34 278/33/33 282/22/22
f 282/22/22 280/35/35 279/34/34
g ValveBiped.Bip01_L_Foot
f 282/22/22 281/24/24 280/35/35
f 258/36/36 281/24/24 267/25/25
f 258/36/36 56/37/37 281/24/24
f 281/24/24 56/37/37 280/35/35
f 280/35/35 56/37/37 54/38/38
f 279/34/34 280/35/35 54/38/38
g ValveBiped.Bip01_L_Calf
f 279/34/34 54/38/38 62/39/39
f 62/39/39 63/40/40 279/34/34
f 279/34/34 63/40/40 64/41/41
f 279/34/34 64/41/41 278/33/33
f 64/41/41 66/42/42 278/33/33
f 277/32/32 69/43/43 77/44/44
f 276/31/31 277/32/32 77/44/44
f 276/31/31 77/44/44 78/45/45
f 276/31/31 78/45/45 275/29/29
f 275/29/29 78/45/45 76/46/46
f 275/29/29 76/46/46 145/26/26
g ValveBiped.Bip01_L_Foot
f 60/47/47 58/48/48 273/49/49
f 60/47/47 273/49/49 274/50/50
f 164/51/51 60/47/47 274/50/50
f 164/51/51 274/50/50 271/52/52
f 271/52/52 274/50/50 266/53/53
f 274/50/50 259/54/54 266/53/53
f 274/50/50 273/49/49 259/54/54
f 258/36/36 259/54/54 273/49/49
f 258/36/36 273/49/49 58/48/48
f 258/36/36 58/48/48 56/37/37
f 168/55/55 270/56/56 170/57/57
f 272/58/58 270/56/56 168/55/55
f 168/55/55 166/59/59 272/58/58
f 272/58/58 166/59/59 164/51/51
f 272/58/58 164/51/51 271/52/52
f 272/58/58 271/52/52 270/56/56
f 271/52/52 266/53/53 270/56/56
f 270/56/56 266/53/53 170/57/57
f 170/57/57 266/53/53 265/60/60
f 170/57/57 265/60/60 155/61/61
f 265/60/60 263/62/62 155/61/61
f 155/61/61 263/62/62 148/63/63
f 264/64/64 148/63/63 263/62/62
f 147/65/65 148/63/63 264/64/64
f 264/64/64 146/27/27 147/65/65
f 264/64/64 269/28/28 146/27/27
f 262/66/66 269/28/28 264/64/64
f 262/66/66 268/30/30 269/28/28
f 260/67/67 268/30/30 262/66/66
f 260/67/67 267/25/25 268/30/30
f 258/36/36 267/25/25 260/67/67
f 265/60/60 261/68/68 263/62/62
f 265/60/60 259/54/54 261/68/68
f 266/53/53 259/54/54 265/60/60
f 264/64/64 263/62/62 262/66/66
f 262/66/66 263/62/62 261/68/68
f 262/66/66 261/68/68 260/67/67
f 260/67/67 261/68/68 259/54/54
f 260/67/67 259/54/54 258/36/36
f 252/69/69 251/70/70 257/71/71
f 252/69/69 257/71/71 253/72/72
f 253/72/72 257/71/71 254/73/73
f 250/74/74 248/75/75 256/76/76
f 256/76/76 248/75/75 255/77/77
f 248/75/75 247/78/78 255/77/77
f 255/77/77 247/78/78 254/73/73
f 254/73/73 247/78/78 246/79/79
f 254/73/73 246/79/79 253/72/72
f 253/72/72 246/79/79 245/80/80
f 253/72/72 245/80/80 252/69/69
f 252/69/69 245/80/80 200/81/81
f 252/69/69 200/81/81 251/70/70
f 251/70/70 200/81/81 201/82/82
f 249/83/83 237/84/84 238/85/85
f 236/86/86 237/84/84 249/83/83
f 235/87/87 236/86/86 249/83/83
f 235/87/87 249/83/83 250/74/74
f 250/74/74 249/83/83 248/75/75
f 249/83/83 238/85/85 248/75/75
f 248/75/75 238/85/85 247/78/78
f 238/85/85 239/88/88 247/78/78
f 247/78/78 239/88/88 241/89/89
f 247/78/78 241/89/89 246/79/79
f 246/79/79 241/89/89 243/90/90
f 246/79/79 243/90/90 245/80/80
f 245/80/80 243/90/90 199/91/91
f 245/80/80 199/91/91 200/81/81
f 199/91/91 244/8/8 188/9/9
f 243/90/90 244/8/8 199/91/91
f 242/6/6 244/8/8 243/90/90
f 241/89/89 242/6/6 243/90/90
f 241/89/89 240/4/4 242/6/6
f 239/88/88 240/4/4 241/89/89
f 239/88/88 212/1/1 240/4/4
f 238/85/85 212/1/1 239/88/88
f 238/85/85 214/92/92 212/1/1
f 237/84/84 214/92/92 238/85/85
f 237/84/84 216/93/93 214/92/92
f 232/94/94 216/93/93 237/84/84
f 236/86/86 232/94/94 237/84/84
f 233/95/95 232/94/94 236/86/86
f 235/87/87 233/95/95 236/86/86
f 226/96/96 233/95/95 235/87/87
f 235/87/87 234/97/97 226/96/96
f 224/98/98 229/99/99 226/96/96
f 226/96/96 229/99/99 233/95/95
f 229/99/99 230/100/100 233/95/95
f 233/95/95 230/100/100 231/101/101
f 233/95/95 231/101/101 232/94/94
f 232/94/94 218/102/102 216/93/93
f 231/101/101 218/102/102 232/94/94
f 231/101/101 228/103/103 218/102/102
f 230/100/100 228/103/103 231/101/101
f 230/100/100 219/104/104 228/103/103
f 220/105/105 219/104/104 230/100/100
f 229/99/99 220/105/105 230/100/100
f 221/106/106 220/105/105 229/99/99
f 224/98/98 221/106/106 229/99/99
f 222/107/107 221/106/106 224/98/98
f 228/103/103 219/104/104 218/102/102
f 226/96/96 227/108/108 225/109/109
f 226/96/96 225/109/109 224/98/98
f 224/98/98 225/109/109 223/110/110
f 224/98/98 223/110/110 222/107/107
f 222/107/107 223/110/110 211/111/111
f 211/111/111 221/106/106 222/107/107
f 211/111/111 208/112/112 221/106/106
f 208/112/112 220/105/105 221/106/106
f 208/112/112 209/113/113 220/105/105
f 209/113/113 219/104/104 220/105/105
f 209/113/113 210/17/17 219/104/104
f 218/102/102 219/104/104 210/17/17
f 218/102/102 210/17/17 217/15/15
f 218/102/102 217/15/15 216/93/93
f 216/93/93 217/15/15 215/13/13
f 216/93/93 215/13/13 214/92/92
f 214/92/92 215/13/13 213/2/2
f 214/92/92 213/2/2 212/1/1
f 207/114/114 208/112/112 211/111/111
f 197/16/16 210/17/17 209/113/113
f 198/115/115 197/16/16 209/113/113
f 198/115/115 209/113/113 208/112/112
f 207/114/114 198/115/115 208/112/112
f 207/114/114 196/116/116 198/115/115
f 206/117/117 196/116/116 207/114/114
f 205/118/118 196/116/116 206/117/117
f 205/118/118 194/119/119 196/116/116
f 204/120/120 194/119/119 205/118/118
f 204/120/120 192/121/121 194/119/119
f 203/122/122 192/121/121 204/120/120
f 202/123/123 192/121/121 203/122/122
f 202/123/123 190/124/124 192/121/121
f 201/82/82 190/124/124 202/123/123
f 201/82/82 189/125/125 190/124/124
f 201/82/82 200/81/81 189/125/125
f 200/81/81 188/9/9 189/125/125
f 200/81/81 199/91/91 188/9/9
f 196/116/116 197/16/16 198/115/115
f 196/116/116 195/14/14 197/16/16
f 194/119/119 195/14/14 196/116/116
f 194/119/119 193/12/12 195/14/14
f 192/121/121 193/12/12 194/119/119
f 192/121/121 191/11/11 193/12/12
f 190/124/124 191/11/11 192/121/121
f 190/124/124 187/10/10 191/11/11
f 189/125/125 187/10/10 190/124/124
f 189/125/125 188/9/9 187/10/10
f 186/126/126 185/127/127 175/128/128
f 179/129/129 180/130/130 177/131/131
f 175/128/128 177/131/131 180/130/130
f 175/128/128 180/130/130 186/126/126
f 186/126/126 180/130/130 181/132/132
f 181/132/132 182/133/133 186/126/126
f 186/126/126 182/133/133 185/127/127
f 183/134/134 185/127/127 182/133/133
f 184/135/135 185/127/127 183/134/134
f 184/135/135 160/136/136 185/127/127
f 175/128/128 185/127/127 160/136/136
f 175/128/128 160/136/136 163/137/137
f 159/138/138 160/136/136 184/135/135
f 184/135/135 174/139/139 159/138/138
f 183/134/134 174/139/139 184/135/135
f 183/134/134 173/140/140 174/139/139
f 183/134/134 172/141/141 173/140/140
f 183/134/134 182/133/133 172/141/141
f 172/141/141 182/133/133 171/142/142
f 181/132/132 171/142/142 182/133/133
f 169/143/143 171/142/142 181/132/132
f 181/132/132 180/130/130 169/143/143
f 169/143/143 180/130/130 167/144/144
f 179/129/129 167/144/144 180/130/130
f 179/129/129 165/145/74 167/144/144
f 178/146/87 165/145/74 179/129/129
f 179/129/129 177/131/131 178/146/87
f 178/146/87 177/131/131 176/147/145
f 175/128/128 176/147/145 177/131/131
f 163/137/137 176/147/145 175/128/128
f 159/138/138 152/148/146 156/149/147
f 159/138/138 151/150/148 152/148/146
f 174/139/139 151/150/148 159/138/138
f 174/139/139 150/151/149 151/150/148
f 174/139/139 173/140/140 150/151/149
f 173/140/140 149/152/150 150/151/149
f 172/141/141 149/152/150 173/140/140
f 172/141/141 155/61/61 149/152/150
f 171/142/142 155/61/61 172/141/141
f 170/57/57 155/61/61 171/142/142
f 169/143/143 170/57/57 171/142/142
f 168/55/55 170/57/57 169/143/143
f 169/143/143 167/144/144 168/55/55
f 168/55/55 167/144/144 166/59/59
f 166/59/59 167/144/144 165/145/74
f 166/59/59 165/145/74 164/51/51
f 164/51/51 165/145/74 61/153/76
f 61/153/76 60/47/47 164/51/51
f 163/137/137 160/136/136 161/154/151
f 156/149/147 157/155/152 162/156/153
f 162/156/153 161/154/151 156/149/147
f 156/149/147 161/154/151 160/136/136
f 156/149/147 160/136/136 159/138/138
f 137/157/154 129/158/117 158/159/155
f 137/157/154 158/159/155 154/160/156
f 154/160/156 158/159/155 157/155/152
f 154/160/156 157/155/152 156/149/147
f 154/160/156 156/149/147 152/148/146
f 155/61/61 148/63/63 149/152/150
f 138/161/157 137/157/154 153/162/158
f 153/162/158 137/157/154 154/160/156
f 154/160/156 152/148/146 153/162/158
f 153/162/158 152/148/146 138/161/157
f 138/161/157 152/148/146 151/150/148
f 138/161/157 151/150/148 150/151/149
f 138/161/157 150/151/149 139/163/159
f 150/151/149 140/164/160 139/163/159
f 150/151/149 149/152/150 140/164/160
f 149/152/150 141/165/161 140/164/160
f 149/152/150 148/63/63 141/165/161
f 142/166/162 141/165/161 148/63/63
f 142/166/162 148/63/63 147/65/65
f 147/65/65 143/167/163 142/166/162
f 147/65/65 146/27/27 143/167/163
f 144/168/164 143/167/163 146/27/27
g ValveBiped.Bip01_L_Calf
f 144/168/164 146/27/27 145/26/26
f 145/26/26 82/169/165 144/168/164
f 145/26/26 76/46/46 82/169/165
f 76/46/46 75/170/166 82/169/165
f 144/168/164 82/169/165 80/171/167
f 144/168/164 80/171/167 107/172/168
f 107/172/168 143/167/163 144/168/164
g ValveBiped.Bip01_L_Foot
f 107/172/168 109/173/169 143/167/163
f 142/166/162 143/167/163 109/173/169
f 142/166/162 109/173/169 111/174/170
f 111/174/170 141/165/161 142/166/162
f 111/174/170 113/175/171 141/165/161
f 140/164/160 141/165/161 113/175/171
f 140/164/160 113/175/171 115/176/172
f 139/163/159 140/164/160 115/176/172
f 139/163/159 115/176/172 133/177/173
f 138/161/157 139/163/159 133/177/173
f 138/161/157 133/177/173 136/178/174
f 138/161/157 136/178/174 137/157/154
f 136/178/174 135/179/175 137/157/154
f 137/157/154 135/179/175 129/158/117
f 135/179/175 117/180/176 129/158/117
f 136/178/174 133/177/173 134/181/177
f 136/178/174 134/181/177 135/179/175
f 134/181/177 117/180/176 135/179/175
f 134/181/177 119/182/178 117/180/176
f 133/177/173 119/182/178 134/181/177
f 133/177/173 116/183/179 119/182/178
f 133/177/173 115/176/172 116/183/179
f 126/184/180 125/185/181 132/186/182
f 132/186/182 127/187/120 126/184/180
f 132/186/182 130/188/183 127/187/120
f 131/189/184 127/187/120 130/188/183
f 129/158/117 117/180/176 128/190/185
f 117/180/176 127/187/120 128/190/185
f 126/184/180 127/187/120 117/180/176
f 117/180/176 118/191/186 126/184/180
f 126/184/180 118/191/186 125/185/181
f 112/192/187 125/185/181 118/191/186
f 112/192/187 124/193/188 125/185/181
f 112/192/187 110/194/189 124/193/188
f 110/194/189 123/195/190 124/193/188
g ValveBiped.Bip01_L_Calf
f 108/196/191 123/195/190 110/194/189
f 108/196/191 122/197/192 123/195/190
f 108/196/191 106/198/193 122/197/192
f 106/198/193 121/199/194 122/197/192
f 106/198/193 105/200/195 121/199/194
f 120/201/196 121/199/194 105/200/195
f 120/201/196 105/200/195 104/202/197
f 104/202/197 103/203/198 120/201/196
f 104/202/197 101/204/199 103/203/198
g ValveBiped.Bip01_L_Foot
f 112/192/187 118/191/186 114/205/200
f 116/183/179 114/205/200 118/191/186
f 116/183/179 118/191/186 119/182/178
f 119/182/178 118/191/186 117/180/176
f 115/176/172 114/205/200 116/183/179
f 115/176/172 113/175/171 114/205/200
f 112/192/187 114/205/200 113/175/171
f 112/192/187 113/175/171 111/174/170
f 111/174/170 110/194/189 112/192/187
f 111/174/170 109/173/169 110/194/189
f 108/196/191 110/194/189 109/173/169
g ValveBiped.Bip01_L_Calf
f 108/196/191 109/173/169 107/172/168
f 107/172/168 106/198/193 108/196/191
f 107/172/168 80/171/167 106/198/193
f 80/171/167 105/200/195 106/198/193
f 80/171/167 91/206/201 105/200/195
f 104/202/197 105/200/195 91/206/201
f 104/202/197 91/206/201 90/207/202
f 90/207/202 101/204/199 104/202/197
f 99/208/203 101/204/199 90/207/202
f 99/208/203 90/207/202 83/209/204
f 99/208/203 83/209/204 84/210/205
f 103/203/198 101/204/199 102/211/206
g ValveBiped.Bip01_L_Thigh
f 102/211/206 101/204/199 100/212/207
g ValveBiped.Bip01_L_Calf
f 99/208/203 100/212/207 101/204/199
g ValveBiped.Bip01_L_Thigh
f 99/208/203 98/213/208 100/212/207
g ValveBiped.Bip01_L_Calf
f 84/210/205 98/213/208 99/208/203
g ValveBiped.Bip01_L_Thigh
f 84/210/205 97/214/209 98/213/208
g ValveBiped.Bip01_L_Calf
f 85/215/210 97/214/209 84/210/205
g ValveBiped.Bip01_L_Thigh
f 85/215/210 96/216/211 97/214/209
g ValveBiped.Bip01_L_Calf
f 86/217/212 96/216/211 85/215/210
g ValveBiped.Bip01_L_Thigh
f 86/217/212 95/218/213 96/216/211
g ValveBiped.Bip01_L_Calf
f 87/219/214 95/218/213 86/217/212
g ValveBiped.Bip01_L_Thigh
f 87/219/214 94/220/215 95/218/213
g ValveBiped.Bip01_L_Calf
f 88/221/216 94/220/215 87/219/214
g ValveBiped.Bip01_L_Thigh
f 88/221/216 93/222/217 94/220/215
g ValveBiped.Bip01_L_Calf
f 89/223/218 93/222/217 88/221/216
g ValveBiped.Bip01_L_Thigh
f 89/223/218 92/224/219 93/222/217
g ValveBiped.Bip01_L_Calf
f 43/225/220 92/224/219 89/223/218
g ValveBiped.Bip01_L_Thigh
f 43/225/220 18/226/221 92/224/219
g ValveBiped.Bip01_L_Calf
f 80/171/167 81/227/222 91/206/201
f 90/207/202 91/206/201 81/227/222
f 90/207/202 81/227/222 83/209/204
f 79/228/223 49/229/224 42/230/225
f 43/225/220 79/228/223 42/230/225
f 89/223/218 79/228/223 43/225/220
f 89/223/218 67/231/226 79/228/223
f 88/221/216 67/231/226 89/223/218
f 88/221/216 68/232/227 67/231/226
f 87/219/214 68/232/227 88/221/216
f 87/219/214 70/233/228 68/232/227
f 86/217/212 70/233/228 87/219/214
f 86/217/212 72/234/229 70/233/228
f 85/215/210 72/234/229 86/217/212
f 85/215/210 74/235/230 72/234/229
f 84/210/205 74/235/230 85/215/210
f 84/210/205 83/209/204 74/235/230
f 83/209/204 75/170/166 74/235/230
f 83/209/204 81/227/222 75/170/166
f 82/169/165 75/170/166 81/227/222
f 82/169/165 81/227/222 80/171/167
f 67/231/226 65/236/231 79/228/223
f 79/228/223 65/236/231 49/229/224
f 78/45/45 73/237/232 76/46/46
f 77/44/44 73/237/232 78/45/45
f 77/44/44 71/238/233 73/237/232
f 77/44/44 69/43/43 71/238/233
f 76/46/46 73/237/232 75/170/166
f 74/235/230 75/170/166 73/237/232
f 74/235/230 73/237/232 72/234/229
f 72/234/229 73/237/232 71/238/233
f 72/234/229 71/238/233 70/233/228
f 70/233/228 71/238/233 69/43/43
f 70/233/228 69/43/43 68/232/227
f 68/232/227 69/43/43 66/42/42
f 68/232/227 66/42/42 67/231/226
f 67/231/226 66/42/42 65/236/231
f 64/41/41 65/236/231 66/42/42
f 64/41/41 49/229/224 65/236/231
f 63/40/40 49/229/224 64/41/41
f 50/239/234 49/229/224 63/40/40
f 62/39/39 50/239/234 63/40/40
f 62/39/39 51/240/235 50/239/234
f 62/39/39 54/38/38 51/240/235
g ValveBiped.Bip01_L_Foot
f 52/241/236 51/240/235 54/38/38
f 61/153/76 59/242/237 60/47/47
f 59/242/237 58/48/48 60/47/47
f 57/243/238 58/48/48 59/242/237
f 57/243/238 56/37/37 58/48/48
f 55/244/239 56/37/37 57/243/238
f 55/244/239 54/38/38 56/37/37
f 53/245/240 54/38/38 55/244/239
f 53/245/240 52/241/236 54/38/38
f 48/246/241 52/241/236 53/245/240
f 48/246/241 47/247/242 52/241/236
f 47/247/242 51/240/235 52/241/236
g ValveBiped.Bip01_L_Calf
f 38/248/243 51/240/235 47/247/242
f 38/248/243 50/239/234 51/240/235
f 38/248/243 39/249/244 50/239/234
f 39/249/244 40/250/245 50/239/234
f 50/239/234 40/250/245 41/251/246
f 50/239/234 41/251/246 49/229/224
f 42/230/225 49/229/224 41/251/246
g ValveBiped.Bip01_L_Foot
f 45/252/123 47/247/242 48/246/241
f 45/252/123 37/253/247 47/247/242
f 47/247/242 37/253/247 38/248/243
f 46/254/184 36/255/248 45/252/123
f 45/252/123 36/255/248 37/253/247
f 34/256/249 35/257/182 44/258/250
g ValveBiped.Bip01_L_Calf
f 20/259/251 18/226/221 43/225/220
f 43/225/220 42/230/225 20/259/251
f 20/259/251 42/230/225 33/260/252
f 42/230/225 41/251/246 33/260/252
f 33/260/252 41/251/246 32/261/253
f 32/261/253 41/251/246 40/250/245
f 32/261/253 40/250/245 25/262/254
f 39/249/244 25/262/254 40/250/245
f 26/263/255 25/262/254 39/249/244
f 38/248/243 26/263/255 39/249/244
f 38/248/243 31/264/256 26/263/255
f 38/248/243 37/253/247 31/264/256
g ValveBiped.Bip01_L_Foot
f 30/265/257 31/264/256 37/253/247
f 30/265/257 37/253/247 36/255/248
f 30/265/257 36/255/248 29/266/258
f 29/266/258 36/255/248 35/257/182
f 29/266/258 35/257/182 34/256/249
f 29/266/258 34/256/249 11/267/259
g ValveBiped.Bip01_L_Calf
f 20/259/251 33/260/252 21/268/260
f 21/268/260 33/260/252 32/261/253
f 21/268/260 32/261/253 23/269/261
f 23/269/261 32/261/253 24/270/262
f 32/261/253 25/262/254 24/270/262
f 27/271/263 26/263/255 31/264/256
f 27/271/263 31/264/256 30/265/257
f 30/265/257 28/272/264 27/271/263
g ValveBiped.Bip01_L_Foot
f 30/265/257 29/266/258 28/272/264
g ValveBiped.Bip01_L_Calf
f 29/266/258 11/267/259 28/272/264
f 28/272/264 11/267/259 12/273/265
f 27/271/263 28/272/264 12/273/265
f 27/271/263 12/273/265 17/274/266
f 27/271/263 17/274/266 26/263/255
f 17/274/266 13/275/267 26/263/255
f 26/263/255 13/275/267 25/262/254
f 14/276/268 25/262/254 13/275/267
f 24/270/262 25/262/254 14/276/268
f 15/277/269 24/270/262 14/276/268
f 23/269/261 24/270/262 15/277/269
f 15/277/269 16/278/270 23/269/261
g ValveBiped.Bip01_L_Thigh
f 23/269/261 16/278/270 22/279/271
g ValveBiped.Bip01_L_Calf
f 23/269/261 22/279/271 21/268/260
g ValveBiped.Bip01_L_Thigh
f 21/268/260 22/279/271 19/280/272
g ValveBiped.Bip01_L_Calf
f 21/268/260 19/280/272 20/259/251
g ValveBiped.Bip01_L_Thigh
f 20/259/251 19/280/272 18/226/221
g ValveBiped.Bip01_L_Calf
f 12/273/265 13/275/267 17/274/266
g ValveBiped.Bip01_L_Thigh
f 15/277/269 5/281/273 16/278/270
g ValveBiped.Bip01_L_Calf
f 15/277/269 6/282/274 5/281/273
f 15/277/269 14/276/268 6/282/274
f 7/283/275 6/282/274 14/276/268
f 14/276/268 13/275/267 7/283/275
f 7/283/275 13/275/267 9/284/276
f 12/273/265 9/284/276 13/275/267
f 10/285/277 9/284/276 12/273/265
f 12/273/265 11/267/259 10/285/277
f 10/285/277 8/286/278 9/284/276
f 7/283/275 9/284/276 8/286/278
f 7/283/275 8/286/278 2/287/279
f 7/283/275 2/287/279 3/288/280
f 3/288/280 6/282/274 7/283/275
f 3/288/280 4/289/281 6/282/274
g ValveBiped.Bip01_Pelvis
f 6/282/274 4/289/281 5/281/273
g ValveBiped.Bip01_L_Calf
f 3/288/280 2/287/279 1/290/282
