# Blender 4.5.4 LTS
# www.blender.org
mtllib pecera1.mtl
o Cube
v -28.985846 -0.304519 -9.427205
v -28.985846 6.119818 -9.427205
v -28.985846 -0.304519 -26.787052
v -28.985846 6.119818 -26.787052
v -12.687696 -0.304519 -9.427205
v -12.687696 6.119818 -9.427205
v -12.687696 -0.304519 -26.787052
v -12.687696 6.119818 -26.787052
vn -0.0000 -0.0000 -1.0000
vn 1.0000 -0.0000 -0.0000
vn -0.0000 -0.0000 1.0000
vt 0.375000 0.250000
vt 0.625000 0.250000
vt 0.625000 0.500000
vt 0.375000 0.500000
vt 0.625000 0.750000
vt 0.375000 0.750000
vt 0.625000 1.000000
vt 0.375000 1.000000
s 0
usemtl Material.020
f 3/1/1 4/2/1 8/3/1 7/4/1
f 7/4/2 8/3/2 6/5/2 5/6/2
f 5/6/3 6/5/3 2/7/3 1/8/3
