# Blender 4.5.4 LTS
# www.blender.org
mtllib pingu_body.mtl
o pinguin_001
v 0.000000 0.026210 0.513352
v 0.000000 0.606468 0.322047
v 0.109213 0.026210 0.410501
v 0.094837 0.608129 0.305121
v 0.172624 0.599108 0.233241
v 0.188181 0.026210 0.133333
v 0.216406 0.603574 0.133451
v 0.069669 0.027063 -0.078203
v 0.000000 0.984166 -0.182758
v 0.000000 0.026210 0.155719
v 0.038321 0.026210 0.153337
v 0.179698 0.240565 0.254992
v 0.220188 0.237217 0.147209
v 0.180039 0.247068 -0.002486
v 0.064298 0.243978 -0.040653
v 0.000000 0.243860 -0.047571
v 0.103132 0.239871 0.326408
v 0.000000 0.240979 0.341112
v 0.195810 0.912258 0.112427
v 0.182470 0.944385 -0.025210
v 0.161901 0.941153 0.191355
v 0.096250 0.961488 0.245203
v 0.000000 0.966442 0.252891
v 0.124337 0.969710 -0.114289
v 0.211050 0.800219 0.138192
v 0.163873 1.015828 0.095194
v 0.188181 0.000000 0.133333
v 0.183635 0.000012 0.011093
v 0.069669 0.000356 -0.078849
v 0.038321 0.000000 0.153337
v 0.149027 0.026977 -0.135440
v 0.108203 0.027118 -0.135736
v 0.149027 0.000302 -0.136044
v 0.108203 0.000391 -0.136409
v 0.069518 0.642144 -0.155868
v 0.000000 0.638839 -0.182785
v 0.108691 1.106570 0.089460
v 0.000000 1.123513 0.118295
v 0.139127 1.064297 0.006817
v 0.057952 1.119605 0.111172
v 0.000000 1.062932 0.193251
v 0.140189 1.048940 0.130779
v 0.077385 1.058017 0.187873
v 0.162958 1.002765 0.032090
v 0.144450 1.024839 -0.041851
v 0.137817 0.419638 -0.085273
v 0.127947 1.084157 0.049253
v 0.060246 0.980720 -0.163288
v 0.053160 1.037675 -0.145141
v 0.000000 1.041943 -0.161871
v 0.104158 1.026330 -0.109353
v 0.000000 0.838082 0.293976
v 0.175715 0.815285 0.218711
v 0.099400 0.835228 0.285066
v 0.070101 0.891814 -0.171802
v 0.144184 0.881095 -0.119446
v 0.142921 0.643935 -0.114474
v 0.000000 0.404362 0.329915
v 0.102025 0.406307 0.320449
v 0.181611 0.402652 0.240198
v 0.218297 0.406414 0.130250
v 0.069523 0.420587 -0.119746
v 0.000000 0.421774 -0.130430
v 0.125051 0.243421 -0.029898
v 0.000000 0.121907 0.410101
v 0.062978 0.124327 0.410101
v 0.181277 0.135020 0.012606
v 0.065825 0.134231 -0.036870
v 0.115150 0.126444 0.364275
v 0.177746 0.131260 0.274538
v 0.204185 0.131269 0.145705
v 0.000000 0.134662 -0.039596
v 0.052577 0.026210 0.505959
v 0.127048 0.135017 -0.028208
v 0.133429 0.026821 -0.045868
v 0.000000 0.026210 0.387949
v 0.178920 0.419432 -0.058494
v 0.178933 0.637543 -0.072601
v 0.192977 0.861690 -0.048273
v 0.183635 0.026391 0.011314
v 0.000000 0.026778 -0.032525
v -0.109213 0.026210 0.410501
v -0.094837 0.608129 0.305121
v -0.172624 0.599108 0.233241
v -0.188181 0.026210 0.133333
v -0.216406 0.603574 0.133451
v -0.069669 0.027063 -0.078203
v -0.038321 0.026210 0.153337
v -0.179698 0.240565 0.254992
v -0.220188 0.237217 0.147209
v -0.180039 0.247068 -0.002486
v -0.064298 0.243978 -0.040653
v -0.103132 0.239871 0.326408
v -0.195810 0.912258 0.112427
v -0.182469 0.944385 -0.025210
v -0.161901 0.941153 0.191355
v -0.096250 0.961488 0.245203
v -0.124337 0.972793 -0.114013
v -0.211050 0.800219 0.138192
v -0.163873 1.015828 0.095194
v -0.188181 0.000000 0.133333
v -0.183635 0.000012 0.011093
v -0.069669 0.000356 -0.078849
v -0.038321 0.000000 0.153337
v -0.149027 0.026977 -0.135440
v -0.108203 0.027118 -0.135736
v -0.149027 0.000302 -0.136044
v -0.108203 0.000391 -0.136409
v -0.069518 0.642144 -0.155868
v -0.108691 1.106570 0.089460
v -0.139127 1.064297 0.006817
v -0.057952 1.119605 0.111172
v -0.140189 1.048940 0.130779
v -0.077385 1.058017 0.187873
v -0.162957 1.002765 0.032090
v -0.144450 1.024839 -0.041851
v -0.137817 0.419638 -0.085273
v -0.127947 1.084157 0.049253
v -0.060246 0.979340 -0.163472
v -0.053160 1.039469 -0.144543
v -0.104158 1.026330 -0.109353
v -0.175715 0.815285 0.218711
v -0.099400 0.835228 0.285066
v -0.070101 0.891814 -0.171802
v -0.144184 0.881095 -0.119446
v -0.142920 0.643935 -0.114474
v -0.102025 0.406307 0.320449
v -0.181611 0.402652 0.240198
v -0.218297 0.406414 0.130250
v -0.069523 0.420587 -0.119746
v -0.125051 0.243421 -0.029898
v -0.062978 0.124327 0.410101
v -0.181277 0.135020 0.012606
v -0.065825 0.134231 -0.036870
v -0.115150 0.126444 0.364275
v -0.177746 0.131260 0.274538
v -0.204185 0.131269 0.145705
v -0.052577 0.026210 0.505959
v -0.127048 0.135017 -0.028208
v -0.133429 0.026821 -0.045868
v -0.178920 0.419432 -0.058494
v -0.178933 0.637543 -0.072601
v -0.192977 0.861690 -0.048273
v -0.183635 0.026391 0.011314
v 0.000000 0.893741 -0.194877
v 0.183722 0.026156 0.162997
v 0.163372 0.025963 0.284943
v -0.183722 0.026156 0.162997
v -0.163372 0.025963 0.284943
v 0.000000 0.026210 0.284855
v 0.000000 0.026210 0.180524
v 0.056647 0.000208 0.017601
v 0.056647 0.026708 0.017979
v 0.000000 0.026614 0.021673
v -0.056647 0.000208 0.017601
v -0.056647 0.026708 0.017979
v -0.161764 0.026761 -0.081432
v -0.161763 0.000195 -0.081895
v 0.161763 0.000195 -0.081895
v 0.161764 0.026761 -0.081432
v 0.000000 0.322670 0.335514
v 0.102578 0.323089 0.323428
v 0.180655 0.321608 0.247595
v 0.219243 0.321815 0.138729
v 0.179479 0.333250 -0.030490
v 0.066910 0.332283 -0.080199
v 0.131434 0.331530 -0.057586
v 0.000000 0.332817 -0.089000
v -0.102578 0.323089 0.323428
v -0.180655 0.321608 0.247595
v -0.219243 0.321815 0.138729
v -0.179479 0.333250 -0.030490
v -0.066910 0.332283 -0.080199
v -0.131434 0.331530 -0.057586
v 0.178927 0.528488 -0.065547
v 0.140369 0.531786 -0.099873
v 0.000000 0.505415 0.325981
v 0.098431 0.507218 0.312785
v 0.177118 0.500880 0.236719
v 0.217352 0.504994 0.131851
v 0.069520 0.531366 -0.137807
v 0.000000 0.530307 -0.156608
v -0.178927 0.528488 -0.065547
v -0.140369 0.531786 -0.099873
v -0.098431 0.507218 0.312785
v -0.177118 0.500880 0.236719
v -0.217352 0.504994 0.131851
v -0.069520 0.531366 -0.137807
v 0.185955 0.749617 -0.060437
v 0.213728 0.701896 0.135822
v 0.097119 0.721679 0.295094
v 0.143552 0.762515 -0.116960
v 0.069810 0.766979 -0.163835
v 0.174170 0.707196 0.225976
v 0.000000 0.722275 0.308012
v 0.000000 0.766290 -0.188831
v -0.185955 0.749617 -0.060437
v -0.213728 0.701896 0.135822
v -0.097119 0.721679 0.295094
v -0.143552 0.762515 -0.116960
v -0.069809 0.766979 -0.163835
v -0.174170 0.707196 0.225976
vn -0.0018 -1.0000 -0.0017
vn -0.0019 -1.0000 -0.0017
vn 0.0013 -1.0000 -0.0033
vn 0.0001 -1.0000 -0.0019
vn -0.0000 -1.0000 -0.0021
vn -0.0000 -1.0000 -0.0033
vn 0.9909 0.0016 -0.1343
vn 0.9734 0.0038 -0.2292
vn 0.9920 -0.0178 -0.1250
vn -0.0005 0.2362 -0.9717
vn -0.0044 0.3387 -0.9409
vn 0.4529 0.3147 -0.8342
vn 0.4599 0.2293 -0.8579
vn 0.4208 0.0776 0.9038
vn -0.0000 0.1030 0.9947
vn -0.0000 0.0810 0.9967
vn 0.4323 0.0722 0.8988
vn 0.9835 -0.0688 -0.1675
vn 0.9956 -0.0869 0.0353
vn 0.9974 -0.0724 -0.0051
vn 0.7513 0.5425 0.3758
vn 0.6758 0.6540 0.3399
vn 0.2952 0.7629 0.5752
vn 0.3449 0.6370 0.6894
vn -0.9910 0.0018 -0.1340
vn -0.9910 0.0010 -0.1340
vn -0.9361 0.0083 -0.3516
vn -0.4708 0.0213 -0.8820
vn -0.4639 0.0214 -0.8856
vn -0.9340 0.0084 -0.3572
vn 0.0038 1.0000 0.0027
vn 0.0044 1.0000 0.0019
vn 0.0040 1.0000 0.0024
vn -0.0012 -1.0000 -0.0012
vn -0.0012 -1.0000 -0.0013
vn -0.0008 -1.0000 -0.0009
vn 0.6204 0.0182 -0.7841
vn 0.6268 0.0180 -0.7789
vn 0.4359 0.0671 0.8975
vn -0.0000 0.0597 0.9982
vn -0.0000 0.4185 0.9082
vn -0.0000 0.2054 0.9787
vn 0.4019 0.1833 0.8971
vn 0.3973 0.4037 0.8241
vn -0.0005 -1.0000 -0.0010
vn -0.0000 -1.0000 -0.0010
vn -0.0003 -1.0000 -0.0011
vn 0.8341 0.0499 0.5493
vn 0.8171 0.0411 0.5751
vn 0.9817 -0.0006 -0.1905
vn 0.9850 -0.0052 -0.1724
vn 0.9936 0.0090 0.1122
vn 0.9961 0.0149 0.0874
vn 0.8133 0.1224 0.5688
vn 0.7976 0.3175 0.5129
vn 0.9900 -0.0107 -0.1406
vn 0.9924 -0.0120 -0.1223
vn 0.9773 0.0594 0.2034
vn 0.9911 0.0021 0.1333
vn 0.1323 -0.0000 0.9912
vn 0.9993 0.0002 -0.0372
vn -0.0000 0.3102 0.9507
vn -0.0000 0.6324 0.7747
vn 0.3929 0.5204 0.7582
vn 0.4821 0.2138 0.8496
vn -0.9909 0.0016 -0.1343
vn -0.9920 -0.0178 -0.1250
vn -0.9734 0.0038 -0.2292
vn 0.2122 -0.3854 -0.8980
vn 0.2917 -0.2744 -0.9163
vn 0.4863 -0.2136 -0.8473
vn 0.3928 -0.3188 -0.8626
vn -0.0000 -0.4169 -0.9089
vn 0.1470 -0.2167 -0.9651
vn -0.0000 -0.2418 -0.9703
vn 0.0008 -1.0000 -0.0009
vn 0.0012 -1.0000 -0.0013
vn 0.0012 -1.0000 -0.0012
vn 0.3655 -0.1633 -0.9164
vn 0.4153 -0.1032 -0.9038
vn 0.6300 -0.0614 -0.7741
vn 0.5688 -0.1078 -0.8154
vn -0.0000 -0.1977 -0.9803
vn -0.0000 -0.3055 -0.9522
vn 0.7093 0.3070 -0.6346
vn 0.7328 0.2521 -0.6320
vn -0.0000 0.7855 0.6189
vn -0.0000 0.6655 0.7464
vn 0.9194 0.3866 -0.0729
vn 0.8851 0.4643 0.0319
vn 0.9021 0.4051 0.1489
vn 0.9202 0.3828 -0.0821
vn 0.4998 -0.1680 -0.8497
vn 0.6130 0.0197 -0.7899
vn 0.4342 0.0723 -0.8979
vn 0.3550 -0.1833 -0.9167
vn 0.9147 0.2505 0.3171
vn 0.8712 0.2927 -0.3941
vn 0.8906 0.3449 -0.2963
vn 0.6780 -0.0202 -0.7348
vn 0.7234 0.0945 -0.6839
vn 0.8316 0.1087 -0.5447
vn 0.7975 -0.0011 -0.6034
vn 0.4574 0.0526 -0.8877
vn -0.0000 0.0393 -0.9992
vn 0.8119 0.0310 0.5829
vn 0.4388 -0.0457 -0.8974
vn -0.0000 -0.0559 -0.9984
vn -0.0000 -0.1273 -0.9919
vn 0.9986 -0.0049 0.0523
vn 0.9985 0.0040 0.0542
vn 0.8476 0.0437 0.5289
vn 0.8412 0.0388 0.5394
vn 0.7638 0.2129 0.6094
vn 0.9113 0.0169 0.4113
vn 0.8604 0.0506 0.5071
vn 0.5521 -0.1892 -0.8120
vn 0.4785 -0.2817 -0.8317
vn 0.9727 -0.0403 -0.2287
vn 0.9784 -0.0161 -0.2061
vn 0.4304 0.0589 0.9007
vn 0.4292 0.0504 0.9018
vn 0.7448 -0.0403 -0.6661
vn 0.6539 -0.0812 -0.7522
vn 0.0597 0.0882 -0.9943
vn 0.4981 0.1858 -0.8470
vn 0.0109 0.2175 -0.9760
vn -0.0000 0.0468 -0.9989
vn -0.0006 -1.0000 0.0005
vn -0.0000 -1.0000 0.0005
vn -0.0000 -1.0000 -0.0000
vn -0.0009 -1.0000 -0.0002
vn 0.9981 -0.0376 0.0486
vn 0.9702 -0.0587 -0.2353
vn -0.0000 0.7158 0.6983
vn 0.2894 0.6417 0.7103
vn 0.8021 0.2410 0.5464
vn 0.6816 0.0909 -0.7260
vn 0.0034 1.0000 0.0032
vn -0.0000 0.1519 -0.9884
vn -0.0017 -1.0000 -0.0033
vn -0.0013 -1.0000 -0.0033
vn -0.9747 -0.1499 0.1661
vn -0.9370 -0.0394 0.3471
vn -0.9113 0.0169 0.4113
vn -0.9956 -0.0869 0.0353
vn -0.0001 -1.0000 -0.0019
vn -0.0000 0.0558 0.9984
vn -0.0000 0.0523 0.9986
vn -0.4582 0.2270 -0.8593
vn -0.4516 0.3142 -0.8350
vn -0.4208 0.0776 0.9038
vn -0.4323 0.0722 0.8988
vn -0.9974 -0.0724 -0.0051
vn -0.9835 -0.0688 -0.1675
vn 0.9370 -0.0394 0.3471
vn 0.9747 -0.1499 0.1661
vn -0.7513 0.5425 0.3758
vn -0.3449 0.6370 0.6894
vn -0.2952 0.7629 0.5752
vn -0.6758 0.6540 0.3399
vn 0.9910 0.0018 -0.1340
vn 0.9910 0.0010 -0.1340
vn 0.9361 0.0083 -0.3516
vn 0.9340 0.0084 -0.3572
vn 0.4639 0.0214 -0.8856
vn 0.4708 0.0213 -0.8820
vn -0.0038 1.0000 0.0027
vn -0.0034 1.0000 0.0032
vn -0.0040 1.0000 0.0024
vn 0.0018 -1.0000 -0.0017
vn 0.0019 -1.0000 -0.0017
vn -0.6268 0.0180 -0.7789
vn -0.6204 0.0182 -0.7841
vn -0.4359 0.0671 0.8975
vn -0.3973 0.4037 0.8241
vn -0.4019 0.1833 0.8971
vn 0.0006 -1.0000 0.0005
vn 0.0009 -1.0000 -0.0002
vn -0.8341 0.0499 0.5493
vn -0.8171 0.0411 0.5751
vn -0.9817 -0.0006 -0.1905
vn -0.9961 0.0149 0.0874
vn -0.9936 0.0090 0.1122
vn -0.9850 -0.0052 -0.1724
vn -0.7976 0.3175 0.5129
vn -0.8133 0.1224 0.5688
vn -0.9900 -0.0107 -0.1406
vn -0.9911 0.0021 0.1333
vn -0.9773 0.0594 0.2034
vn -0.9924 -0.0120 -0.1223
vn -0.1323 -0.0000 0.9912
vn -0.9993 0.0002 -0.0372
vn -0.4821 0.2138 0.8496
vn -0.3929 0.5204 0.7582
vn 0.0017 -1.0000 -0.0033
vn -0.8021 0.2410 0.5464
vn -0.7638 0.2129 0.6094
vn -0.2122 -0.3854 -0.8980
vn -0.3928 -0.3188 -0.8626
vn -0.4863 -0.2136 -0.8473
vn -0.2917 -0.2744 -0.9163
vn -0.1470 -0.2167 -0.9651
vn -0.3655 -0.1633 -0.9164
vn -0.5688 -0.1078 -0.8154
vn -0.6300 -0.0614 -0.7741
vn -0.4153 -0.1032 -0.9038
vn -0.7331 0.2557 -0.6302
vn -0.7057 0.3116 -0.6363
vn -0.9194 0.3866 -0.0729
vn -0.9202 0.3828 -0.0821
vn -0.9021 0.4051 0.1489
vn -0.8851 0.4643 0.0319
vn -0.4998 -0.1680 -0.8497
vn -0.3550 -0.1833 -0.9167
vn -0.4342 0.0723 -0.8979
vn -0.6130 0.0197 -0.7899
vn -0.9147 0.2505 0.3171
vn -0.8723 0.2924 -0.3919
vn -0.8904 0.3482 -0.2930
vn -0.6780 -0.0202 -0.7348
vn -0.7975 -0.0011 -0.6034
vn -0.8323 0.1072 -0.5439
vn -0.7234 0.0932 -0.6841
vn -0.4570 0.0523 -0.8879
vn -0.8119 0.0310 0.5829
vn -0.4388 -0.0457 -0.8974
vn -0.9986 -0.0049 0.0523
vn -0.8412 0.0388 0.5394
vn -0.8476 0.0437 0.5289
vn -0.9985 0.0040 0.0542
vn -0.8604 0.0506 0.5071
vn -0.4785 -0.2817 -0.8317
vn -0.5521 -0.1892 -0.8120
vn -0.9727 -0.0403 -0.2287
vn -0.9784 -0.0161 -0.2061
vn -0.4292 0.0504 0.9018
vn -0.4304 0.0589 0.9007
vn -0.6539 -0.0812 -0.7522
vn -0.7448 -0.0403 -0.6661
vn -0.0597 0.0882 -0.9943
vn -0.0109 0.2175 -0.9760
vn -0.4981 0.1858 -0.8470
vn 0.0005 -1.0000 -0.0010
vn 0.0003 -1.0000 -0.0011
vn -0.9981 -0.0376 0.0486
vn -0.9702 -0.0587 -0.2353
vn -0.2894 0.6417 0.7103
vn -0.6816 0.0909 -0.7260
vn -0.0044 1.0000 0.0019
vt 0.886852 0.559679
vt 0.886863 0.559691
vt 0.886863 0.559679
vt 0.886862 0.559684
vt 0.886855 0.559683
vt 0.886852 0.559685
vt 0.886852 0.559681
vt 0.886859 0.559683
vt 0.886852 0.559691
vt 0.679415 0.472210
vt 0.679568 0.471669
vt 0.679551 0.471751
vt 0.679378 0.472417
vt 0.886858 0.559686
vt 0.886852 0.559686
vt 0.886858 0.559685
vt 0.886863 0.559680
vt 0.886858 0.559680
vt 0.886858 0.559679
vt 0.886853 0.559689
vt 0.886880 0.559678
vt 0.886858 0.559689
vt 0.886857 0.559682
vt 0.886858 0.559684
vt 0.886852 0.559684
vt 0.886852 0.559688
vt 0.886852 0.559687
vt 0.886858 0.559687
vt 0.886858 0.559688
vt 0.886859 0.559682
vt 0.886863 0.559684
vt 0.886863 0.559685
vt 0.886863 0.559687
vt 0.886852 0.559680
vt 0.886855 0.559680
vt 0.886859 0.559687
vt 0.679094 0.473476
vt 0.679090 0.473441
vt 0.679110 0.473464
vt 0.679108 0.473493
vt 0.679089 0.473470
vt 0.679098 0.473511
vt 0.679094 0.473507
vt 0.679105 0.473430
vt 0.679120 0.473418
vt 0.679148 0.473442
vt 0.679129 0.473453
vt 0.679094 0.473418
vt 0.679084 0.473433
vt 0.679541 0.471909
vt 0.679216 0.473259
vt 0.886879 0.559678
vt 0.886852 0.559689
vt 0.679468 0.472493
vt 0.679528 0.472369
vt 0.679370 0.473147
vt 0.679351 0.473077
vt 0.679121 0.473533
vt 0.679146 0.473636
vt 0.679121 0.473617
vt 0.679105 0.473521
vt 0.679579 0.472265
vt 0.679418 0.473099
vt 0.886856 0.559689
vt 0.679289 0.473189
vt 0.679427 0.472521
vt 0.679176 0.473375
vt 0.679203 0.473308
vt 0.679244 0.473489
vt 0.679212 0.473478
vt 0.679214 0.473067
vt 0.679166 0.473195
vt 0.886863 0.559686
vt 0.679167 0.473243
vt 0.679135 0.473299
vt 0.679103 0.473402
vt 0.886858 0.559681
vt 0.886858 0.559683
vt 0.886863 0.559683
vt 0.679129 0.473480
vt 0.679125 0.473506
vt 0.886863 0.559681
vt 0.679180 0.473468
vt 0.679155 0.473474
vt 0.679116 0.473613
vt 0.679124 0.473675
vt 0.679104 0.473659
vt 0.679117 0.473614
vt 0.886852 0.559682
vt 0.886852 0.559683
vt 0.886854 0.559684
vt 0.679159 0.473702
vt 0.679132 0.473682
vt 0.886858 0.559691
s 1
usemtl material
f 29/1/1 34/2/2 33/3/2 159/4/1
f 153/5/3 11/1/4 10/6/5 154/7/6
f 28/3/7 159/4/8 160/8/8 80/9/9
f 9/10/10 50/11/11 49/12/12 48/13/13
f 191/14/14 195/15/15 2/6/16 4/16/17
f 80/9/9 67/17/18 71/18/19 6/19/20
f 42/20/21 37/21/22 40/21/23 43/22/24
f 153/5/25 152/23/25 30/3/26 11/1/26
f 8/1/27 32/2/28 34/2/29 29/1/30
f 8/1/31 75/6/32 80/9/32 160/8/33
f 152/23/34 28/3/35 27/3/36 30/3/36
f 159/4/8 33/3/37 31/3/38 160/8/8
f 178/24/39 4/16/17 2/6/16 177/25/40
f 23/26/41 52/27/42 54/28/43 22/29/44
f 146/30/45 151/6/46 10/6/5 11/1/4 6/19/47
f 179/31/48 5/6/49 4/16/17 178/24/39
f 175/31/50 78/32/51 7/16/52 180/24/53
f 22/29/44 54/28/43 53/33/54 21/26/55
f 180/24/53 7/16/52 5/6/49 179/31/48
f 189/32/56 79/32/57 25/28/58 190/16/59
f 11/1/60 30/3/60 27/3/60 6/19/60
f 6/19/20 27/3/61 28/3/7 80/9/9
f 31/3/38 33/3/37 34/2/29 32/2/28
f 18/34/62 65/34/63 66/35/64 17/18/65
f 102/9/66 144/1/67 157/8/68 158/36/68
f 166/37/69 62/38/70 46/39/71 167/40/72
f 168/41/73 166/37/69 15/42/74 16/43/75
f 101/3/76 102/9/77 155/30/78 104/3/76
f 181/44/79 35/45/80 57/46/81 176/47/82
f 182/48/83 181/44/79 62/38/70 63/49/84
f 49/12/12 51/50/85 24/51/86 48/13/13
f 43/22/24 40/21/23 38/52/87 41/53/88
f 22/29/44 43/22/24 41/53/88 23/26/41
f 39/54/89 47/55/90 26/56/91 44/57/92
f 21/26/55 42/20/21 43/22/24 22/29/44
f 14/58/93 67/59/94 74/60/95 64/61/96
f 26/56/91 47/55/90 37/62/22 42/63/21
f 19/29/97 26/64/91 42/20/21 21/26/55
f 20/65/98 45/66/99 39/54/89 44/57/92
f 192/67/100 56/68/101 79/69/102 189/70/103
f 9/10/10 48/13/13 55/71/104 145/72/105
f 194/73/106 191/14/14 4/16/17 5/6/49
f 190/16/59 194/73/106 5/6/49 7/16/52
f 19/29/97 21/26/55 53/33/54 25/28/58
f 193/74/107 55/71/104 56/68/101 192/67/100
f 196/75/108 193/74/107 35/45/80 36/76/109
f 51/50/85 45/66/99 20/65/98 24/51/86
f 56/68/101 55/71/104 48/13/13 24/51/86
f 164/77/110 61/78/111 60/79/112 163/7/113
f 17/18/65 69/18/114 70/17/115 12/34/116
f 167/40/72 46/39/71 77/80/117 165/81/118
f 165/82/119 77/79/120 61/78/111 164/77/110
f 163/7/113 60/79/112 59/78/121 162/77/122
f 79/69/102 56/68/101 24/51/86 20/65/98
f 176/47/82 57/46/81 78/83/123 175/84/124
f 68/85/125 74/60/95 75/86/126 8/87/127
f 68/85/125 72/88/128 16/43/75 15/42/74
f 66/35/64 69/18/114 17/18/65
f 3/19/129 76/89/130 150/90/131 147/32/132
f 70/17/115 71/18/19 13/18/133 12/34/116
f 71/18/19 67/17/18 14/17/134 13/18/133
f 1/1/135 73/91/136 66/35/64 65/34/63
f 66/35/64 73/91/136 3/19/137 69/18/114
f 64/61/96 74/60/95 68/85/125 15/42/74
f 75/86/126 74/60/95 67/59/94 80/92/138
f 32/2/139 8/1/31 160/8/33 31/3/139
f 76/89/130 3/19/129 73/91/131 1/1/131
f 8/87/127 81/93/140 72/88/128 68/85/125
f 87/1/141 81/1/6 154/7/6 156/5/142
f 148/30/143 149/2/144 136/34/145 137/18/146
f 156/5/142 154/7/6 10/6/5 88/16/147
f 162/77/122 59/78/121 58/90/148 161/7/149
f 9/10/10 119/13/150 120/12/151 50/11/11
f 199/14/152 83/16/153 2/6/16 195/15/15
f 144/1/67 85/19/154 137/18/146 133/17/155
f 71/18/19 70/17/115 147/32/156 146/30/157
f 113/20/158 114/22/159 112/21/160 110/21/161
f 156/5/162 88/16/163 104/3/163 155/30/162
f 87/1/164 103/19/165 108/2/166 106/9/167
f 87/1/168 106/9/169 105/1/169 157/8/170
f 158/36/171 107/3/172 108/2/172 103/19/171
f 158/36/68 157/8/68 105/1/173 107/3/174
f 185/24/175 177/25/40 2/6/16 83/16/153
f 23/26/41 97/29/176 123/28/177 52/27/42
f 76/89/130 82/94/178 149/2/179 150/90/131
f 186/31/180 185/24/175 83/16/153 84/6/181
f 183/31/182 187/24/183 86/16/184 142/32/185
f 97/29/176 96/26/186 122/33/187 123/28/177
f 187/24/183 186/31/180 84/6/181 86/16/184
f 197/32/188 198/16/189 99/28/190 143/32/191
f 88/16/192 85/19/192 101/3/192 104/3/192
f 85/19/154 144/1/67 102/9/66 101/3/193
f 105/1/173 106/9/167 108/2/166 107/3/174
f 18/34/62 93/18/194 132/35/195 65/34/63
f 8/1/196 153/5/3 154/7/6 81/1/6
f 136/34/145 149/2/144 82/94/197 135/18/198
f 173/37/199 174/40/200 117/39/201 130/38/202
f 168/41/73 16/43/75 92/42/203 173/37/199
f 8/1/27 29/1/30 152/23/25 153/5/25
f 188/44/204 184/47/205 126/46/206 109/45/207
f 182/48/83 63/49/84 130/38/202 188/44/204
f 120/12/151 119/13/150 98/51/208 121/50/209
f 114/22/159 41/53/88 38/52/87 112/21/160
f 97/29/176 23/26/41 41/53/88 114/22/159
f 111/54/210 115/57/211 100/56/212 118/55/213
f 96/26/186 97/29/176 114/22/159 113/20/158
f 91/58/214 131/61/215 139/60/216 133/59/217
f 100/56/212 113/63/158 110/62/161 118/55/213
f 94/29/218 96/26/186 113/20/158 100/64/212
f 95/65/219 115/57/211 111/54/210 116/66/220
f 200/67/221 197/70/222 143/69/223 125/68/224
f 9/10/10 145/72/105 124/71/225 119/13/150
f 202/73/226 84/6/181 83/16/153 199/14/152
f 198/16/189 86/16/184 84/6/181 202/73/226
f 94/29/218 99/28/190 122/33/187 96/26/186
f 201/74/227 200/67/221 125/68/224 124/71/225
f 196/75/108 36/76/109 109/45/207 201/74/227
f 121/50/209 98/51/208 95/65/219 116/66/220
f 125/68/224 98/51/208 119/13/150 124/71/225
f 171/77/228 170/7/229 128/79/230 129/78/231
f 93/18/194 89/34/232 136/34/145 135/18/198
f 174/40/200 172/81/233 141/80/234 117/39/201
f 172/82/235 171/77/228 129/78/231 141/79/236
f 170/7/229 169/77/237 127/78/238 128/79/230
f 143/69/223 95/65/219 98/51/208 125/68/224
f 184/47/205 183/84/239 142/83/240 126/46/206
f 134/85/241 87/87/242 140/86/243 139/60/216
f 134/85/241 92/42/203 16/43/75 72/88/128
f 132/35/195 93/18/194 135/18/198
f 151/6/46 148/30/244 85/19/245 88/16/147 10/6/5
f 136/34/145 89/34/232 90/18/246 137/18/146
f 137/18/146 90/18/246 91/17/247 133/17/155
f 1/1/135 65/34/63 132/35/195 138/91/248
f 132/35/195 135/18/198 82/94/197 138/91/248
f 131/61/215 92/42/203 134/85/241 139/60/216
f 140/86/243 144/92/249 133/59/217 139/60/216
f 140/6/250 87/1/168 157/8/170 144/1/250
f 76/89/130 1/1/131 138/91/131 82/94/178
f 87/87/242 134/85/241 72/88/128 81/93/140
f 85/19/154 148/30/143 137/18/146
f 6/19/20 71/18/19 146/30/157
f 151/6/46 146/30/45 147/32/132 150/90/131
f 148/30/244 151/6/46 150/90/131 149/2/179
f 70/17/115 69/18/114 3/19/137 147/32/156
f 87/1/164 156/5/162 155/30/162 103/19/165
f 102/9/77 158/36/171 103/19/171 155/30/78
f 152/23/34 29/1/1 159/4/1 28/3/35
f 169/77/237 161/7/149 58/90/148 127/78/238
f 93/18/194 18/34/62 161/7/149 169/77/237
f 89/34/232 93/18/194 169/77/237 170/7/229
f 91/17/247 90/18/246 171/77/228 172/82/235
f 131/61/215 91/58/214 172/81/233 174/40/200
f 90/18/246 89/34/232 170/7/229 171/77/228
f 63/49/84 168/41/73 173/37/199 130/38/202
f 92/42/203 131/61/215 174/40/200 173/37/199
f 17/18/65 162/77/122 161/7/149 18/34/62
f 12/34/116 163/7/113 162/77/122 17/18/65
f 14/17/134 165/82/119 164/77/110 13/18/133
f 64/61/96 167/40/72 165/81/118 14/58/93
f 13/18/133 164/77/110 163/7/113 12/34/116
f 63/49/84 62/38/70 166/37/69 168/41/73
f 15/42/74 166/37/69 167/40/72 64/61/96
f 117/39/201 141/80/234 183/84/239 184/47/205
f 36/76/109 182/48/83 188/44/204 109/45/207
f 130/38/202 117/39/201 184/47/205 188/44/204
f 129/78/231 128/79/230 186/31/180 187/24/183
f 141/79/236 129/78/231 187/24/183 183/31/182
f 128/79/230 127/78/238 185/24/175 186/31/180
f 127/78/238 58/90/148 177/25/40 185/24/175
f 46/39/71 176/47/82 175/84/124 77/80/117
f 36/76/109 35/45/80 181/44/79 182/48/83
f 62/38/70 181/44/79 176/47/82 46/39/71
f 61/78/111 180/24/53 179/31/48 60/79/112
f 77/79/120 175/31/50 180/24/53 61/78/111
f 60/79/112 179/31/48 178/24/39 59/78/121
f 59/78/121 178/24/39 177/25/40 58/90/148
f 145/72/105 196/75/108 201/74/227 124/71/225
f 109/45/207 126/46/206 200/67/221 201/74/227
f 99/28/190 198/16/189 202/73/226 122/33/187
f 122/33/187 202/73/226 199/14/152 123/28/177
f 126/46/206 142/83/240 197/70/222 200/67/221
f 142/32/185 86/16/184 198/16/189 197/32/188
f 123/28/177 199/14/152 195/15/15 52/27/42
f 145/72/105 55/71/104 193/74/107 196/75/108
f 35/45/80 193/74/107 192/67/100 57/46/81
f 25/28/58 53/33/54 194/73/106 190/16/59
f 53/33/54 54/28/43 191/14/14 194/73/106
f 57/46/81 192/67/100 189/70/103 78/83/123
f 78/32/51 189/32/56 190/16/59 7/16/52
f 54/28/43 52/27/42 195/15/15 191/14/14
