# Blender 4.5.4 LTS
# www.blender.org
mtllib pingu_head.mtl
o pinguin_001.001
v 0.000000 1.283632 -0.029600
v 0.031937 1.277640 -0.031042
v 0.074376 1.241941 -0.043056
v 0.068470 1.233584 -0.118613
v 0.063273 1.169875 -0.125919
v 0.000000 1.158504 -0.203714
v 0.000000 1.273338 -0.120264
v 0.000000 1.218129 -0.212340
v 0.031996 1.267146 -0.119209
v 0.036657 1.209051 -0.184801
v 0.030901 1.164617 -0.172681
v 0.025612 1.202799 -0.209184
v 0.026417 1.174052 -0.200859
v 0.000000 1.114090 -0.157839
v 0.108691 1.106570 0.089460
v 0.057634 1.199228 -0.116737
v 0.000000 1.123513 0.118295
v 0.139127 1.064297 0.006817
v 0.057952 1.119605 0.111172
v 0.044544 1.186829 0.084422
v 0.099470 1.153278 0.035992
v 0.000000 1.191439 0.091095
v 0.098443 1.116383 -0.025361
v 0.144450 1.024839 -0.041851
v 0.107883 1.084384 -0.033531
v 0.078059 1.158156 -0.082050
v 0.063670 1.142735 -0.116293
v 0.085807 1.146372 -0.043940
v 0.082687 1.100532 -0.095534
v 0.000000 1.087629 -0.140624
v 0.045246 1.083246 -0.123580
v 0.127947 1.084157 0.049253
v 0.088031 1.200255 -0.060672
v 0.030052 1.127054 -0.141386
v 0.095306 1.179383 -0.011670
v 0.081737 1.219468 0.015702
v 0.038026 1.249521 0.035780
v 0.053160 1.037675 -0.145141
v 0.000000 1.041943 -0.161871
v 0.104158 1.026330 -0.109353
v 0.000000 1.254176 0.038639
v 0.022257 1.189160 -0.272366
v 0.000000 1.190088 -0.345930
v 0.012473 1.187203 -0.339413
v 0.009088 1.169949 -0.338392
v 0.000000 1.168030 -0.343798
v 0.057023 1.195047 -0.145658
v 0.071859 1.212461 -0.121523
v 0.080500 1.202237 -0.096213
v 0.070753 1.185194 -0.122544
v 0.076995 1.191397 -0.107031
v 0.077299 1.210989 -0.105379
v 0.064154 1.205185 -0.134479
v 0.055723 1.216425 -0.155803
v 0.000000 1.250544 -0.167445
v 0.026945 1.244581 -0.165869
v 0.063744 1.189680 -0.134709
v 0.057750 1.192186 -0.104711
v 0.057374 1.207770 -0.104564
v 0.051133 1.208867 -0.113281
v 0.056434 1.200079 -0.101871
v 0.046686 1.199260 -0.111892
v 0.051547 1.189794 -0.113469
v 0.049383 1.190953 -0.123529
v 0.049058 1.206513 -0.123367
v 0.046218 1.198561 -0.124908
v 0.062920 1.186033 -0.117109
v 0.078379 1.199798 -0.122111
v 0.076104 1.192523 -0.110615
v 0.078835 1.200487 -0.109099
v 0.067921 1.190736 -0.105561
v 0.062207 1.212994 -0.116840
v 0.069747 1.200585 -0.100715
v 0.067381 1.209818 -0.105381
v 0.075610 1.208093 -0.110464
v 0.073460 1.209239 -0.120505
v 0.057674 1.189202 -0.128608
v 0.067750 1.191249 -0.129429
v 0.074052 1.190185 -0.120698
v 0.055311 1.198393 -0.133291
v 0.067304 1.206797 -0.129264
v 0.068636 1.198909 -0.132132
v 0.057208 1.208248 -0.128406
v 0.022565 1.178340 -0.273069
v 0.021959 1.195906 -0.273345
v 0.000000 1.205623 -0.278501
v 0.000000 1.166639 -0.278140
v 0.000000 1.158360 -0.385051
v 0.000000 1.165543 -0.389035
v 0.006801 1.165688 -0.385151
v 0.006928 1.162249 -0.383321
v 0.100664 1.160229 0.006887
v 0.112476 1.063298 -0.059282
v 0.091410 1.063265 -0.091259
v 0.097291 1.150582 -0.015088
v 0.118165 1.113905 0.013555
v 0.026139 1.186263 -0.201885
v -0.031937 1.277640 -0.031042
v -0.074376 1.241941 -0.043056
v -0.068470 1.233584 -0.118613
v -0.063273 1.169875 -0.125919
v -0.031996 1.267146 -0.119209
v -0.036657 1.209051 -0.184801
v -0.030901 1.164617 -0.172681
v -0.025612 1.202799 -0.209184
v -0.026417 1.174052 -0.200859
v -0.108691 1.106570 0.089460
v -0.057634 1.199228 -0.116737
v -0.139127 1.064297 0.006817
v -0.057952 1.119605 0.111172
v -0.044544 1.186829 0.084422
v -0.099470 1.153278 0.035992
v -0.098443 1.116383 -0.025361
v -0.144450 1.024839 -0.041851
v -0.107883 1.084384 -0.033531
v -0.078059 1.158156 -0.082050
v -0.063670 1.142735 -0.116293
v -0.085807 1.146372 -0.043940
v -0.082687 1.100532 -0.095534
v -0.045246 1.083246 -0.123580
v -0.127947 1.084157 0.049253
v -0.088031 1.200255 -0.060672
v -0.030052 1.127054 -0.141386
v -0.095306 1.179383 -0.011670
v -0.081737 1.219468 0.015702
v -0.038026 1.249521 0.035780
v -0.053160 1.039469 -0.144543
v -0.104158 1.026330 -0.109353
v -0.022257 1.189160 -0.272366
v -0.012473 1.187203 -0.339413
v -0.009088 1.169949 -0.338392
v -0.057023 1.195047 -0.145658
v -0.071859 1.212461 -0.121523
v -0.080500 1.202237 -0.096213
v -0.070753 1.185194 -0.122544
v -0.076995 1.191397 -0.107031
v -0.077299 1.210989 -0.105379
v -0.064154 1.205185 -0.134479
v -0.055723 1.216425 -0.155803
v -0.026945 1.244581 -0.165869
v -0.063744 1.189680 -0.134709
v -0.057750 1.192186 -0.104711
v -0.057374 1.207770 -0.104564
v -0.051133 1.208867 -0.113281
v -0.056434 1.200079 -0.101871
v -0.046686 1.199260 -0.111892
v -0.051547 1.189794 -0.113469
v -0.049383 1.190953 -0.123529
v -0.049058 1.206513 -0.123367
v -0.046218 1.198561 -0.124908
v -0.062920 1.186033 -0.117109
v -0.078379 1.199798 -0.122111
v -0.076104 1.192523 -0.110615
v -0.078835 1.200487 -0.109099
v -0.067921 1.190736 -0.105561
v -0.062207 1.212994 -0.116840
v -0.069747 1.200585 -0.100715
v -0.067381 1.209818 -0.105381
v -0.075610 1.208093 -0.110464
v -0.073460 1.209239 -0.120505
v -0.057674 1.189202 -0.128608
v -0.067750 1.191249 -0.129429
v -0.074052 1.190185 -0.120698
v -0.055311 1.198393 -0.133291
v -0.067304 1.206797 -0.129264
v -0.068636 1.198909 -0.132132
v -0.057208 1.208248 -0.128406
v -0.022565 1.178340 -0.273069
v -0.021959 1.195906 -0.273345
v -0.006801 1.165688 -0.385151
v -0.006928 1.162249 -0.383321
v -0.100664 1.160229 0.006887
v -0.112476 1.063298 -0.059282
v -0.091410 1.063265 -0.091259
v -0.097291 1.150582 -0.015088
v -0.118165 1.113905 0.013555
v -0.026139 1.186263 -0.201885
vn 0.4104 0.9049 0.1128
vn 0.4391 0.8545 -0.2776
vn -0.0000 0.9596 -0.2814
vn -0.0000 0.9897 0.1431
vn 0.4085 0.5097 0.7572
vn 0.4069 0.7462 0.5268
vn -0.0000 0.8026 0.5965
vn -0.0000 0.5147 0.8574
vn 0.8407 0.4308 -0.3282
vn 0.8925 0.2651 -0.3648
vn 0.9213 0.3683 -0.1247
vn 0.8580 0.4489 -0.2497
vn 0.7576 0.2328 -0.6098
vn 0.4625 0.7120 -0.5284
vn 0.8315 0.2186 -0.5107
vn -0.0000 -0.9993 -0.0377
vn -0.0000 -0.9910 0.1336
vn 0.7737 -0.6334 -0.0132
vn 0.8751 -0.4707 -0.1120
vn 0.9088 0.1098 -0.4026
vn 0.8555 0.4370 -0.2779
vn -0.0000 0.9675 -0.2529
vn 0.8375 -0.2701 -0.4750
vn 0.9628 -0.0310 -0.2686
vn 0.8138 -0.1162 -0.5693
vn 0.8290 0.4877 -0.2736
vn 0.8113 0.5846 0.0040
vn 0.9470 -0.0738 -0.3127
vn 0.9305 -0.1900 -0.3131
vn 0.8139 0.4994 0.2969
vn 0.9267 0.1620 -0.3391
vn 0.8284 -0.4500 -0.3335
vn 0.8753 -0.4446 -0.1900
vn 0.9807 -0.0667 -0.1836
vn -0.0000 -0.9806 -0.1961
vn 0.8606 0.4848 -0.1561
vn -0.0000 0.9823 -0.1875
vn 0.7745 0.4897 0.4005
vn 0.8484 0.4151 0.3285
vn 0.4373 0.4868 0.7562
vn -0.0000 0.3841 0.9233
vn -0.0000 0.7098 -0.7044
vn -0.0000 0.8580 -0.5136
vn 0.8800 -0.1516 -0.4501
vn 0.9106 -0.3452 -0.2271
vn 0.9215 -0.0108 -0.3882
vn 0.8129 0.1238 -0.5691
vn 0.9615 0.0750 -0.2644
vn 0.7232 -0.3998 -0.5631
vn 0.6125 -0.3494 -0.7091
vn -0.0000 -0.5270 -0.8499
vn -0.0000 -0.6897 -0.7241
vn 0.5385 0.1396 -0.8310
vn 0.0007 0.0288 -0.9996
vn 0.9603 0.2763 -0.0387
vn 0.9118 0.3935 0.1170
vn 0.8821 0.2522 -0.3978
vn 0.7277 0.3128 -0.6104
vn 0.6864 0.4627 -0.5611
vn 0.4786 0.4512 -0.7532
vn 0.9781 0.1820 -0.1011
vn 0.9811 0.1343 -0.1391
vn 0.0052 0.4502 -0.8929
vn -0.0000 -0.9155 -0.4023
vn 0.7141 -0.6484 -0.2641
vn 0.9940 -0.0187 -0.1079
vn 0.8815 0.1249 -0.4554
vn 0.8656 0.1712 -0.4705
vn 0.9512 0.0761 -0.2989
vn 0.0343 -0.9984 0.0440
vn 0.2315 -0.7358 0.6364
vn -0.3072 -0.6355 0.7083
vn -0.5850 -0.7569 0.2913
vn 0.3285 0.0161 0.9444
vn -0.4231 -0.0065 0.9061
vn -0.9212 -0.0200 0.3885
vn 0.1895 0.7780 0.5990
vn -0.3563 0.6431 0.6778
vn -0.0334 0.9985 -0.0445
vn -0.6386 0.7340 0.2311
vn -0.6802 -0.6839 -0.2640
vn -0.1893 -0.7791 -0.5976
vn -0.9200 -0.0257 -0.3910
vn -0.3286 -0.0150 -0.9444
vn -0.2296 0.7367 -0.6360
vn -0.7104 0.6330 -0.3077
vn 0.6424 -0.7304 -0.2321
vn 0.7149 -0.6279 0.3077
vn 0.9208 0.0275 -0.3891
vn 0.9200 0.0324 0.3906
vn 0.6785 0.6853 0.2647
vn 0.5826 0.7588 -0.2912
vn 0.3574 -0.6435 -0.6769
vn 0.4224 0.0084 -0.9064
vn 0.3062 0.6361 -0.7082
vn 0.8304 0.5007 -0.2442
vn -0.0000 0.9249 -0.3802
vn -0.0000 0.2143 -0.9768
vn 0.7694 0.1869 -0.6108
vn 0.8095 0.4499 -0.3773
vn 0.7774 0.4993 -0.3825
vn -0.4104 0.9049 0.1128
vn -0.4391 0.8545 -0.2776
vn -0.4085 0.5097 0.7572
vn -0.4069 0.7462 0.5268
vn -0.8407 0.4308 -0.3282
vn -0.8580 0.4489 -0.2497
vn -0.9213 0.3683 -0.1247
vn -0.8925 0.2651 -0.3648
vn -0.7576 0.2328 -0.6098
vn -0.8315 0.2186 -0.5107
vn -0.4625 0.7120 -0.5284
vn -0.8751 -0.4707 -0.1120
vn -0.7737 -0.6334 -0.0132
vn -0.9088 0.1098 -0.4026
vn -0.8555 0.4370 -0.2779
vn -0.8375 -0.2701 -0.4750
vn -0.8138 -0.1162 -0.5693
vn -0.9628 -0.0310 -0.2686
vn -0.8290 0.4877 -0.2736
vn -0.9305 -0.1900 -0.3131
vn -0.9470 -0.0738 -0.3127
vn -0.8113 0.5846 0.0040
vn -0.8139 0.4994 0.2969
vn -0.9267 0.1620 -0.3391
vn -0.8284 -0.4500 -0.3335
vn -0.9807 -0.0667 -0.1836
vn -0.8753 -0.4446 -0.1900
vn -0.8606 0.4848 -0.1561
vn -0.7745 0.4897 0.4005
vn -0.4373 0.4868 0.7562
vn -0.8484 0.4151 0.3285
vn -0.8800 -0.1516 -0.4501
vn -0.9215 -0.0108 -0.3882
vn -0.9106 -0.3452 -0.2271
vn -0.9615 0.0750 -0.2644
vn -0.8129 0.1238 -0.5691
vn -0.7232 -0.3998 -0.5631
vn -0.6125 -0.3494 -0.7091
vn -0.5387 0.1413 -0.8306
vn -0.9603 0.2763 -0.0387
vn -0.9118 0.3935 0.1170
vn -0.8821 0.2522 -0.3978
vn -0.4789 0.4546 -0.7510
vn -0.6882 0.4644 -0.5575
vn -0.7284 0.3139 -0.6090
vn -0.9781 0.1820 -0.1011
vn -0.9811 0.1343 -0.1391
vn -0.7141 -0.6484 -0.2641
vn -0.9940 -0.0187 -0.1079
vn -0.8815 0.1249 -0.4554
vn -0.8656 0.1712 -0.4705
vn -0.9512 0.0761 -0.2989
vn -0.0343 -0.9984 0.0440
vn 0.5850 -0.7569 0.2913
vn 0.3072 -0.6355 0.7083
vn -0.2315 -0.7358 0.6364
vn -0.3285 0.0161 0.9444
vn 0.4231 -0.0065 0.9061
vn 0.9212 -0.0200 0.3885
vn 0.3563 0.6432 0.6778
vn -0.1895 0.7780 0.5990
vn 0.0334 0.9985 -0.0445
vn 0.6386 0.7340 0.2311
vn 0.1893 -0.7791 -0.5976
vn 0.6802 -0.6839 -0.2640
vn 0.9200 -0.0257 -0.3910
vn 0.3286 -0.0150 -0.9444
vn 0.7104 0.6330 -0.3077
vn 0.2296 0.7367 -0.6360
vn -0.7149 -0.6279 0.3077
vn -0.6424 -0.7304 -0.2321
vn -0.9208 0.0275 -0.3891
vn -0.9200 0.0324 0.3906
vn -0.5826 0.7588 -0.2912
vn -0.6785 0.6853 0.2647
vn -0.3574 -0.6435 -0.6769
vn -0.4224 0.0084 -0.9064
vn -0.3062 0.6361 -0.7082
vn -0.8304 0.5007 -0.2442
vn -0.7694 0.1869 -0.6108
vn -0.8095 0.4499 -0.3773
vn -0.7774 0.4993 -0.3825
vt 0.886880 0.559678
vt 0.886879 0.559678
vt 0.679602 0.471864
vt 0.679973 0.471046
vt 0.679809 0.471417
vt 0.679468 0.472493
vt 0.886834 0.559598
vt 0.886833 0.559598
vt 0.886835 0.559598
vt 0.886862 0.559704
vt 0.886879 0.559672
vt 0.680105 0.470628
vt 0.030443 0.774635
vt 0.886849 0.559573
vt 0.886832 0.559598
vt 0.886867 0.559697
vt 0.886729 0.559599
vt 0.886735 0.559598
vt 0.886740 0.559597
vt 0.886735 0.559607
vt 0.886880 0.559672
vt 0.680128 0.470615
vt 0.680072 0.470857
vt 0.679579 0.472265
vt 0.679528 0.472369
vt 0.679967 0.470814
vt 0.679679 0.471514
vt 0.679541 0.471909
vt 0.679551 0.471751
vt 0.679568 0.471669
vt 0.679959 0.470797
vt 0.886872 0.559704
vt 0.886865 0.559704
vt 0.031173 0.773263
vt 0.031160 0.773452
vt 0.031270 0.773263
vt 0.031201 0.773263
vt 0.886733 0.559606
vt 0.886725 0.559615
vt 0.886733 0.559615
vt 0.886740 0.559616
vt 0.886735 0.559608
vt 0.886626 0.559782
vt 0.886657 0.559844
vt 0.886670 0.559875
vt 0.886595 0.559782
vt 0.886688 0.559844
vt 0.886688 0.559875
vt 0.886688 0.559658
vt 0.886657 0.559658
vt 0.886657 0.559640
vt 0.886688 0.559626
vt 0.886719 0.559844
vt 0.886781 0.559800
vt 0.886750 0.559782
vt 0.886781 0.559782
vt 0.886706 0.559626
vt 0.886719 0.559658
vt 0.886657 0.559702
vt 0.886657 0.559720
vt 0.886688 0.559689
vt 0.886688 0.559720
vt 0.886719 0.559720
vt 0.886719 0.559676
vt 0.886657 0.559782
vt 0.886661 0.559813
vt 0.886688 0.559782
vt 0.886688 0.559813
vt 0.886719 0.559809
vt 0.886719 0.559782
vt 0.886657 0.559755
vt 0.886688 0.559751
vt 0.886715 0.559751
vt 0.030832 0.773263
vt 0.886871 0.559704
vt 0.886870 0.559704
vt 0.886864 0.559704
vt 0.679568 0.471895
vt 0.679427 0.472521
vt 0.886866 0.559700
s 1
usemtl material
f 2/1/1 9/1/2 7/2/3 1/2/4
f 20/1/5 37/1/6 41/2/7 22/2/8
f 25/3/9 23/4/10 96/5/11 18/6/12
f 10/1/13 56/1/14 54/1/15
f 87/7/16 46/7/17 45/8/18 84/9/19
f 10/1/20 12/10/21 8/1/22
f 5/1/23 26/1/24 27/11/25
f 4/1/26 3/1/27 52/1/28 48/1/29
f 36/1/30 37/1/6 20/1/5
f 2/1/1 3/1/27 4/1/26 9/1/2
f 96/5/11 23/4/10 95/12/31
f 11/13/32 13/13/33 97/13/34
f 11/14/32 6/7/35 13/15/33
f 85/16/36 86/10/37 8/1/22 12/10/21
f 15/1/38 21/1/39 20/1/5 19/1/40
f 19/1/40 20/1/5 22/2/8 17/2/41
f 8/1/42 55/1/43 56/1/14
f 47/17/44 53/18/45 48/19/29 16/20/46
f 23/11/10 29/11/47 28/1/48
f 11/1/49 34/1/50 14/21/51 6/7/52
f 14/21/51 34/1/50 31/21/53 30/21/54
f 92/22/55 96/5/11 95/12/31
f 21/23/39 15/24/38 32/25/56 96/5/11
f 48/1/29 53/1/45 54/1/15 4/1/26
f 47/1/44 57/1/57 11/1/49
f 31/26/53 94/27/58 40/28/59 38/29/60
f 35/1/61 28/1/48 26/1/24 33/1/62
f 31/21/53 34/1/50 27/11/25 29/11/47
f 34/1/50 11/1/49 5/1/23 27/11/25
f 26/1/24 28/1/48 29/11/47
f 37/1/6 36/1/30 3/1/27 2/1/1
f 18/6/12 96/5/11 32/25/56
f 38/29/60 39/30/63 30/31/54 31/26/53
f 36/1/30 35/1/61 33/1/62 3/1/27
f 41/2/7 37/1/6 2/1/1 1/2/4
f 27/11/25 26/1/24 29/11/47
f 45/32/18 46/33/17 88/33/64 91/32/65
f 84/34/19 42/35/66 97/36/34 13/37/33
f 50/1/67 51/1/68 26/1/24 5/1/23
f 48/19/29 52/38/28 49/39/69 16/20/46
f 49/39/69 51/40/68 50/41/67 16/20/46
f 50/41/67 57/42/57 47/17/44 16/20/46
f 26/1/24 51/1/68 49/1/69 33/1/62
f 52/1/28 3/1/27 33/1/62 49/1/69
f 56/1/14 55/1/43 7/2/3 9/1/2
f 54/1/15 56/1/14 9/1/2 4/1/26
f 54/1/15 53/1/45 47/1/44
f 11/1/49 57/1/57 50/1/67 5/1/23
f 10/1/13 8/1/42 56/1/14
f 67/43/70 71/44/71 58/45/72 63/46/73
f 73/47/74 61/48/75 58/45/72 71/44/71
f 62/49/76 63/50/73 58/51/72 61/52/75
f 73/47/74 74/53/77 59/54/78 61/48/75
f 72/55/79 60/56/80 59/54/78 74/53/77
f 62/49/76 61/52/75 59/57/78 60/58/80
f 67/43/70 63/46/73 64/59/81 77/60/82
f 62/49/76 66/61/83 64/59/81 63/50/73
f 80/62/84 77/60/82 64/59/81 66/61/83
f 72/55/79 83/63/85 65/64/86 60/56/80
f 80/62/84 66/61/83 65/64/86 83/63/85
f 62/49/76 60/58/80 65/64/86 66/61/83
f 67/43/70 79/65/87 69/66/88 71/44/71
f 68/67/89 70/68/90 69/66/88 79/65/87
f 73/47/74 71/44/71 69/66/88 70/68/90
f 72/55/79 74/53/77 75/69/91 76/70/92
f 73/47/74 70/68/90 75/69/91 74/53/77
f 68/67/89 76/70/92 75/69/91 70/68/90
f 67/43/70 77/60/82 78/71/93 79/65/87
f 80/62/84 82/72/94 78/71/93 77/60/82
f 68/67/89 79/65/87 78/71/93 82/72/94
f 72/55/79 76/70/92 81/73/95 83/63/85
f 68/67/89 82/72/94 81/73/95 76/70/92
f 80/62/84 83/63/85 81/73/95 82/72/94
f 45/74/18 42/35/66 84/34/19
f 44/75/96 43/76/97 86/10/37 85/16/36
f 6/7/35 87/7/16 84/9/19 13/15/33
f 89/76/98 90/75/99 91/32/65 88/33/64
f 43/76/97 44/75/96 90/75/99 89/76/98
f 44/75/96 45/32/18 91/32/65 90/75/99
f 93/11/100 94/21/58 29/11/47
f 21/23/39 96/5/11 92/22/55
f 92/1/55 35/1/61 36/1/30
f 94/21/58 31/21/53 29/11/47
f 95/1/31 23/11/10 28/1/48
f 21/1/39 36/1/30 20/1/5
f 97/77/34 12/10/21 10/1/20 11/1/32
f 93/78/100 25/3/9 18/6/12 24/79/101
f 94/27/58 93/78/100 24/79/101 40/28/59
f 92/1/55 95/1/31 35/1/61
f 21/1/39 92/1/55 36/1/30
f 35/1/61 95/1/31 28/1/48
f 23/11/10 25/11/9 29/11/47
f 25/11/9 93/11/100 29/11/47
f 42/80/66 45/32/18 44/75/96 85/16/36
f 97/77/34 42/80/66 85/16/36 12/10/21
f 10/1/13 47/1/44 11/1/49
f 10/1/13 54/1/15 47/1/44
f 98/1/102 1/2/4 7/2/3 102/1/103
f 111/1/104 22/2/8 41/2/7 126/1/105
f 115/3/106 109/6/107 176/5/108 113/4/109
f 103/1/110 139/1/111 140/1/112
f 87/7/16 168/9/113 131/8/114 46/7/17
f 103/1/115 8/1/22 105/10/116
f 101/1/117 117/11/118 116/1/119
f 100/1/120 133/1/121 137/1/122 99/1/123
f 125/1/124 111/1/104 126/1/105
f 98/1/102 102/1/103 100/1/120 99/1/123
f 176/5/108 175/12/125 113/4/109
f 104/13/126 177/13/127 106/13/128
f 104/14/126 106/15/128 6/7/35
f 169/16/129 105/10/116 8/1/22 86/10/37
f 107/1/130 110/1/131 111/1/104 112/1/132
f 110/1/131 17/2/41 22/2/8 111/1/104
f 8/1/42 140/1/112 55/1/43
f 132/17/133 108/20/134 133/19/121 138/18/135
f 113/11/109 118/1/136 119/11/137
f 104/1/138 6/7/52 14/21/51 123/1/139
f 14/21/51 30/21/54 120/21/140 123/1/139
f 172/22/141 175/12/125 176/5/108
f 112/23/132 176/5/108 121/25/142 107/24/130
f 133/1/121 100/1/120 139/1/111 138/1/135
f 132/1/133 104/1/138 141/1/143
f 120/26/140 127/29/144 128/28/145 174/27/146
f 124/1/147 122/1/148 116/1/119 118/1/136
f 120/21/140 119/11/137 117/11/118 123/1/139
f 123/1/139 117/11/118 101/1/117 104/1/138
f 116/1/119 119/11/137 118/1/136
f 126/1/105 98/1/102 99/1/123 125/1/124
f 109/6/107 121/25/142 176/5/108
f 127/29/144 120/26/140 30/31/54 39/30/63
f 125/1/124 99/1/123 122/1/148 124/1/147
f 41/2/7 1/2/4 98/1/102 126/1/105
f 117/11/118 119/11/137 116/1/119
f 131/32/114 171/32/149 88/33/64 46/33/17
f 168/34/113 106/37/128 177/36/127 129/35/150
f 135/1/151 101/1/117 116/1/119 136/1/152
f 133/19/121 108/20/134 134/39/153 137/38/122
f 134/39/153 108/20/134 135/41/151 136/40/152
f 135/41/151 108/20/134 132/17/133 141/42/143
f 116/1/119 122/1/148 134/1/153 136/1/152
f 137/1/122 134/1/153 122/1/148 99/1/123
f 140/1/112 102/1/103 7/2/3 55/1/43
f 139/1/111 100/1/120 102/1/103 140/1/112
f 139/1/111 132/1/133 138/1/135
f 104/1/138 101/1/117 135/1/151 141/1/143
f 103/1/110 140/1/112 8/1/42
f 151/43/154 147/46/155 142/45/156 155/44/157
f 157/47/158 155/44/157 142/45/156 145/48/159
f 146/49/160 145/52/159 142/51/156 147/50/155
f 157/47/158 145/48/159 143/54/161 158/53/162
f 156/55/163 158/53/162 143/54/161 144/56/164
f 146/49/160 144/58/164 143/57/161 145/52/159
f 151/43/154 161/60/165 148/59/166 147/46/155
f 146/49/160 147/50/155 148/59/166 150/61/167
f 164/62/168 150/61/167 148/59/166 161/60/165
f 156/55/163 144/56/164 149/64/169 167/63/170
f 164/62/168 167/63/170 149/64/169 150/61/167
f 146/49/160 150/61/167 149/64/169 144/58/164
f 151/43/154 155/44/157 153/66/171 163/65/172
f 152/67/173 163/65/172 153/66/171 154/68/174
f 157/47/158 154/68/174 153/66/171 155/44/157
f 156/55/163 160/70/175 159/69/176 158/53/162
f 157/47/158 158/53/162 159/69/176 154/68/174
f 152/67/173 154/68/174 159/69/176 160/70/175
f 151/43/154 163/65/172 162/71/177 161/60/165
f 164/62/168 161/60/165 162/71/177 166/72/178
f 152/67/173 166/72/178 162/71/177 163/65/172
f 156/55/163 167/63/170 165/73/179 160/70/175
f 152/67/173 160/70/175 165/73/179 166/72/178
f 164/62/168 166/72/178 165/73/179 167/63/170
f 131/74/114 168/34/113 129/35/150
f 130/75/180 169/16/129 86/10/37 43/76/97
f 6/7/35 106/15/128 168/9/113 87/7/16
f 89/76/98 88/33/64 171/32/149 170/75/181
f 43/76/97 89/76/98 170/75/181 130/75/180
f 130/75/180 170/75/181 171/32/149 131/32/114
f 173/11/182 119/11/137 174/21/146
f 112/23/132 172/22/141 176/5/108
f 172/1/141 125/1/124 124/1/147
f 174/21/146 119/11/137 120/21/140
f 175/1/125 118/1/136 113/11/109
f 112/1/132 111/1/104 125/1/124
f 177/77/127 104/1/126 103/1/115 105/10/116
f 173/78/182 114/79/183 109/6/107 115/3/106
f 174/27/146 128/28/145 114/79/183 173/78/182
f 172/1/141 124/1/147 175/1/125
f 112/1/132 125/1/124 172/1/141
f 124/1/147 118/1/136 175/1/125
f 113/11/109 119/11/137 115/11/106
f 115/11/106 119/11/137 173/11/182
f 129/80/150 169/16/129 130/75/180 131/32/114
f 177/77/127 105/10/116 169/16/129 129/80/150
f 103/1/110 104/1/138 132/1/133
f 103/1/110 132/1/133 139/1/111
